<svg xmlns="http://www.w3.org/2000/svg" width="1601" height="489" viewBox="0 0 1601 489" fill="none">
    <g clip-path="url(#clip0_635_46409)">
      <g clip-path="url(#clip1_635_46409)">
        <path d="M997.642 691.043L997.109 690.51L999.764 687.855L1000.3 688.387L997.642 691.043ZM1002.96 685.725L1002.43 685.192L1005.08 682.538L1005.61 683.07L1002.96 685.725ZM1008.28 680.407L1007.74 679.875L1010.4 677.22L1010.93 677.753L1008.27 680.407H1008.28ZM1013.59 675.09L1013.06 674.558L1015.72 671.903L1016.25 672.435L1013.59 675.09ZM1018.91 669.773L1018.38 669.24L1021.03 666.585L1021.57 667.118L1018.91 669.78V669.773ZM1024.23 664.455L1023.7 663.923L1026.35 661.267L1026.88 661.8L1024.23 664.455ZM1029.55 659.138L1029.01 658.605L1031.67 655.95L1032.2 656.483L1029.55 659.145V659.138ZM1034.86 653.82L1034.33 653.288L1036.99 650.633L1037.52 651.165L1034.86 653.82ZM1040.18 648.503L1039.65 647.97L1042.3 645.315L1042.84 645.848L1040.18 648.503ZM1045.5 643.185L1044.97 642.653L1047.62 639.99L1048.15 640.523L1045.5 643.177V643.185ZM1050.82 637.868L1050.28 637.335L1052.94 634.68L1053.47 635.212L1050.82 637.868ZM1056.13 632.55L1055.6 632.017L1058.26 629.363L1058.79 629.895L1056.13 632.55ZM1061.45 627.233L1060.92 626.7L1063.57 624.045L1064.11 624.578L1061.45 627.233ZM1066.77 621.915L1066.24 621.383L1068.89 618.728L1069.42 619.26L1066.77 621.915ZM1072.09 616.598L1071.55 616.065L1074.21 613.41L1074.74 613.943L1072.09 616.598ZM1077.4 611.28L1076.87 610.747L1079.53 608.093L1080.06 608.625L1077.4 611.28ZM1082.72 605.962L1082.19 605.43L1084.85 602.775L1085.38 603.308L1082.73 605.97L1082.72 605.962ZM1766.89 605.52L1764.23 602.865L1764.76 602.333L1767.42 604.988L1766.89 605.52ZM1088.04 600.645L1087.51 600.113L1090.16 597.458L1090.69 597.99L1088.04 600.645ZM1761.57 600.203L1758.91 597.548L1759.45 597.015L1762.1 599.67L1761.57 600.203ZM1093.36 595.328L1092.82 594.795L1095.48 592.14L1096.01 592.673L1093.36 595.328ZM1756.26 594.885L1753.6 592.223L1754.14 591.69L1756.79 594.345L1756.26 594.878V594.885ZM1098.67 590.01L1098.14 589.478L1100.8 586.823L1101.33 587.355L1098.67 590.01ZM1750.94 589.568L1748.29 586.913L1748.82 586.38L1751.47 589.035L1750.94 589.568ZM1103.99 584.693L1103.46 584.16L1106.11 581.505L1106.65 582.038L1103.99 584.693ZM1745.62 584.25L1742.97 581.595L1743.5 581.063L1746.16 583.718L1745.62 584.25ZM1109.31 579.375L1108.78 578.843L1111.43 576.188L1111.96 576.72L1109.31 579.383V579.375ZM1740.31 578.933L1737.65 576.278L1738.18 575.745L1740.84 578.4L1740.31 578.933ZM1114.63 574.058L1114.09 573.525L1116.75 570.863L1117.28 571.395L1114.63 574.05V574.058ZM1734.99 573.615L1732.33 570.96L1732.87 570.427L1735.52 573.083L1734.99 573.615ZM1119.94 568.74L1119.41 568.208L1122.07 565.552L1122.6 566.085L1119.94 568.74ZM1729.67 568.298L1727.02 565.642L1727.55 565.11L1730.2 567.765L1729.67 568.298ZM1125.26 563.423L1124.73 562.89L1127.38 560.228L1127.92 560.76L1125.26 563.415V563.423ZM1724.35 562.98L1721.7 560.325L1722.23 559.793L1724.89 562.455L1724.35 562.988V562.98ZM1130.57 558.105L1130.04 557.573L1132.69 554.918L1133.23 555.45L1130.57 558.105ZM1719.04 557.663L1716.38 555.008L1716.91 554.475L1719.57 557.13L1719.04 557.663ZM1135.89 552.788L1135.36 552.255L1138.01 549.6L1138.54 550.133L1135.89 552.788ZM1713.72 552.345L1711.06 549.69L1711.6 549.158L1714.25 551.813L1713.72 552.345ZM1141.21 547.47L1140.67 546.938L1143.33 544.283L1143.86 544.815L1141.21 547.47ZM1708.4 547.028L1705.75 544.372L1706.28 543.84L1708.93 546.495L1708.4 547.028ZM1146.52 542.153L1145.99 541.62L1148.65 538.965L1149.18 539.497L1146.52 542.153ZM1703.08 541.71L1700.43 539.055L1700.96 538.523L1703.62 541.177L1703.08 541.71ZM1151.84 536.835L1151.31 536.302L1153.96 533.648L1154.5 534.18L1151.84 536.835ZM1697.77 536.392L1695.11 533.738L1695.64 533.205L1698.3 535.86L1697.77 536.392ZM1157.16 531.517L1156.63 530.985L1159.28 528.33L1159.81 528.863L1157.16 531.517ZM1692.45 531.075L1689.79 528.42L1690.33 527.888L1692.98 530.543L1692.45 531.075ZM1162.47 526.2L1161.94 525.668L1164.6 523.013L1165.13 523.545L1162.48 526.208L1162.47 526.2ZM1687.13 525.758L1684.48 523.095L1685.01 522.563L1687.66 525.218L1687.13 525.75V525.758ZM1167.79 520.883L1167.25 520.35L1169.91 517.688L1170.44 518.22L1167.79 520.875V520.883ZM1681.81 520.44L1679.16 517.785L1679.69 517.253L1682.35 519.908L1681.81 520.44ZM1173.1 515.565L1172.57 515.033L1175.23 512.378L1175.76 512.91L1173.1 515.565ZM1676.5 515.122L1673.84 512.46L1674.37 511.927L1677.03 514.583L1676.5 515.115V515.122ZM1178.42 510.247L1177.89 509.715L1180.54 507.052L1181.08 507.585L1178.41 510.24L1178.42 510.247ZM1671.18 509.805L1668.52 507.15L1669.05 506.618L1671.7 509.273L1671.17 509.805H1671.18ZM1183.74 504.93L1183.21 504.398L1185.86 501.743L1186.39 502.275L1183.74 504.93ZM1665.86 504.488L1663.21 501.833L1663.74 501.3L1666.39 503.955L1665.86 504.488ZM1189.06 499.613L1188.52 499.08L1191.18 496.425L1191.71 496.958L1189.06 499.613ZM1660.54 499.17L1657.89 496.515L1658.42 495.983L1661.08 498.638L1660.54 499.17ZM1194.37 494.295L1193.83 493.763L1196.49 491.108L1197.02 491.64L1194.37 494.295ZM1655.23 493.853L1652.57 491.198L1653.1 490.665L1655.76 493.32L1655.23 493.853ZM1199.68 488.978L1199.15 488.445L1201.81 485.79L1202.34 486.323L1199.68 488.978ZM1649.91 488.535L1647.25 485.88L1647.79 485.348L1650.44 488.003L1649.91 488.535ZM1205 483.66L1204.47 483.128L1207.12 480.473L1207.66 481.005L1204.99 483.66H1205ZM1644.59 483.218L1641.94 480.563L1642.47 480.03L1645.12 482.685L1644.59 483.218ZM1210.32 478.343L1209.79 477.81L1212.44 475.155L1212.97 475.688L1210.32 478.343ZM1639.27 477.9L1636.62 475.245L1637.15 474.712L1639.81 477.368L1639.27 477.9ZM1215.64 473.025L1215.1 472.493L1217.76 469.837L1218.29 470.37L1215.64 473.032V473.025ZM1633.96 472.583L1631.3 469.92L1631.83 469.387L1634.49 472.043L1633.96 472.575V472.583ZM1220.95 467.708L1220.42 467.175L1223.08 464.52L1223.61 465.052L1220.95 467.708ZM1628.64 467.265L1625.98 464.61L1626.52 464.078L1629.17 466.733L1628.64 467.265ZM1226.26 462.39L1225.73 461.858L1228.39 459.203L1228.92 459.735L1226.26 462.398V462.39ZM1623.32 461.948L1620.67 459.285L1621.2 458.753L1623.85 461.407L1623.32 461.94V461.948ZM1231.58 457.073L1231.05 456.54L1233.7 453.878L1234.24 454.41L1231.58 457.065V457.073ZM1618 456.63L1615.35 453.975L1615.88 453.442L1618.54 456.105L1618 456.637V456.63ZM1236.9 451.755L1236.37 451.223L1239.02 448.567L1239.55 449.1L1236.9 451.755ZM1612.69 451.313L1610.03 448.657L1610.56 448.125L1613.22 450.78L1612.69 451.313ZM1242.22 446.438L1241.68 445.905L1244.34 443.25L1244.87 443.782L1242.22 446.438ZM1607.37 445.995L1604.71 443.34L1605.25 442.808L1607.9 445.462L1607.37 445.995ZM1247.53 441.12L1247 440.587L1249.66 437.933L1250.19 438.465L1247.53 441.12ZM1602.05 440.677L1599.4 438.023L1599.93 437.49L1602.58 440.145L1602.05 440.677ZM1252.85 435.802L1252.32 435.27L1254.97 432.615L1255.51 433.148L1252.85 435.802ZM1596.73 435.36L1594.08 432.705L1594.61 432.173L1597.27 434.828L1596.73 435.36ZM1258.16 430.485L1257.63 429.953L1260.28 427.298L1260.82 427.83L1258.16 430.485ZM1591.42 430.043L1588.76 427.387L1589.29 426.855L1591.95 429.517L1591.42 430.05V430.043ZM1263.48 425.168L1262.95 424.635L1265.6 421.98L1266.13 422.512L1263.48 425.168ZM1586.1 424.725L1583.44 422.07L1583.98 421.538L1586.63 424.193L1586.1 424.725ZM1268.8 419.85L1268.26 419.318L1270.92 416.663L1271.45 417.195L1268.8 419.858V419.85ZM1580.78 419.408L1578.13 416.753L1578.66 416.22L1581.31 418.875L1580.78 419.408ZM1274.11 414.533L1273.58 414L1276.24 411.345L1276.77 411.878L1274.11 414.533ZM1575.46 414.09L1572.81 411.435L1573.34 410.903L1576 413.557L1575.46 414.09ZM1279.43 409.215L1278.9 408.682L1281.55 406.028L1282.09 406.56L1279.43 409.223V409.215ZM1570.15 408.773L1567.49 406.11L1568.02 405.578L1570.68 408.233L1570.15 408.765V408.773ZM1284.75 403.898L1284.22 403.365L1286.87 400.703L1287.4 401.235L1284.75 403.89V403.898ZM1564.83 403.455L1562.17 400.8L1562.71 400.268L1565.36 402.923L1564.83 403.455ZM1290.06 398.58L1289.53 398.048L1292.18 395.393L1292.71 395.925L1290.06 398.58ZM1559.51 398.137L1556.86 395.483L1557.39 394.95L1560.04 397.605L1559.51 398.137ZM1295.38 393.262L1294.84 392.73L1297.5 390.075L1298.03 390.608L1295.38 393.262ZM1554.19 392.82L1551.54 390.165L1552.07 389.633L1554.73 392.288L1554.19 392.82ZM1300.69 387.945L1300.16 387.413L1302.82 384.758L1303.35 385.29L1300.69 387.945ZM1548.88 387.503L1546.22 384.848L1546.75 384.315L1549.41 386.97L1548.88 387.503ZM1306.01 382.628L1305.48 382.095L1308.13 379.44L1308.67 379.973L1306.01 382.628ZM1543.56 382.185L1540.9 379.523L1541.44 378.99L1544.09 381.645L1543.56 382.178V382.185ZM1311.33 377.31L1310.8 376.778L1313.45 374.123L1313.98 374.655L1311.33 377.31ZM1538.24 376.868L1535.59 374.213L1536.12 373.68L1538.77 376.342L1538.24 376.875V376.868ZM1316.65 371.993L1316.11 371.46L1318.77 368.805L1319.3 369.338L1316.65 371.993ZM1532.92 371.55L1530.27 368.895L1530.8 368.363L1533.46 371.018L1532.92 371.55ZM1321.96 366.675L1321.42 366.143L1324.08 363.488L1324.61 364.02L1321.96 366.682V366.675ZM1527.61 366.233L1524.95 363.578L1525.48 363.045L1528.14 365.708L1527.61 366.24V366.233ZM1327.27 361.358L1326.74 360.825L1329.4 358.17L1329.93 358.703L1327.27 361.358ZM1522.29 360.915L1519.63 358.26L1520.17 357.727L1522.82 360.383L1522.29 360.915ZM1332.59 356.04L1332.06 355.508L1334.71 352.852L1335.25 353.385L1332.59 356.04ZM1516.97 355.598L1514.32 352.943L1514.85 352.41L1517.5 355.065L1516.97 355.598ZM1337.91 350.723L1337.38 350.19L1340.03 347.528L1340.56 348.06L1337.9 350.715L1337.91 350.723ZM1511.65 350.28L1509 347.625L1509.53 347.092L1512.19 349.748L1511.65 350.28ZM1343.23 345.405L1342.69 344.873L1345.35 342.217L1345.88 342.75L1343.23 345.405ZM1506.34 344.963L1503.68 342.307L1504.21 341.775L1506.87 344.43L1506.34 344.963ZM1348.54 340.088L1348.01 339.555L1350.67 336.9L1351.2 337.432L1348.54 340.088ZM1501.02 339.645L1498.36 336.99L1498.89 336.458L1501.54 339.113L1501.01 339.645H1501.02ZM1353.85 334.77L1353.32 334.238L1355.98 331.583L1356.51 332.115L1353.85 334.77ZM1495.7 334.328L1493.05 331.672L1493.58 331.14L1496.23 333.795L1495.7 334.328ZM1359.17 329.453L1358.64 328.92L1361.29 326.265L1361.83 326.797L1359.17 329.453ZM1490.38 329.01L1487.73 326.348L1488.26 325.815L1490.92 328.47L1490.38 329.002V329.01ZM1364.49 324.135L1363.96 323.602L1366.61 320.948L1367.14 321.48L1364.49 324.135ZM1485.07 323.693L1482.41 321.038L1482.94 320.505L1485.6 323.16L1485.07 323.693ZM1369.81 318.818L1369.27 318.285L1371.94 315.623L1372.46 316.155L1369.81 318.81V318.818ZM1479.75 318.375L1477.77 316.395C1477.54 316.17 1477.32 315.945 1477.09 315.727L1477.62 315.195C1477.85 315.42 1478.08 315.645 1478.3 315.87L1480.28 317.85L1479.75 318.383V318.375ZM1375.18 313.598L1374.68 313.043C1375.61 312.203 1376.58 311.378 1377.55 310.59L1378.03 311.175C1377.06 311.955 1376.11 312.773 1375.18 313.605V313.598ZM1474.35 313.185C1473.42 312.36 1472.46 311.558 1471.48 310.778L1471.95 310.193C1472.93 310.973 1473.9 311.79 1474.84 312.623L1474.35 313.185ZM1380.99 308.887L1380.55 308.28C1381.55 307.545 1382.6 306.818 1383.65 306.128L1384.06 306.758C1383.02 307.44 1381.99 308.16 1380.99 308.887ZM1468.51 308.52C1467.49 307.793 1466.46 307.08 1465.42 306.413L1465.82 305.783C1466.87 306.458 1467.92 307.178 1468.94 307.913L1468.51 308.52ZM1387.24 304.778L1386.86 304.133C1387.94 303.495 1389.06 302.88 1390.17 302.303L1390.51 302.97C1389.41 303.54 1388.32 304.155 1387.24 304.785V304.778ZM1462.23 304.463C1461.16 303.84 1460.05 303.248 1458.94 302.678L1459.29 302.01C1460.41 302.58 1461.52 303.188 1462.61 303.81L1462.24 304.463H1462.23ZM1393.87 301.32L1393.56 300.637C1394.71 300.112 1395.87 299.61 1397.03 299.153L1397.31 299.85C1396.16 300.308 1395.01 300.803 1393.87 301.32ZM1455.57 301.065C1454.43 300.555 1453.27 300.068 1452.12 299.618L1452.39 298.92C1453.55 299.37 1454.73 299.865 1455.88 300.383L1455.57 301.065ZM1400.82 298.553L1400.58 297.84C1401.76 297.435 1402.98 297.053 1404.19 296.708L1404.4 297.428C1403.2 297.773 1402 298.148 1400.83 298.545L1400.82 298.553ZM1448.6 298.358C1447.42 297.968 1446.22 297.6 1445.02 297.27L1445.23 296.55C1446.43 296.888 1447.65 297.255 1448.84 297.653L1448.6 298.365V298.358ZM1408.01 296.498L1407.84 295.77C1409.06 295.485 1410.31 295.23 1411.54 295.005L1411.67 295.74C1410.45 295.958 1409.22 296.213 1408.01 296.498ZM1441.39 296.363C1440.19 296.093 1438.95 295.845 1437.73 295.635L1437.85 294.893C1439.09 295.11 1440.34 295.35 1441.56 295.627L1441.39 296.363ZM1415.37 295.17L1415.27 294.428C1416.52 294.27 1417.78 294.135 1419.03 294.038L1419.09 294.788C1417.85 294.885 1416.6 295.013 1415.37 295.178V295.17ZM1434.02 295.095C1432.79 294.945 1431.54 294.825 1430.3 294.735L1430.35 293.985C1431.61 294.075 1432.87 294.195 1434.11 294.345L1434.02 295.088V295.095ZM1422.82 294.585L1422.8 293.835C1424.06 293.798 1425.32 293.79 1426.58 293.82L1426.57 294.57C1425.32 294.548 1424.07 294.548 1422.82 294.585Z" fill="#EBECEC"/>
        <path d="M1012.28 825.657L1011.75 825.125L1381.34 455.533C1410.44 426.44 1410.44 379.092 1381.34 350L1321.88 290.533L1322.41 290L1381.88 349.467C1411.26 378.86 1411.26 426.672 1381.88 456.065L1012.28 825.657Z" fill="#EBECEC"/>
        <path d="M521.373 190.5L165.5 546.373L166.03 546.903L521.903 191.03L521.373 190.5Z" fill="#EBECEC"/>
        <path d="M-168.468 552.455L-169 551.922L211.842 171.08C226.078 156.845 245.007 149 265.137 149C285.267 149 304.197 156.838 318.432 171.08L376.4 229.048L375.867 229.58L317.9 171.613C303.807 157.52 285.065 149.758 265.13 149.758C245.195 149.758 226.46 157.52 212.36 171.613L-168.468 552.455Z" fill="#EBECEC"/>
        <path d="M496.887 86.5725C476.757 86.5725 457.827 78.735 443.592 64.4925L272.75 -106.35L273.282 -106.883L444.125 63.96C473.217 93.06 520.565 93.06 549.658 63.96L950 -336.375L950.532 -335.842L550.19 64.5C535.955 78.735 517.025 86.58 496.895 86.58L496.887 86.5725Z" fill="#EBECEC"/>
        <path d="M805.513 178.865C804.801 178.865 804.081 178.857 803.368 178.835L803.391 178.085C804.636 178.122 805.873 178.122 807.118 178.1L807.133 178.85C806.593 178.865 806.053 178.865 805.513 178.865ZM810.891 178.677L810.838 177.927C812.076 177.837 813.328 177.717 814.551 177.568L814.641 178.31C813.403 178.46 812.143 178.58 810.891 178.67V178.677ZM799.603 178.64C798.358 178.542 797.098 178.415 795.861 178.25L795.958 177.507C797.188 177.665 798.433 177.792 799.663 177.89L799.603 178.64ZM818.361 177.77L818.233 177.027C819.456 176.818 820.686 176.577 821.893 176.307L822.058 177.042C820.836 177.312 819.598 177.56 818.368 177.77H818.361ZM792.133 177.68C790.911 177.462 789.666 177.207 788.443 176.922L788.616 176.195C789.823 176.472 791.053 176.727 792.268 176.945L792.133 177.68ZM825.703 176.127L825.501 175.408C826.693 175.077 827.893 174.71 829.063 174.32L829.296 175.033C828.111 175.43 826.896 175.797 825.696 176.127H825.703ZM784.798 175.985C783.598 175.64 782.391 175.265 781.206 174.86L781.446 174.147C782.616 174.545 783.816 174.92 785.001 175.257L784.798 175.977V175.985ZM832.843 173.757L832.573 173.06C833.728 172.61 834.883 172.13 836.016 171.62L836.323 172.302C835.183 172.812 834.013 173.3 832.851 173.75L832.843 173.757ZM777.666 173.562C776.503 173.105 775.341 172.61 774.201 172.085L774.516 171.402C775.641 171.92 776.796 172.407 777.943 172.865L777.666 173.562ZM839.713 170.682L839.376 170.015C840.478 169.452 841.581 168.86 842.653 168.237L843.028 168.89C841.941 169.512 840.831 170.12 839.721 170.682H839.713ZM770.818 170.443C769.708 169.865 768.598 169.257 767.518 168.627L767.893 167.982C768.958 168.605 770.061 169.212 771.156 169.783L770.811 170.45L770.818 170.443ZM846.238 166.932L845.833 166.302C846.868 165.635 847.911 164.93 848.916 164.21L849.351 164.818C848.331 165.545 847.288 166.257 846.238 166.932ZM764.316 166.647C763.273 165.965 762.231 165.245 761.218 164.51L761.661 163.902C762.658 164.63 763.693 165.342 764.728 166.017L764.316 166.647ZM852.358 162.552L851.893 161.967C852.861 161.195 853.828 160.392 854.751 159.575L855.246 160.137C854.308 160.962 853.341 161.772 852.358 162.552ZM758.233 162.222C757.258 161.435 756.298 160.617 755.361 159.785L755.863 159.222C756.786 160.047 757.746 160.857 758.706 161.637L758.233 162.222ZM858.013 157.58L857.488 157.04C857.751 156.785 858.013 156.53 858.268 156.267L860.136 154.4L860.668 154.932L858.801 156.8C858.538 157.062 858.276 157.325 858.013 157.58ZM752.616 157.212L749.961 154.565L750.493 154.033L753.141 156.68L752.616 157.212ZM863.316 152.285L862.783 151.752L865.431 149.105L865.963 149.637L863.316 152.285ZM747.313 151.91L744.666 149.262L745.198 148.73L747.846 151.377L747.313 151.91ZM868.618 146.982L868.086 146.45L870.733 143.802L871.266 144.335L868.618 146.982ZM742.018 146.607L739.371 143.96L739.903 143.427L742.551 146.075L742.018 146.607ZM873.921 141.68L873.388 141.147L876.036 138.5L876.568 139.033L873.921 141.68ZM736.716 141.305L734.068 138.658L734.601 138.125L737.248 140.772L736.716 141.305ZM879.216 136.377L878.683 135.845L881.331 133.197L881.863 133.73L879.216 136.377ZM731.413 136.002L728.766 133.355L729.298 132.822L731.946 135.47L731.413 136.002ZM884.511 131.075L883.978 130.542L886.626 127.895L887.158 128.427L884.511 131.075ZM726.111 130.7L723.463 128.052L723.996 127.52L726.643 130.167L726.111 130.7ZM889.806 125.772L889.273 125.24L891.921 122.592L892.453 123.125L889.806 125.772ZM720.808 125.397L718.161 122.75L718.693 122.217L721.341 124.865L720.808 125.397ZM895.101 120.47L894.568 119.937L897.216 117.29L897.748 117.823L895.101 120.47ZM715.506 120.095L712.858 117.448L713.391 116.915L716.038 119.562L715.506 120.095ZM900.396 115.167L899.863 114.635L902.511 111.987L903.043 112.52L900.396 115.167ZM710.203 114.792L707.556 112.145L708.088 111.612L710.736 114.26L710.203 114.792ZM905.691 109.865L905.158 109.332L907.806 106.685L908.338 107.217L905.691 109.865ZM704.901 109.49L702.253 106.842L702.786 106.31L705.433 108.957L704.901 109.49ZM910.986 104.562L910.453 104.03L913.101 101.382L913.633 101.915L910.986 104.562ZM699.598 104.187L696.951 101.54L697.483 101.007L700.131 103.655L699.598 104.187ZM916.281 99.26L915.748 98.7275L918.396 96.08L918.928 96.6125L916.281 99.26ZM694.296 98.885L691.648 96.2375L692.181 95.705L694.828 98.3525L694.296 98.885ZM921.576 93.9575L921.043 93.425L923.691 90.7775L924.223 91.31L921.576 93.9575ZM688.993 93.5825L686.346 90.935L686.878 90.4025L689.526 93.05L688.993 93.5825ZM926.871 88.655L926.338 88.1225L928.986 85.475L929.518 86.0075L926.871 88.655ZM683.691 88.28L681.043 85.6325L681.576 85.1L684.223 87.7475L683.691 88.28ZM932.166 83.3525L931.633 82.82L934.281 80.1725L934.813 80.705L932.166 83.3525ZM678.388 82.9775L675.741 80.33L676.273 79.7975L678.921 82.445L678.388 82.9775ZM937.468 78.05L936.936 77.5175L939.583 74.87L940.116 75.4025L937.468 78.05ZM673.093 77.675L670.446 75.0275L670.978 74.495L673.626 77.1425L673.093 77.675ZM942.771 72.7475L942.238 72.215L944.886 69.5675L945.418 70.1L942.771 72.7475ZM667.798 72.3725L665.151 69.725L665.683 69.1925L668.331 71.84L667.798 72.3725ZM948.073 67.445L947.541 66.9125L950.188 64.265L950.721 64.7975L948.073 67.445ZM662.503 67.07L659.856 64.4225L660.388 63.89L663.036 66.5375L662.503 67.07ZM953.376 62.1425L952.843 61.61L955.491 58.9625L956.023 59.495L953.376 62.1425ZM657.208 61.7675L654.561 59.12L655.093 58.5875L657.741 61.235L657.208 61.7675ZM958.678 56.84L958.146 56.3075L960.793 53.66L961.326 54.1925L958.678 56.84ZM651.913 56.465L649.266 53.8175L649.798 53.285L652.446 55.9325L651.913 56.465ZM963.981 51.5375L963.448 51.005L966.096 48.3575L966.628 48.89L963.981 51.5375ZM646.618 51.1625L643.971 48.515L644.503 47.9825L647.151 50.63L646.618 51.1625ZM969.283 46.235L968.751 45.7025L971.398 43.055L971.931 43.5875L969.283 46.235ZM641.323 45.86L638.676 43.2125L639.208 42.68L641.856 45.3275L641.323 45.86ZM974.586 40.9325L974.053 40.4L976.701 37.7525L977.233 38.285L974.586 40.9325ZM636.028 40.5575L633.381 37.91L633.913 37.3775L636.561 40.025L636.028 40.5575ZM979.888 35.63L979.356 35.0975L982.003 32.45L982.536 32.9825L979.888 35.63ZM630.733 35.255L628.086 32.6075L628.618 32.075L631.266 34.7225L630.733 35.255ZM985.191 30.3275L984.658 29.795L987.306 27.1475L987.838 27.68L985.191 30.3275ZM625.438 29.9525L622.791 27.305L623.323 26.7725L625.971 29.42L625.438 29.9525ZM990.493 25.025L989.961 24.4925L992.608 21.845L993.141 22.3775L990.493 25.025ZM620.143 24.65L617.496 22.0025L618.028 21.47L620.676 24.1175L620.143 24.65ZM995.796 19.7225L995.263 19.19L997.911 16.5425L998.443 17.075L995.796 19.7225ZM614.841 19.3475L612.193 16.7L612.726 16.1675L615.373 18.815L614.841 19.3475ZM1001.09 14.42L1000.56 13.8875L1003.21 11.24L1003.74 11.7725L1001.09 14.42ZM609.538 14.045L606.891 11.3975L607.423 10.865L610.071 13.5125L609.538 14.045ZM1006.39 9.11749L1005.85 8.58499L1008.5 5.93748L1009.03 6.46999L1006.39 9.11749ZM604.236 8.74249L601.588 6.09499L602.121 5.56248L604.768 8.20999L604.236 8.74249ZM1011.68 3.81499L1011.15 3.28249L1013.8 0.634979L1014.33 1.16748L1011.68 3.81499ZM598.933 3.43999L596.286 0.79248L596.818 0.259979L599.466 2.90749L598.933 3.43999ZM1016.98 -1.4875L1016.44 -2.02002L1019.09 -4.66751L1019.62 -4.13503L1016.98 -1.4875ZM593.631 -1.8625L590.983 -4.51003L591.516 -5.04251L594.163 -2.39502L593.631 -1.8625ZM1022.27 -6.79001L1021.74 -7.32253L1024.39 -9.97002L1024.92 -9.43752L1022.27 -6.79001ZM588.328 -7.16501L585.681 -9.81252L586.213 -10.345L588.861 -7.69753L588.328 -7.16501ZM1027.57 -12.0925L1027.03 -12.625L1029.68 -15.2725L1030.21 -14.74L1027.57 -12.0925ZM583.026 -12.4675L580.378 -15.115L580.911 -15.6475L583.558 -13L583.026 -12.4675ZM1032.86 -17.395L1032.33 -17.9275L1034.98 -20.575L1035.51 -20.0425L1032.86 -17.395ZM577.723 -17.77L575.076 -20.4175L575.608 -20.95L578.256 -18.3025L577.723 -17.77ZM1038.16 -22.6975L1037.62 -23.23L1040.27 -25.8775L1040.8 -25.345L1038.16 -22.6975ZM572.421 -23.0725L569.773 -25.72L570.306 -26.2525L572.953 -23.605L572.421 -23.0725ZM1043.45 -28L1042.92 -28.5325L1045.57 -31.18L1046.1 -30.6475L1043.45 -28ZM567.118 -28.375L564.471 -31.0225L565.003 -31.555L567.651 -28.9075L567.118 -28.375ZM1048.75 -33.3025L1048.21 -33.835L1050.86 -36.4825L1051.39 -35.95L1048.75 -33.3025ZM561.816 -33.6775L559.168 -36.325L559.701 -36.8575L562.348 -34.21L561.816 -33.6775ZM1054.05 -38.605L1053.52 -39.1375L1056.16 -41.785L1056.7 -41.2525L1054.05 -38.605ZM556.521 -38.98L553.873 -41.6275L554.406 -42.16L557.053 -39.5125L556.521 -38.98ZM1059.34 -43.9075L1058.81 -44.44L1061.46 -47.0875L1061.99 -46.555L1059.34 -43.9075ZM551.218 -44.2825L548.571 -46.93L549.103 -47.4625L551.751 -44.815L551.218 -44.2825ZM1064.65 -49.21L1064.11 -49.7425L1066.76 -52.39L1067.29 -51.8575L1064.65 -49.21ZM545.923 -49.585L543.276 -52.2325L543.808 -52.765L546.456 -50.1175L545.923 -49.585ZM1069.95 -54.5125L1069.42 -55.045L1072.06 -57.6925L1072.6 -57.16L1069.95 -54.5125ZM540.628 -54.8875L537.981 -57.535L538.513 -58.0675L541.161 -55.42L540.628 -54.8875ZM1075.25 -59.815L1074.72 -60.3475L1077.37 -62.995L1077.9 -62.4625L1075.25 -59.815ZM535.333 -60.19L532.686 -62.8375L533.218 -63.37L535.866 -60.7225L535.333 -60.19ZM1080.55 -65.1175L1080.02 -65.65L1082.67 -68.2975L1083.2 -67.765L1080.55 -65.1175ZM530.038 -65.4925L527.391 -68.14L527.923 -68.6725L530.571 -66.025L530.038 -65.4925ZM1085.86 -70.42L1085.32 -70.9525L1087.97 -73.6L1088.5 -73.0675L1085.86 -70.42ZM524.743 -70.795L522.096 -73.4425L522.628 -73.975L525.276 -71.3275L524.743 -70.795ZM1091.16 -75.7225L1090.63 -76.255L1093.27 -78.9025L1093.81 -78.37L1091.16 -75.7225ZM519.448 -76.0975L516.801 -78.745L517.333 -79.2775L519.981 -76.63L519.448 -76.0975ZM1096.46 -81.025L1095.93 -81.5575L1098.58 -84.205L1099.11 -83.6725L1096.46 -81.025ZM514.153 -81.4L511.506 -84.0475L512.038 -84.58L514.686 -81.9325L514.153 -81.4ZM1101.76 -86.3275L1101.23 -86.86L1103.88 -89.5075L1104.41 -88.975L1101.76 -86.3275ZM508.858 -86.7025L506.211 -89.35L506.743 -89.8825L509.391 -87.235L508.858 -86.7025ZM1107.07 -91.63L1106.53 -92.1625L1109.18 -94.81L1109.71 -94.2775L1107.07 -91.63ZM1112.37 -96.925L1111.84 -97.4575L1114.48 -100.105L1115.02 -99.5725L1112.37 -96.925ZM1117.67 -102.228L1117.14 -102.76L1119.79 -105.408L1120.32 -104.875L1117.67 -102.228ZM1122.97 -107.523L1122.44 -108.055L1125.09 -110.703L1125.62 -110.17L1122.97 -107.523ZM1128.28 -112.825L1127.74 -113.358L1130.39 -116.005L1130.92 -115.473L1128.28 -112.825ZM1133.57 -118.12L1133.04 -118.653L1135.69 -121.3L1136.22 -120.768L1133.57 -118.12ZM1138.87 -123.423L1138.34 -123.955L1140.99 -126.603L1141.52 -126.07L1138.87 -123.423ZM1144.18 -128.725L1143.64 -129.258L1146.29 -131.905L1146.82 -131.373L1144.18 -128.725ZM1149.48 -134.02L1148.95 -134.553L1151.59 -137.2L1152.13 -136.668L1149.48 -134.02ZM1154.77 -139.323L1154.24 -139.855L1156.89 -142.503L1157.42 -141.97L1154.77 -139.323ZM1160.08 -144.618L1159.54 -145.15L1162.19 -147.798L1162.72 -147.265L1160.08 -144.618ZM1165.38 -149.92L1164.85 -150.453L1167.49 -153.1L1168.03 -152.568L1165.38 -149.92ZM1170.68 -155.223L1170.15 -155.755L1172.8 -158.403L1173.33 -157.87L1170.68 -155.223ZM1175.98 -160.518L1175.45 -161.05L1178.1 -163.698L1178.63 -163.165L1175.98 -160.518ZM1181.28 -165.82L1180.75 -166.352L1183.39 -169L1183.93 -168.468L1181.28 -165.82Z" fill="#EBECEC"/>
        <path d="M504.837 565.102L504.305 564.57L971.592 97.2825C985.685 83.19 993.447 64.4475 993.447 44.5125C993.447 24.5775 985.685 5.8425 971.592 -8.25751L704.75 -275.093L705.282 -275.625L972.125 -8.7825C986.36 5.45251 994.205 24.3825 994.205 44.5125C994.205 64.6425 986.367 83.5725 972.125 97.8075L504.837 565.095V565.102Z" fill="#EBECEC"/>
        <path d="M881.75 637.658L592.407 348.315C578.315 334.223 559.572 326.46 539.637 326.46C519.702 326.46 500.967 334.223 486.867 348.315L256.025 579.158L255.492 578.625L486.335 347.783C500.57 333.548 519.5 325.703 539.63 325.703C559.76 325.703 578.69 333.54 592.925 347.783L882.267 637.125L881.735 637.658H881.75Z" fill="#EBECEC"/>
        <path d="M522.016 200.512C527.193 200.512 531.391 196.315 531.391 191.137C531.391 185.96 527.193 181.762 522.016 181.762C516.838 181.762 512.641 185.96 512.641 191.137C512.641 196.315 516.838 200.512 522.016 200.512Z" fill="#EBECEC"/>
        <path d="M375.766 239.75C380.943 239.75 385.141 235.553 385.141 230.375C385.141 225.197 380.943 221 375.766 221C370.588 221 366.391 225.197 366.391 230.375C366.391 235.553 370.588 239.75 375.766 239.75Z" fill="#EBECEC"/>
        <path d="M1323.27 300.75C1328.44 300.75 1332.64 296.553 1332.64 291.375C1332.64 286.197 1328.44 282 1323.27 282C1318.09 282 1313.89 286.197 1313.89 291.375C1313.89 296.553 1318.09 300.75 1323.27 300.75Z" fill="#EBECEC"/>
        <path d="M606.391 14.5125C609.704 14.5125 612.391 11.8262 612.391 8.51245C612.391 5.19874 609.704 2.51245 606.391 2.51245C603.077 2.51245 600.391 5.19874 600.391 8.51245C600.391 11.8262 603.077 14.5125 606.391 14.5125Z" fill="#EBECEC"/>
        <path d="M445.891 394.762C449.204 394.762 451.891 392.076 451.891 388.762C451.891 385.449 449.204 382.762 445.891 382.762C442.577 382.762 439.891 385.449 439.891 388.762C439.891 392.076 442.577 394.762 445.891 394.762Z" fill="#EBECEC"/>
        <path d="M919.891 462C923.204 462 925.891 459.314 925.891 456C925.891 452.686 923.204 450 919.891 450C916.577 450 913.891 452.686 913.891 456C913.891 459.314 916.577 462 919.891 462Z" fill="#EBECEC"/>
        <path d="M740.641 334.762C743.954 334.762 746.641 332.076 746.641 328.762C746.641 325.449 743.954 322.762 740.641 322.762C737.327 322.762 734.641 325.449 734.641 328.762C734.641 332.076 737.327 334.762 740.641 334.762Z" fill="#EBECEC"/>
        <path d="M373.651 227.288C373.197 227.556 372.669 227.64 372.16 227.547C371.15 227.418 370.418 228.519 370.937 229.398C371.437 230.286 372.762 230.193 373.151 229.259C374.068 226.89 377.459 226.89 378.385 229.259C378.765 230.193 380.099 230.286 380.599 229.398C381.109 228.519 380.377 227.418 379.376 227.547C378.867 227.64 378.339 227.547 377.885 227.288C377.422 227.029 377.088 226.622 376.912 226.131C376.505 225.123 375.032 225.123 374.624 226.131C374.448 226.613 374.105 227.029 373.651 227.288Z" fill="white"/>
        <path d="M375.763 228.565C374.754 228.565 374.161 229.74 374.781 230.554C375.115 230.943 375.3 231.443 375.3 231.97C375.3 232.488 375.115 232.988 374.781 233.386C374.151 234.2 374.754 235.384 375.763 235.375C376.773 235.375 377.366 234.2 376.745 233.386C376.412 232.997 376.227 232.497 376.227 231.97C376.227 231.452 376.412 230.952 376.745 230.554C377.375 229.74 376.773 228.556 375.763 228.565Z" fill="white"/>
        <path d="M519.901 188.05C519.447 188.319 518.919 188.402 518.41 188.31C517.4 188.18 516.668 189.281 517.187 190.16C517.687 191.048 519.012 190.956 519.401 190.021C520.318 187.653 523.709 187.653 524.635 190.021C525.015 190.956 526.349 191.048 526.849 190.16C527.359 189.281 526.627 188.18 525.626 188.31C525.117 188.402 524.589 188.31 524.135 188.05C523.672 187.791 523.338 187.384 523.162 186.894C522.755 185.885 521.282 185.885 520.874 186.894C520.698 187.375 520.355 187.791 519.901 188.05Z" fill="white"/>
        <path d="M522.013 189.327C521.004 189.327 520.411 190.502 521.031 191.317C521.365 191.705 521.55 192.205 521.55 192.732C521.55 193.251 521.365 193.75 521.031 194.148C520.401 194.962 521.004 196.147 522.013 196.137C523.023 196.137 523.616 194.962 522.995 194.148C522.662 193.759 522.477 193.26 522.477 192.732C522.477 192.214 522.662 191.715 522.995 191.317C523.625 190.502 523.023 189.318 522.013 189.327Z" fill="white"/>
        <path d="M1321.15 288.288C1320.7 288.556 1320.17 288.64 1319.66 288.547C1318.65 288.418 1317.92 289.519 1318.44 290.398C1318.94 291.286 1320.26 291.193 1320.65 290.259C1321.57 287.89 1324.96 287.89 1325.89 290.259C1326.26 291.193 1327.6 291.286 1328.1 290.398C1328.61 289.519 1327.88 288.418 1326.88 288.547C1326.37 288.64 1325.84 288.547 1325.38 288.288C1324.92 288.029 1324.59 287.622 1324.41 287.131C1324 286.123 1322.53 286.123 1322.12 287.131C1321.95 287.613 1321.61 288.029 1321.15 288.288Z" fill="white"/>
        <path d="M1323.26 289.565C1322.25 289.565 1321.66 290.74 1322.28 291.554C1322.61 291.943 1322.8 292.443 1322.8 292.97C1322.8 293.488 1322.61 293.988 1322.28 294.386C1321.65 295.2 1322.25 296.384 1323.26 296.375C1324.27 296.375 1324.87 295.2 1324.25 294.386C1323.91 293.997 1323.73 293.497 1323.73 292.97C1323.73 292.452 1323.91 291.952 1324.25 291.554C1324.88 290.74 1324.27 289.556 1323.26 289.565Z" fill="white"/>
      </g>
      <g clip-path="url(#clip2_635_46409)">
        <path d="M-5.63281 239.627C-5.63281 103.677 276.197 -10.9035 393.957 82.2765C436.747 116.137 604.517 249.927 647.857 280.277C774.987 369.327 1115.91 378.557 1257.65 318.957C1340.15 284.267 1524.35 153.507 1605.6 234.757" stroke="url(#paint0_linear_635_46409)" stroke-width="0.75" stroke-miterlimit="10"/>
        <path d="M-4.27344 243.627C-1.45344 110.247 271.117 -6.81347 389.007 84.8965C432.867 119.017 598.297 253.647 642.767 284.107C770.607 371.667 1113.1 373.447 1255.14 315.017C1338.99 280.527 1525.8 159.647 1605.51 242.357" stroke="url(#paint1_linear_635_46409)" stroke-width="0.75" stroke-miterlimit="10"/>
        <path d="M-2.90625 247.637C2.73375 116.817 266.064 -2.75347 384.074 87.5165C429.004 121.887 592.074 257.377 637.684 287.937C766.194 374.037 1110.31 368.347 1252.63 311.077C1337.84 276.787 1527.25 165.777 1605.43 249.957" stroke="url(#paint2_linear_635_46409)" stroke-width="0.75" stroke-miterlimit="10"/>
        <path d="M-1.5625 251.647C6.9075 123.387 261.027 1.27653 379.117 90.1465C425.127 124.767 585.828 261.117 632.588 291.767C761.748 376.427 1107.53 363.267 1250.12 307.147C1336.7 273.067 1528.7 171.927 1605.35 257.567" stroke="url(#paint3_linear_635_46409)" stroke-width="0.75" stroke-miterlimit="10"/>
        <path d="M-0.203125 255.647C11.0869 129.957 256.027 5.28653 374.167 92.7665C421.257 127.637 579.577 264.847 627.497 295.597C757.267 378.857 1104.76 358.207 1247.6 303.207C1335.54 269.347 1530.14 178.067 1605.26 265.167" stroke="url(#paint4_linear_635_46409)" stroke-width="0.75" stroke-miterlimit="10"/>
        <path d="M1.14844 259.657C15.2684 136.527 251.058 9.26653 369.218 95.3865C417.398 130.497 573.318 268.587 622.408 299.427C752.768 381.307 1102 353.157 1245.09 299.267C1334.41 265.627 1531.59 184.197 1605.17 272.767" stroke="url(#paint5_linear_635_46409)" stroke-width="0.75" stroke-miterlimit="10"/>
        <path d="M2.50781 263.667C19.4478 143.097 246.108 13.2265 364.278 98.0065C413.558 133.357 567.058 272.337 617.318 303.247C748.238 383.777 1099.24 348.117 1242.58 295.317C1333.28 261.907 1533.04 190.327 1605.09 280.357" stroke="url(#paint6_linear_635_46409)" stroke-width="0.75" stroke-miterlimit="10"/>
        <path d="M3.85938 267.667C23.6294 149.677 241.179 17.1565 359.329 100.627C409.709 136.217 560.789 276.087 612.229 307.077C743.689 386.287 1096.5 343.107 1240.06 291.387C1332.14 258.207 1534.48 196.477 1605 287.967" stroke="url(#paint7_linear_635_46409)" stroke-width="0.75" stroke-miterlimit="10"/>
        <path d="M5.21875 271.677C27.8088 156.247 236.279 21.0665 354.379 103.247C405.869 139.067 554.509 279.837 607.139 310.907C739.119 388.817 1093.77 338.107 1237.55 287.447C1331.02 254.507 1535.93 202.607 1604.92 295.567" stroke="url(#paint8_linear_635_46409)" stroke-width="0.75" stroke-miterlimit="10"/>
        <path d="M6.57031 275.677C31.9903 162.817 231.39 24.9565 349.43 105.867C402.03 141.917 548.23 283.597 602.05 314.727C734.53 391.367 1091.04 333.117 1235.04 283.497C1329.91 250.807 1537.38 208.737 1604.84 303.157" stroke="url(#paint9_linear_635_46409)" stroke-width="0.75" stroke-miterlimit="10"/>
        <path d="M7.92969 279.687C36.1697 169.387 226.52 28.8265 344.49 108.487C398.21 144.767 541.95 287.357 596.96 318.557C729.91 393.947 1088.32 328.147 1232.53 279.557C1328.79 247.127 1538.83 214.877 1604.75 310.757" stroke="url(#paint10_linear_635_46409)" stroke-width="0.75" stroke-miterlimit="10"/>
        <path d="M9.28906 283.697C40.3491 175.957 221.669 32.6765 339.539 111.107C394.389 147.607 535.649 291.137 591.869 322.387C725.289 396.547 1085.61 323.197 1230.01 275.627C1327.67 243.457 1540.27 221.017 1604.66 318.377" stroke="url(#paint11_linear_635_46409)" stroke-width="0.75" stroke-miterlimit="10"/>
        <path d="M10.6406 287.697C44.5306 182.527 216.841 36.4965 334.591 113.727C390.571 150.437 529.351 294.907 586.781 326.207C720.641 399.167 1082.91 318.237 1227.5 271.677C1326.57 239.767 1541.72 227.147 1604.58 325.967" stroke="url(#paint12_linear_635_46409)" stroke-width="0.75" stroke-miterlimit="10"/>
        <path d="M12 291.707C48.71 189.097 212.02 40.3065 329.64 116.347C386.75 153.267 523.04 298.697 581.69 330.037C715.98 401.807 1080.21 313.317 1224.99 267.737C1325.47 236.107 1543.17 233.277 1604.5 333.567" stroke="url(#paint13_linear_635_46409)" stroke-width="0.75" stroke-miterlimit="10"/>
        <path d="M13.3516 295.717C52.8916 195.667 207.212 44.0965 324.692 118.967C382.942 156.097 516.732 302.487 576.592 333.867C711.292 404.477 1077.51 308.397 1222.47 263.797C1324.36 232.447 1544.62 239.417 1604.4 341.167" stroke="url(#paint14_linear_635_46409)" stroke-width="0.75" stroke-miterlimit="10"/>
        <path d="M14.7109 299.717C57.0709 202.247 202.421 47.8665 319.751 121.597C379.151 158.917 510.421 306.287 571.511 337.697C706.621 407.167 1074.83 303.497 1219.96 259.867C1323.27 228.807 1546.07 245.567 1604.32 348.777" stroke="url(#paint15_linear_635_46409)" stroke-width="0.75" stroke-miterlimit="10"/>
        <path d="M16.0625 303.727C61.2525 208.817 197.652 51.6265 314.802 124.217C375.352 161.737 504.102 310.097 566.422 341.527C701.922 409.877 1072.15 298.607 1217.45 255.927C1322.17 225.157 1547.52 251.697 1604.24 356.377" stroke="url(#paint16_linear_635_46409)" stroke-width="0.75" stroke-miterlimit="10"/>
        <path d="M17.4219 307.727C65.4219 215.387 192.882 55.3665 309.852 126.837C371.562 164.537 497.782 313.907 561.332 345.357C697.212 412.597 1069.47 293.737 1214.94 251.987C1321.09 221.527 1548.97 257.837 1604.16 363.977" stroke="url(#paint17_linear_635_46409)" stroke-width="0.75" stroke-miterlimit="10"/>
        <path d="M18.7734 311.737C69.6034 221.957 188.133 59.0865 304.903 129.457C367.773 167.337 491.453 317.727 556.233 349.177C692.473 415.327 1066.78 288.857 1212.42 248.037C1319.99 217.887 1550.41 263.967 1604.06 371.567" stroke="url(#paint18_linear_635_46409)" stroke-width="0.75" stroke-miterlimit="10"/>
        <path d="M20.1328 315.747C73.7828 228.527 183.383 62.7865 299.963 132.077C363.993 170.137 485.123 321.547 551.153 353.007C687.753 418.097 1064.12 284.007 1209.91 244.097C1318.91 214.267 1551.86 270.097 1603.98 379.167" stroke="url(#paint19_linear_635_46409)" stroke-width="0.75" stroke-miterlimit="10"/>
        <path d="M21.4766 319.747C77.9566 235.097 178.647 66.4865 295.007 134.697C360.207 172.917 478.787 325.377 546.057 356.837C683.007 420.867 1061.46 279.167 1207.4 240.167C1317.83 210.657 1553.31 276.247 1603.9 386.777" stroke="url(#paint20_linear_635_46409)" stroke-width="0.75" stroke-miterlimit="10"/>
        <path d="M22.8438 323.757C82.1437 241.667 173.934 70.1565 290.064 137.317C356.444 175.697 472.444 329.217 540.974 360.657C678.274 423.657 1058.79 274.327 1204.89 236.217C1316.75 207.037 1554.76 282.377 1603.82 394.367" stroke="url(#paint21_linear_635_46409)" stroke-width="0.75" stroke-miterlimit="10"/>
        <path d="M24.2031 327.767C86.3231 248.247 169.213 73.8265 285.113 139.937C352.663 178.467 466.103 333.067 535.873 364.487C673.503 426.457 1056.12 269.497 1202.37 232.277C1315.66 203.447 1556.2 288.507 1603.72 401.967" stroke="url(#paint22_linear_635_46409)" stroke-width="0.75" stroke-miterlimit="10"/>
        <path d="M25.5469 331.767C90.4969 254.817 164.497 77.4765 280.167 142.557C348.907 181.237 459.757 336.927 530.787 368.317C668.747 429.287 1053.47 264.687 1199.86 228.337C1314.59 199.847 1557.65 294.647 1603.64 409.567" stroke="url(#paint23_linear_635_46409)" stroke-width="0.75" stroke-miterlimit="10"/>
        <path d="M26.9062 335.777C94.6762 261.387 159.796 81.1065 275.216 145.177C345.146 183.997 453.406 340.787 525.696 372.137C663.976 432.117 1050.82 259.877 1197.35 224.397C1313.52 196.267 1559.1 300.787 1603.56 417.167" stroke="url(#paint24_linear_635_46409)" stroke-width="0.75" stroke-miterlimit="10"/>
        <path d="M28.2578 339.777C98.8578 267.957 155.108 84.7265 270.268 147.797C341.388 186.747 447.048 344.657 520.608 375.967C659.208 434.967 1048.16 255.087 1194.84 220.457C1312.44 192.687 1560.55 306.917 1603.48 424.767" stroke="url(#paint25_linear_635_46409)" stroke-width="0.75" stroke-miterlimit="10"/>
        <path d="M29.6172 343.787C103.037 274.527 150.427 88.3465 265.317 150.417C337.627 189.487 440.697 348.537 515.507 379.797C654.417 437.837 1045.5 250.307 1192.31 216.517C1311.36 189.117 1561.98 313.057 1603.38 432.367" stroke="url(#paint26_linear_635_46409)" stroke-width="0.75" stroke-miterlimit="10"/>
        <path d="M30.9688 347.797C107.219 281.107 145.739 91.9465 260.369 153.047C333.879 192.227 434.339 352.427 510.419 383.627C649.639 440.707 1042.85 245.527 1189.8 212.577C1310.29 185.557 1563.43 319.197 1603.29 439.967" stroke="url(#paint27_linear_635_46409)" stroke-width="0.75" stroke-miterlimit="10"/>
        <path d="M32.3281 351.797C111.398 287.667 141.068 95.5365 255.428 155.667C330.148 194.957 427.978 356.327 505.338 387.457C644.858 443.607 1040.21 240.767 1187.3 208.647C1309.23 182.017 1564.89 325.337 1603.22 447.577" stroke="url(#paint28_linear_635_46409)" stroke-width="0.75" stroke-miterlimit="10"/>
        <path d="M33.6797 355.807C115.57 294.247 136.39 99.1165 250.48 158.287C326.41 197.667 421.62 360.227 500.25 391.287C640.07 446.507 1037.57 236.007 1184.79 204.707C1308.17 178.477 1566.35 331.477 1603.14 455.177" stroke="url(#paint29_linear_635_46409)" stroke-width="0.75" stroke-miterlimit="10"/>
        <path d="M35.0391 359.807C119.759 300.817 131.729 102.677 245.529 160.907C322.669 200.377 415.249 364.137 495.149 395.107C635.269 449.417 1034.91 231.247 1182.26 200.757C1307.08 174.927 1567.78 337.607 1603.04 462.767" stroke="url(#paint30_linear_635_46409)" stroke-width="0.75" stroke-miterlimit="10"/>
        <path d="M36.3906 363.817C123.931 307.387 127.061 106.237 240.581 163.527C318.941 203.077 408.881 368.057 490.061 398.937C630.471 452.337 1032.27 226.507 1179.75 196.817C1306.02 171.397 1569.23 343.737 1602.95 470.367" stroke="url(#paint31_linear_635_46409)" stroke-width="0.75" stroke-miterlimit="10"/>
        <path d="M37.75 367.827C128.12 313.957 122.41 109.777 235.64 166.147C315.22 205.767 402.51 371.987 484.98 402.767C625.68 455.277 1029.63 221.777 1177.25 192.887C1304.97 167.887 1570.69 349.887 1602.88 477.977" stroke="url(#paint32_linear_635_46409)" stroke-width="0.75" stroke-miterlimit="10"/>
        <path d="M39.1094 371.827C132.299 320.527 117.759 113.307 230.689 168.767C311.489 208.447 396.139 375.927 479.889 406.587C620.879 458.217 1026.99 217.047 1174.74 188.937C1303.91 164.367 1572.14 356.017 1602.8 485.577" stroke="url(#paint33_linear_635_46409)" stroke-width="0.75" stroke-miterlimit="10"/>
        <path d="M40.4609 375.837C136.471 327.097 113.111 116.837 225.741 171.387C307.771 211.117 389.761 379.867 474.791 410.417C616.071 461.177 1024.34 212.327 1172.21 184.997C1302.83 160.857 1573.57 362.147 1602.7 493.177" stroke="url(#paint34_linear_635_46409)" stroke-width="0.75" stroke-miterlimit="10"/>
        <path d="M41.8203 379.847C140.66 333.677 108.46 120.357 220.8 174.017C304.06 213.787 383.39 383.827 469.71 414.247C611.28 464.147 1021.7 207.617 1169.71 181.057C1301.78 157.367 1575.03 368.287 1602.62 500.777" stroke="url(#paint35_linear_635_46409)" stroke-width="0.75" stroke-miterlimit="10"/>
        <path d="M43.1719 383.847C144.832 340.237 103.812 123.857 215.842 176.627C300.342 216.427 377.002 387.777 464.612 418.067C606.462 467.117 1019.05 202.897 1167.19 177.117C1300.71 153.877 1576.47 374.417 1602.53 508.377" stroke="url(#paint36_linear_635_46409)" stroke-width="0.75" stroke-miterlimit="10"/>
        <path d="M44.5312 387.857C149.021 346.817 99.1712 127.367 210.901 179.257C296.631 219.077 370.631 391.757 459.531 421.907C601.671 470.117 1016.42 198.217 1164.69 173.187C1299.66 150.407 1577.93 380.567 1602.46 515.987" stroke="url(#paint37_linear_635_46409)" stroke-width="0.75" stroke-miterlimit="10"/>
        <path d="M45.8828 391.857C153.193 353.377 94.5328 130.847 205.953 181.867C292.933 221.697 364.253 395.727 454.433 425.717C596.853 473.087 1013.76 193.507 1162.16 169.227C1298.58 146.907 1579.36 386.687 1602.36 523.567" stroke="url(#paint38_linear_635_46409)" stroke-width="0.75" stroke-miterlimit="10"/>
        <path d="M47.2422 395.867C157.372 359.957 89.8922 134.327 201.002 184.487C289.222 224.317 357.862 399.707 449.342 429.547C592.052 476.097 1011.12 188.817 1159.65 165.287C1297.53 143.447 1580.81 392.817 1602.27 531.167" stroke="url(#paint39_linear_635_46409)" stroke-width="0.75" stroke-miterlimit="10"/>
        <path d="M48.5938 399.877C161.554 366.527 85.2538 137.807 196.054 187.117C285.524 226.937 351.484 403.717 444.254 433.387C587.244 479.117 1008.48 184.157 1157.14 161.367C1296.47 140.007 1582.26 398.977 1602.19 538.787" stroke="url(#paint40_linear_635_46409)" stroke-width="0.75" stroke-miterlimit="10"/>
        <path d="M49.9531 403.877C165.733 373.097 80.6231 141.267 191.113 189.727C281.833 229.517 345.103 407.707 439.163 437.197C582.443 482.127 1005.83 179.467 1154.62 157.407C1295.4 136.537 1583.7 405.097 1602.1 546.367" stroke="url(#paint41_linear_635_46409)" stroke-width="0.75" stroke-miterlimit="10"/>
        <path d="M51.3125 407.887C169.912 379.667 75.9825 144.727 186.163 192.357C278.143 232.117 338.713 411.727 434.073 441.037C577.633 485.167 1003.19 174.807 1152.11 153.477C1294.34 133.107 1585.15 411.237 1602.02 553.977" stroke="url(#paint42_linear_635_46409)" stroke-width="0.75" stroke-miterlimit="10"/>
        <path d="M52.6562 411.897C174.086 386.247 71.3363 148.177 181.206 194.977C274.446 234.697 332.316 415.747 428.976 444.867C572.826 488.197 1000.54 170.147 1149.6 149.537C1293.29 129.677 1586.6 417.377 1601.94 561.577" stroke="url(#paint43_linear_635_46409)" stroke-width="0.75" stroke-miterlimit="10"/>
        <path d="M54.0234 415.897C178.273 392.807 66.7134 151.617 176.273 197.597C270.773 237.257 325.943 419.777 423.903 448.687C568.033 491.237 997.903 165.487 1147.1 145.597C1292.24 126.247 1588.07 423.517 1601.86 569.177" stroke="url(#paint44_linear_635_46409)" stroke-width="0.75" stroke-miterlimit="10"/>
        <path d="M55.3672 419.907C182.447 399.387 62.0672 155.057 171.307 200.217C267.077 239.807 319.537 423.807 418.787 452.517C563.207 494.287 995.237 160.837 1144.56 141.657C1291.15 122.827 1589.49 429.646 1601.75 576.777" stroke="url(#paint45_linear_635_46409)" stroke-width="0.75" stroke-miterlimit="10"/>
        <path d="M56.7266 423.907C186.627 405.947 57.4366 158.477 166.367 202.837C263.397 242.347 313.147 427.847 413.707 456.347C558.417 497.347 992.597 156.187 1142.06 137.717C1290.1 119.417 1590.95 435.787 1601.68 584.377" stroke="url(#paint46_linear_635_46409)" stroke-width="0.75" stroke-miterlimit="10"/>
        <path d="M58.0781 427.917C190.798 412.527 52.7981 161.897 161.418 205.457C259.728 244.877 306.758 431.907 408.618 460.167C553.618 500.407 989.948 151.537 1139.55 133.767C1289.04 116.007 1592.4 441.917 1601.6 591.967" stroke="url(#paint47_linear_635_46409)" stroke-width="0.75" stroke-miterlimit="10"/>
        <path d="M59.4375 431.927C194.988 419.097 48.1675 165.317 156.477 208.087C256.057 247.407 300.378 435.977 403.538 464.007C548.827 503.487 987.308 146.917 1137.05 129.837C1287.99 112.627 1593.86 448.057 1601.52 599.577" stroke="url(#paint48_linear_635_46409)" stroke-width="0.75" stroke-miterlimit="10"/>
        <path d="M60.7891 435.927C199.159 425.667 43.5191 168.717 151.519 210.697C252.379 249.897 293.969 440.027 398.429 467.827C544.009 506.557 984.629 142.277 1134.51 125.897C1286.9 109.237 1595.28 454.197 1601.41 607.177" stroke="url(#paint49_linear_635_46409)" stroke-width="0.75" stroke-miterlimit="10"/>
        <path d="M62.1484 439.937C203.348 432.237 38.8884 172.127 146.578 213.327C248.718 252.397 287.588 444.117 393.348 471.657C539.228 509.647 981.988 137.657 1132.01 121.957C1285.85 105.857 1596.74 460.337 1601.34 614.777" stroke="url(#paint50_linear_635_46409)" stroke-width="0.75" stroke-miterlimit="10"/>
        <path d="M63.5 443.947C207.52 438.817 34.24 175.527 141.63 215.947C245.05 254.877 281.19 448.207 388.26 475.487C534.43 512.737 979.33 133.037 1129.5 118.017C1284.79 102.487 1598.19 466.467 1601.26 622.377" stroke="url(#paint51_linear_635_46409)" stroke-width="0.75" stroke-miterlimit="10"/>
        <path d="M64.8594 447.947C211.699 445.377 29.6094 178.907 136.679 218.557C243.749 258.207 274.749 452.487 383.169 479.307C529.569 516.107 976.699 128.597 1126.99 114.067C1283.75 99.3165 1599.64 472.596 1601.17 629.966" stroke="url(#paint52_linear_635_46409)" stroke-width="0.75" stroke-miterlimit="10"/>
        <path d="M66.2188 451.957C215.889 451.957 24.9688 182.297 131.739 221.187C237.729 259.797 268.409 456.397 378.079 483.137C524.849 518.927 974.019 123.797 1124.47 110.137C1282.66 95.7765 1601.08 478.747 1601.08 637.577" stroke="url(#paint53_linear_635_46409)" stroke-width="0.75" stroke-miterlimit="10"/>
      </g>
    </g>
    <defs>
      <linearGradient id="paint0_linear_635_46409" x1="-31.6216" y1="263.974" x2="1321.04" y2="162.314" gradientUnits="userSpaceOnUse">
        <stop stop-color="#FF5500" stop-opacity="0"/>
        <stop offset="0.734375" stop-color="#FF5500" stop-opacity="0.4"/>
        <stop offset="1" stop-color="#220083" stop-opacity="0.5"/>
      </linearGradient>
      <linearGradient id="paint1_linear_635_46409" x1="-30.2388" y1="263.855" x2="1320.93" y2="160.51" gradientUnits="userSpaceOnUse">
        <stop stop-color="#FF5500" stop-opacity="0"/>
        <stop offset="0.734375" stop-color="#FF5500" stop-opacity="0.4"/>
        <stop offset="1" stop-color="#220083" stop-opacity="0.5"/>
      </linearGradient>
      <linearGradient id="paint2_linear_635_46409" x1="-28.8484" y1="263.926" x2="1320.85" y2="158.945" gradientUnits="userSpaceOnUse">
        <stop stop-color="#FF5500" stop-opacity="0"/>
        <stop offset="0.734375" stop-color="#FF5500" stop-opacity="0.4"/>
        <stop offset="1" stop-color="#220083" stop-opacity="0.5"/>
      </linearGradient>
      <linearGradient id="paint3_linear_635_46409" x1="-27.4816" y1="264.204" x2="1320.75" y2="157.649" gradientUnits="userSpaceOnUse">
        <stop stop-color="#FF5500" stop-opacity="0"/>
        <stop offset="0.734375" stop-color="#FF5500" stop-opacity="0.4"/>
        <stop offset="1" stop-color="#220083" stop-opacity="0.5"/>
      </linearGradient>
      <linearGradient id="paint4_linear_635_46409" x1="-26.0988" y1="264.701" x2="1320.66" y2="156.658" gradientUnits="userSpaceOnUse">
        <stop stop-color="#FF5500" stop-opacity="0"/>
        <stop offset="0.734375" stop-color="#FF5500" stop-opacity="0.4"/>
        <stop offset="1" stop-color="#220083" stop-opacity="0.5"/>
      </linearGradient>
      <linearGradient id="paint5_linear_635_46409" x1="-24.724" y1="265.417" x2="1320.59" y2="155.974" gradientUnits="userSpaceOnUse">
        <stop stop-color="#FF5500" stop-opacity="0"/>
        <stop offset="0.734375" stop-color="#FF5500" stop-opacity="0.4"/>
        <stop offset="1" stop-color="#220083" stop-opacity="0.5"/>
      </linearGradient>
      <linearGradient id="paint6_linear_635_46409" x1="-23.3414" y1="266.35" x2="1320.53" y2="155.607" gradientUnits="userSpaceOnUse">
        <stop stop-color="#FF5500" stop-opacity="0"/>
        <stop offset="0.734375" stop-color="#FF5500" stop-opacity="0.4"/>
        <stop offset="1" stop-color="#220083" stop-opacity="0.5"/>
      </linearGradient>
      <linearGradient id="paint7_linear_635_46409" x1="-21.9666" y1="267.511" x2="1320.48" y2="155.579" gradientUnits="userSpaceOnUse">
        <stop stop-color="#FF5500" stop-opacity="0"/>
        <stop offset="0.734375" stop-color="#FF5500" stop-opacity="0.4"/>
        <stop offset="1" stop-color="#220083" stop-opacity="0.5"/>
      </linearGradient>
      <linearGradient id="paint8_linear_635_46409" x1="-20.584" y1="268.877" x2="1320.46" y2="155.865" gradientUnits="userSpaceOnUse">
        <stop stop-color="#FF5500" stop-opacity="0"/>
        <stop offset="0.734375" stop-color="#FF5500" stop-opacity="0.4"/>
        <stop offset="1" stop-color="#220083" stop-opacity="0.5"/>
      </linearGradient>
      <linearGradient id="paint9_linear_635_46409" x1="-19.2094" y1="270.435" x2="1320.45" y2="156.449" gradientUnits="userSpaceOnUse">
        <stop stop-color="#FF5500" stop-opacity="0"/>
        <stop offset="0.734375" stop-color="#FF5500" stop-opacity="0.4"/>
        <stop offset="1" stop-color="#220083" stop-opacity="0.5"/>
      </linearGradient>
      <linearGradient id="paint10_linear_635_46409" x1="-17.8266" y1="272.181" x2="1320.45" y2="157.335" gradientUnits="userSpaceOnUse">
        <stop stop-color="#FF5500" stop-opacity="0"/>
        <stop offset="0.734375" stop-color="#FF5500" stop-opacity="0.4"/>
        <stop offset="1" stop-color="#220083" stop-opacity="0.5"/>
      </linearGradient>
      <linearGradient id="paint11_linear_635_46409" x1="-16.4439" y1="274.095" x2="1320.47" y2="158.494" gradientUnits="userSpaceOnUse">
        <stop stop-color="#FF5500" stop-opacity="0"/>
        <stop offset="0.734375" stop-color="#FF5500" stop-opacity="0.4"/>
        <stop offset="1" stop-color="#220083" stop-opacity="0.5"/>
      </linearGradient>
      <linearGradient id="paint12_linear_635_46409" x1="-15.0692" y1="276.153" x2="1320.51" y2="159.892" gradientUnits="userSpaceOnUse">
        <stop stop-color="#FF5500" stop-opacity="0"/>
        <stop offset="0.734375" stop-color="#FF5500" stop-opacity="0.4"/>
        <stop offset="1" stop-color="#220083" stop-opacity="0.5"/>
      </linearGradient>
      <linearGradient id="paint13_linear_635_46409" x1="-13.6866" y1="278.357" x2="1320.57" y2="161.533" gradientUnits="userSpaceOnUse">
        <stop stop-color="#FF5500" stop-opacity="0"/>
        <stop offset="0.734375" stop-color="#FF5500" stop-opacity="0.4"/>
        <stop offset="1" stop-color="#220083" stop-opacity="0.5"/>
      </linearGradient>
      <linearGradient id="paint14_linear_635_46409" x1="-12.3117" y1="280.685" x2="1320.63" y2="163.391" gradientUnits="userSpaceOnUse">
        <stop stop-color="#FF5500" stop-opacity="0"/>
        <stop offset="0.734375" stop-color="#FF5500" stop-opacity="0.4"/>
        <stop offset="1" stop-color="#220083" stop-opacity="0.5"/>
      </linearGradient>
      <linearGradient id="paint15_linear_635_46409" x1="-10.9291" y1="283.128" x2="1320.72" y2="165.442" gradientUnits="userSpaceOnUse">
        <stop stop-color="#FF5500" stop-opacity="0"/>
        <stop offset="0.734375" stop-color="#FF5500" stop-opacity="0.4"/>
        <stop offset="1" stop-color="#220083" stop-opacity="0.5"/>
      </linearGradient>
      <linearGradient id="paint16_linear_635_46409" x1="-9.55446" y1="285.67" x2="1320.82" y2="167.67" gradientUnits="userSpaceOnUse">
        <stop stop-color="#FF5500" stop-opacity="0"/>
        <stop offset="0.734375" stop-color="#FF5500" stop-opacity="0.4"/>
        <stop offset="1" stop-color="#220083" stop-opacity="0.5"/>
      </linearGradient>
      <linearGradient id="paint17_linear_635_46409" x1="-8.17186" y1="288.299" x2="1320.93" y2="170.057" gradientUnits="userSpaceOnUse">
        <stop stop-color="#FF5500" stop-opacity="0"/>
        <stop offset="0.734375" stop-color="#FF5500" stop-opacity="0.4"/>
        <stop offset="1" stop-color="#220083" stop-opacity="0.5"/>
      </linearGradient>
      <linearGradient id="paint18_linear_635_46409" x1="-6.79691" y1="293.509" x2="1321.33" y2="176.701" gradientUnits="userSpaceOnUse">
        <stop stop-color="#FF5500" stop-opacity="0"/>
        <stop offset="0.734375" stop-color="#FF5500" stop-opacity="0.4"/>
        <stop offset="1" stop-color="#220083" stop-opacity="0.5"/>
      </linearGradient>
      <linearGradient id="paint19_linear_635_46409" x1="-5.41431" y1="299.808" x2="1321.86" y2="185.094" gradientUnits="userSpaceOnUse">
        <stop stop-color="#FF5500" stop-opacity="0"/>
        <stop offset="0.734375" stop-color="#FF5500" stop-opacity="0.4"/>
        <stop offset="1" stop-color="#220083" stop-opacity="0.5"/>
      </linearGradient>
      <linearGradient id="paint20_linear_635_46409" x1="-4.04749" y1="306.11" x2="1322.36" y2="193.431" gradientUnits="userSpaceOnUse">
        <stop stop-color="#FF5500" stop-opacity="0"/>
        <stop offset="0.734375" stop-color="#FF5500" stop-opacity="0.4"/>
        <stop offset="1" stop-color="#220083" stop-opacity="0.5"/>
      </linearGradient>
      <linearGradient id="paint21_linear_635_46409" x1="-2.65708" y1="312.388" x2="1322.86" y2="201.687" gradientUnits="userSpaceOnUse">
        <stop stop-color="#FF5500" stop-opacity="0"/>
        <stop offset="0.734375" stop-color="#FF5500" stop-opacity="0.4"/>
        <stop offset="1" stop-color="#220083" stop-opacity="0.5"/>
      </linearGradient>
      <linearGradient id="paint22_linear_635_46409" x1="-1.27415" y1="318.67" x2="1323.32" y2="209.898" gradientUnits="userSpaceOnUse">
        <stop stop-color="#FF5500" stop-opacity="0"/>
        <stop offset="0.734375" stop-color="#FF5500" stop-opacity="0.4"/>
        <stop offset="1" stop-color="#220083" stop-opacity="0.5"/>
      </linearGradient>
      <linearGradient id="paint23_linear_635_46409" x1="0.092663" y1="324.943" x2="1323.78" y2="218.046" gradientUnits="userSpaceOnUse">
        <stop stop-color="#FF5500" stop-opacity="0"/>
        <stop offset="0.734375" stop-color="#FF5500" stop-opacity="0.4"/>
        <stop offset="1" stop-color="#220083" stop-opacity="0.5"/>
      </linearGradient>
      <linearGradient id="paint24_linear_635_46409" x1="1.47526" y1="331.21" x2="1324.24" y2="226.141" gradientUnits="userSpaceOnUse">
        <stop stop-color="#FF5500" stop-opacity="0"/>
        <stop offset="0.734375" stop-color="#FF5500" stop-opacity="0.4"/>
        <stop offset="1" stop-color="#220083" stop-opacity="0.5"/>
      </linearGradient>
      <linearGradient id="paint25_linear_635_46409" x1="2.84989" y1="337.472" x2="1324.68" y2="234.18" gradientUnits="userSpaceOnUse">
        <stop stop-color="#FF5500" stop-opacity="0"/>
        <stop offset="0.734375" stop-color="#FF5500" stop-opacity="0.4"/>
        <stop offset="1" stop-color="#220083" stop-opacity="0.5"/>
      </linearGradient>
      <linearGradient id="paint26_linear_635_46409" x1="4.23282" y1="343.729" x2="1325.09" y2="242.171" gradientUnits="userSpaceOnUse">
        <stop stop-color="#FF5500" stop-opacity="0"/>
        <stop offset="0.734375" stop-color="#FF5500" stop-opacity="0.4"/>
        <stop offset="1" stop-color="#220083" stop-opacity="0.5"/>
      </linearGradient>
      <linearGradient id="paint27_linear_635_46409" x1="5.60761" y1="349.982" x2="1325.5" y2="250.109" gradientUnits="userSpaceOnUse">
        <stop stop-color="#FF5500" stop-opacity="0"/>
        <stop offset="0.734375" stop-color="#FF5500" stop-opacity="0.4"/>
        <stop offset="1" stop-color="#220083" stop-opacity="0.5"/>
      </linearGradient>
      <linearGradient id="paint28_linear_635_46409" x1="6.99005" y1="356.234" x2="1325.92" y2="258.007" gradientUnits="userSpaceOnUse">
        <stop stop-color="#FF5500" stop-opacity="0"/>
        <stop offset="0.734375" stop-color="#FF5500" stop-opacity="0.4"/>
        <stop offset="1" stop-color="#220083" stop-opacity="0.5"/>
      </linearGradient>
      <linearGradient id="paint29_linear_635_46409" x1="8.36468" y1="362.474" x2="1326.32" y2="265.848" gradientUnits="userSpaceOnUse">
        <stop stop-color="#FF5500" stop-opacity="0"/>
        <stop offset="0.734375" stop-color="#FF5500" stop-opacity="0.4"/>
        <stop offset="1" stop-color="#220083" stop-opacity="0.5"/>
      </linearGradient>
      <linearGradient id="paint30_linear_635_46409" x1="9.7476" y1="368.702" x2="1326.69" y2="273.636" gradientUnits="userSpaceOnUse">
        <stop stop-color="#FF5500" stop-opacity="0"/>
        <stop offset="0.734375" stop-color="#FF5500" stop-opacity="0.4"/>
        <stop offset="1" stop-color="#220083" stop-opacity="0.5"/>
      </linearGradient>
      <linearGradient id="paint31_linear_635_46409" x1="11.1224" y1="374.932" x2="1327.06" y2="281.388" gradientUnits="userSpaceOnUse">
        <stop stop-color="#FF5500" stop-opacity="0"/>
        <stop offset="0.734375" stop-color="#FF5500" stop-opacity="0.4"/>
        <stop offset="1" stop-color="#220083" stop-opacity="0.5"/>
      </linearGradient>
      <linearGradient id="paint32_linear_635_46409" x1="12.5048" y1="381.164" x2="1327.44" y2="289.106" gradientUnits="userSpaceOnUse">
        <stop stop-color="#FF5500" stop-opacity="0"/>
        <stop offset="0.734375" stop-color="#FF5500" stop-opacity="0.4"/>
        <stop offset="1" stop-color="#220083" stop-opacity="0.5"/>
      </linearGradient>
      <linearGradient id="paint33_linear_635_46409" x1="13.8874" y1="387.385" x2="1327.8" y2="296.774" gradientUnits="userSpaceOnUse">
        <stop stop-color="#FF5500" stop-opacity="0"/>
        <stop offset="0.734375" stop-color="#FF5500" stop-opacity="0.4"/>
        <stop offset="1" stop-color="#220083" stop-opacity="0.5"/>
      </linearGradient>
      <linearGradient id="paint34_linear_635_46409" x1="15.2624" y1="393.602" x2="1328.14" y2="304.403" gradientUnits="userSpaceOnUse">
        <stop stop-color="#FF5500" stop-opacity="0"/>
        <stop offset="0.734375" stop-color="#FF5500" stop-opacity="0.4"/>
        <stop offset="1" stop-color="#220083" stop-opacity="0.5"/>
      </linearGradient>
      <linearGradient id="paint35_linear_635_46409" x1="16.645" y1="399.817" x2="1328.49" y2="311.992" gradientUnits="userSpaceOnUse">
        <stop stop-color="#FF5500" stop-opacity="0"/>
        <stop offset="0.734375" stop-color="#FF5500" stop-opacity="0.4"/>
        <stop offset="1" stop-color="#220083" stop-opacity="0.5"/>
      </linearGradient>
      <linearGradient id="paint36_linear_635_46409" x1="18.0198" y1="406.022" x2="1328.82" y2="319.542" gradientUnits="userSpaceOnUse">
        <stop stop-color="#FF5500" stop-opacity="0"/>
        <stop offset="0.734375" stop-color="#FF5500" stop-opacity="0.4"/>
        <stop offset="1" stop-color="#220083" stop-opacity="0.5"/>
      </linearGradient>
      <linearGradient id="paint37_linear_635_46409" x1="19.4022" y1="412.237" x2="1329.17" y2="327.066" gradientUnits="userSpaceOnUse">
        <stop stop-color="#FF5500" stop-opacity="0"/>
        <stop offset="0.734375" stop-color="#FF5500" stop-opacity="0.4"/>
        <stop offset="1" stop-color="#220083" stop-opacity="0.5"/>
      </linearGradient>
      <linearGradient id="paint38_linear_635_46409" x1="20.7772" y1="416.453" x2="1329.67" y2="334.088" gradientUnits="userSpaceOnUse">
        <stop stop-color="#FF5500" stop-opacity="0"/>
        <stop offset="0.734375" stop-color="#FF5500" stop-opacity="0.4"/>
        <stop offset="1" stop-color="#220083" stop-opacity="0.5"/>
      </linearGradient>
      <linearGradient id="paint39_linear_635_46409" x1="22.1599" y1="420.612" x2="1330.16" y2="340.94" gradientUnits="userSpaceOnUse">
        <stop stop-color="#FF5500" stop-opacity="0"/>
        <stop offset="0.734375" stop-color="#FF5500" stop-opacity="0.4"/>
        <stop offset="1" stop-color="#220083" stop-opacity="0.5"/>
      </linearGradient>
      <linearGradient id="paint40_linear_635_46409" x1="23.5346" y1="424.788" x2="1330.63" y2="347.647" gradientUnits="userSpaceOnUse">
        <stop stop-color="#FF5500" stop-opacity="0"/>
        <stop offset="0.734375" stop-color="#FF5500" stop-opacity="0.4"/>
        <stop offset="1" stop-color="#220083" stop-opacity="0.5"/>
      </linearGradient>
      <linearGradient id="paint41_linear_635_46409" x1="24.9173" y1="428.923" x2="1331.06" y2="354.169" gradientUnits="userSpaceOnUse">
        <stop stop-color="#FF5500" stop-opacity="0"/>
        <stop offset="0.734375" stop-color="#FF5500" stop-opacity="0.4"/>
        <stop offset="1" stop-color="#220083" stop-opacity="0.5"/>
      </linearGradient>
      <linearGradient id="paint42_linear_635_46409" x1="26.2999" y1="433.085" x2="1331.48" y2="360.584" gradientUnits="userSpaceOnUse">
        <stop stop-color="#FF5500" stop-opacity="0"/>
        <stop offset="0.734375" stop-color="#FF5500" stop-opacity="0.4"/>
        <stop offset="1" stop-color="#220083" stop-opacity="0.5"/>
      </linearGradient>
      <linearGradient id="paint43_linear_635_46409" x1="27.6667" y1="437.236" x2="1331.87" y2="366.864" gradientUnits="userSpaceOnUse">
        <stop stop-color="#FF5500" stop-opacity="0"/>
        <stop offset="0.734375" stop-color="#FF5500" stop-opacity="0.4"/>
        <stop offset="1" stop-color="#220083" stop-opacity="0.5"/>
      </linearGradient>
      <linearGradient id="paint44_linear_635_46409" x1="29.0572" y1="441.385" x2="1332.26" y2="373.03" gradientUnits="userSpaceOnUse">
        <stop stop-color="#FF5500" stop-opacity="0"/>
        <stop offset="0.734375" stop-color="#FF5500" stop-opacity="0.4"/>
        <stop offset="1" stop-color="#220083" stop-opacity="0.5"/>
      </linearGradient>
      <linearGradient id="paint45_linear_635_46409" x1="30.4244" y1="445.532" x2="1332.59" y2="379.091" gradientUnits="userSpaceOnUse">
        <stop stop-color="#FF5500" stop-opacity="0"/>
        <stop offset="0.734375" stop-color="#FF5500" stop-opacity="0.4"/>
        <stop offset="1" stop-color="#220083" stop-opacity="0.5"/>
      </linearGradient>
      <linearGradient id="paint46_linear_635_46409" x1="31.8069" y1="449.679" x2="1332.94" y2="385.052" gradientUnits="userSpaceOnUse">
        <stop stop-color="#FF5500" stop-opacity="0"/>
        <stop offset="0.734375" stop-color="#FF5500" stop-opacity="0.4"/>
        <stop offset="1" stop-color="#220083" stop-opacity="0.5"/>
      </linearGradient>
      <linearGradient id="paint47_linear_635_46409" x1="33.1815" y1="453.814" x2="1333.28" y2="390.912" gradientUnits="userSpaceOnUse">
        <stop stop-color="#FF5500" stop-opacity="0"/>
        <stop offset="0.734375" stop-color="#FF5500" stop-opacity="0.4"/>
        <stop offset="1" stop-color="#220083" stop-opacity="0.5"/>
      </linearGradient>
      <linearGradient id="paint48_linear_635_46409" x1="34.5641" y1="457.967" x2="1333.6" y2="396.708" gradientUnits="userSpaceOnUse">
        <stop stop-color="#FF5500" stop-opacity="0"/>
        <stop offset="0.734375" stop-color="#FF5500" stop-opacity="0.4"/>
        <stop offset="1" stop-color="#220083" stop-opacity="0.5"/>
      </linearGradient>
      <linearGradient id="paint49_linear_635_46409" x1="35.9392" y1="462.11" x2="1333.88" y2="402.417" gradientUnits="userSpaceOnUse">
        <stop stop-color="#FF5500" stop-opacity="0"/>
        <stop offset="0.734375" stop-color="#FF5500" stop-opacity="0.4"/>
        <stop offset="1" stop-color="#220083" stop-opacity="0.5"/>
      </linearGradient>
      <linearGradient id="paint50_linear_635_46409" x1="37.3217" y1="466.251" x2="1334.19" y2="408.051" gradientUnits="userSpaceOnUse">
        <stop stop-color="#FF5500" stop-opacity="0"/>
        <stop offset="0.734375" stop-color="#FF5500" stop-opacity="0.4"/>
        <stop offset="1" stop-color="#220083" stop-opacity="0.5"/>
      </linearGradient>
      <linearGradient id="paint51_linear_635_46409" x1="38.6963" y1="470.392" x2="1334.48" y2="413.617" gradientUnits="userSpaceOnUse">
        <stop stop-color="#FF5500" stop-opacity="0"/>
        <stop offset="0.734375" stop-color="#FF5500" stop-opacity="0.4"/>
        <stop offset="1" stop-color="#220083" stop-opacity="0.5"/>
      </linearGradient>
      <linearGradient id="paint52_linear_635_46409" x1="40.0791" y1="474.525" x2="1334.76" y2="419.112" gradientUnits="userSpaceOnUse">
        <stop stop-color="#FF5500" stop-opacity="0"/>
        <stop offset="0.734375" stop-color="#FF5500" stop-opacity="0.4"/>
        <stop offset="1" stop-color="#220083" stop-opacity="0.5"/>
      </linearGradient>
      <linearGradient id="paint53_linear_635_46409" x1="41.4618" y1="478.67" x2="1335.02" y2="424.563" gradientUnits="userSpaceOnUse">
        <stop stop-color="#FF5500" stop-opacity="0"/>
        <stop offset="0.734375" stop-color="#FF5500" stop-opacity="0.4"/>
        <stop offset="1" stop-color="#220083" stop-opacity="0.5"/>
      </linearGradient>
      <clipPath id="clip0_635_46409">
        <rect width="1600" height="488" fill="white" transform="translate(0.390625 0.0565338)"/>
      </clipPath>
      <clipPath id="clip1_635_46409">
        <rect width="1600" height="488" fill="white"/>
      </clipPath>
      <clipPath id="clip2_635_46409">
        <rect width="1611.87" height="589.52" fill="white" transform="translate(-6 48.0565)"/>
      </clipPath>
    </defs>
  </svg>