<?xml version="1.0" encoding="utf-8"?>
<!-- Generator: Adobe Illustrator 25.3.1, SVG Export Plug-In . SVG Version: 6.00 Build 0)  -->
<svg version="1.1" id="Layer_1" xmlns="http://www.w3.org/2000/svg" xmlns:xlink="http://www.w3.org/1999/xlink" x="0px" y="0px"
	 viewBox="0 0 2048 2048" style="enable-background:new 0 0 2048 2048;" xml:space="preserve">
<style type="text/css">
	.st0{fill:#E5E3E4;}
	.st1{fill:#7C95CD;}
	.st2{fill:#F386B9;}
	.st3{clip-path:url(#SVGID_2_);fill:#2F489C;}
	.st4{clip-path:url(#SVGID_2_);}
	.st5{fill:#A9B9EB;}
	.st6{fill:#2E3192;}
	.st7{fill:#FFFFFF;}
	.st8{fill:#434757;}
	.st9{fill:#994F74;}
	.st10{clip-path:url(#SVGID_4_);fill:#EAAB20;}
	.st11{clip-path:url(#SVGID_4_);}
	.st12{fill:#D6991E;}
	.st13{fill:#273D82;}
	.st14{fill:#EAAB20;}
	.st15{fill:#EAAB21;}
	.st16{clip-path:url(#SVGID_6_);fill:#A9B9EB;}
	.st17{clip-path:url(#SVGID_6_);}
</style>
<g>
	<ellipse class="st0" cx="592.58" cy="1459.21" rx="185.75" ry="14.78"/>
	<ellipse class="st0" cx="850.96" cy="1469.64" rx="185.75" ry="14.78"/>
	<ellipse class="st0" cx="1359.96" cy="1469.64" rx="185.75" ry="14.78"/>
	<ellipse class="st0" cx="1061.3" cy="1484.42" rx="92.75" ry="7.38"/>
	<g>
		<path class="st1" d="M640.32,1433.7l-4.26,12.33c-1.54,4.44,1.09,9.24,5.67,10.34l45.14,10.82c5.56,1.33,8.9-5.94,4.26-9.28
			c-5.29-3.81-10.39-7.88-15.27-12.19c-6.05-5.35-5.8-11.15-14.07-11.47c-1.31-0.05-9.92-1.46-15.2-3.45
			C644.03,1429.84,641.21,1431.13,640.32,1433.7z"/>
		<path class="st1" d="M543.19,1440.71l1.45,12.96c0.52,4.67-3.1,8.78-7.8,8.84l-46.41,0.64c-5.72,0.08-7.37-7.75-2.11-9.98
			c6-2.55,11.87-5.4,17.58-8.54c7.07-3.89,8.11-9.6,16.25-8.1c1.29,0.24,10,0.75,15.59-0.02
			C540.41,1436.13,542.89,1438.01,543.19,1440.71z"/>
		<path class="st2" d="M417.01,843.32c-0.77-1.66-2.36-3.34-4.14-2.92c-2.45,0.57-2.43,3.96-2.59,6.47
			c-0.14,2.31-0.94,4.58-2.26,6.47c-8.41-10.07-20.36-17.13-33.24-19.64c0.58,2.16,2.59,3.56,4.09,5.22c1.5,1.66,2.47,4.43,0.88,6
			c-0.77,0.76-1.94,1.01-2.68,1.8c-1.11,1.2-0.77,3.2,0.17,4.54c0.94,1.35,2.33,2.3,3.4,3.54c0.31,0.36,0.61,0.76,0.72,1.22
			c0.58,2.38-3.41,3.33-4.12,5.67c-0.68,2.27,1.98,4.03,4.18,4.92c3.94,1.59,7.88,3.17,11.82,4.76c1.07,0.43,2.19,0.9,2.9,1.81
			c3.96,5.11,23.15,11.02,25.01,0.38c0.73-4.17-2.88-9.64-2.92-14.28C418.2,853.85,419.23,848.49,417.01,843.32z"/>
		<path class="st2" d="M810.27,1030.18c2.21-0.73,4.61-1.51,6.73-0.49c1.09,0.52,1.98,1.48,2.84,2.41c1.79,1.94,3.59,3.89,5.38,5.83
			c5.13,5.55,10.37,11.28,13.42,18.58c-2.02,1.97-4.92-0.93-7.57-1.02c-2.19-0.08-4.14,1.84-6.32,1.8
			c-1.72-0.03-3.23-1.25-4.61-2.41c-2.39-2.01-4.78-4.03-7.17-6.04c-0.92-0.78-1.88-1.57-3-1.84c-4.3-1.04-7.36,5.89-11.76,5.88
			c-1.48,0-3.13-1.31-2.89-2.99c0.08-0.58,0.38-1.08,0.52-1.65c0.46-1.83-0.89-3.74-2.47-4.32c-1.58-0.58-3.29-0.2-4.91,0.18
			c-3.25,0.77-9.46,1.49-10.08-3.97c-0.48-4.21,4.52-6.06,7.45-6.59c2.99-0.53,6.15,0.17,9.17-0.01
			C800.18,1033.23,805.28,1031.84,810.27,1030.18z"/>
		<path class="st1" d="M650.2,889.08c15.18,4.05,26.39,26.28,33.26,38.63c25.29,45.45,63.31,86.51,111.01,105.49
			c-0.49,4.16-1,8.32-1.47,12.48c-17.62,2.64-35.47,3.43-53.11,1.19c-26.24-3.33-52.04-13.64-71.21-31.86
			c-23.92-22.73-35.57-55.46-42.5-87.73C622.67,910.97,626.34,882.72,650.2,889.08z"/>
		<g>
			<defs>
				<path id="SVGID_1_" d="M547.15,1285.86c0.38-34.62-2.93-69.15-3.84-103.74c-0.95-36.34,5.67-68.78,16.72-103.36
					c1.3-4.06,2.69-8.25,5.67-11.35c7.82-8.14,19.75-4.68,29.59-5.03c5.94-0.21,11.47-0.7,16.84-0.54c0.64-0.58,1.26-1.19,1.93-1.74
					c12.83-10.54,36.84-13.58,49.52-0.42c9.99,10.37,8.38,27.85,10.62,42.21c8.87,56.82,20.73,112.85,28.63,169.94
					c1.78,12.88,3.45,25.97,2.25,38.95c-1.53,16.48-7.6,31.83-13.57,46.83c-10.51,26.37-21.02,52.74-31.53,79.12
					c-4.28,0.07-8.56,0.11-12.84,0.19c3.36-21.13,5.43-42.42,4.85-63.9c-1.14-42.66-12.51-83.63-26.66-123.2
					c-0.52,3.22-1.05,6.44-1.65,9.66c-5.35,28.69-16.86,55.9-29.55,82.27c-16.34,33.95-34.95,67.09-56.46,98.14
					c-7.16,0.24-14.33,0.48-21.49,0.72C536.75,1392.07,546.58,1338.65,547.15,1285.86z"/>
			</defs>
			<clipPath id="SVGID_2_">
				<use xlink:href="#SVGID_1_"  style="overflow:visible;"/>
			</clipPath>
			<path class="st3" d="M547.15,1285.86c0.38-34.62-2.93-69.15-3.84-103.74c-0.95-36.34,5.67-68.78,16.72-103.36
				c1.3-4.06,2.69-8.25,5.67-11.35c7.82-8.14,19.75-4.68,29.59-5.03c5.94-0.21,11.47-0.7,16.84-0.54c0.64-0.58,1.26-1.19,1.93-1.74
				c12.83-10.54,36.84-13.58,49.52-0.42c9.99,10.37,8.38,27.85,10.62,42.21c8.87,56.82,20.73,112.85,28.63,169.94
				c1.78,12.88,3.45,25.97,2.25,38.95c-1.53,16.48-7.6,31.83-13.57,46.83c-10.51,26.37-21.02,52.74-31.53,79.12
				c-4.28,0.07-8.56,0.11-12.84,0.19c3.36-21.13,5.43-42.42,4.85-63.9c-1.14-42.66-12.51-83.63-26.66-123.2
				c-0.52,3.22-1.05,6.44-1.65,9.66c-5.35,28.69-16.86,55.9-29.55,82.27c-16.34,33.95-34.95,67.09-56.46,98.14
				c-7.16,0.24-14.33,0.48-21.49,0.72C536.75,1392.07,546.58,1338.65,547.15,1285.86z"/>
			<g class="st4">
				<path class="st1" d="M726.81,1072.49c3.55,0,6.43,2.88,6.43,6.43c0,3.55-2.88,6.44-6.43,6.44s-6.43-2.88-6.43-6.44
					C720.37,1075.37,723.25,1072.49,726.81,1072.49z"/>
				<path class="st1" d="M693.65,1072.49c3.55,0,6.43,2.88,6.43,6.43c0,3.55-2.88,6.44-6.43,6.44c-3.55,0-6.43-2.88-6.43-6.44
					C687.21,1075.37,690.09,1072.49,693.65,1072.49z"/>
				<path class="st1" d="M660.49,1072.49c3.55,0,6.43,2.88,6.43,6.43c0,3.55-2.88,6.44-6.43,6.44c-3.55,0-6.43-2.88-6.43-6.44
					C654.05,1075.37,656.93,1072.49,660.49,1072.49z"/>
				<path class="st1" d="M627.33,1072.49c3.55,0,6.43,2.88,6.43,6.43c0,3.55-2.88,6.44-6.43,6.44c-3.55,0-6.43-2.88-6.43-6.44
					C620.89,1075.37,623.77,1072.49,627.33,1072.49z"/>
				<path class="st1" d="M594.17,1072.49c3.55,0,6.44,2.88,6.44,6.43c0,3.55-2.88,6.44-6.44,6.44c-3.55,0-6.43-2.88-6.43-6.44
					C587.73,1075.37,590.61,1072.49,594.17,1072.49z"/>
				<path class="st1" d="M561.01,1072.49c3.55,0,6.43,2.88,6.43,6.43c0,3.55-2.88,6.44-6.43,6.44c-3.55,0-6.43-2.88-6.43-6.44
					C554.57,1075.37,557.45,1072.49,561.01,1072.49z"/>
				<path class="st1" d="M527.85,1072.49c3.55,0,6.43,2.88,6.43,6.43c0,3.55-2.88,6.44-6.43,6.44c-3.55,0-6.43-2.88-6.43-6.44
					C521.41,1075.37,524.29,1072.49,527.85,1072.49z"/>
				<path class="st1" d="M494.69,1072.49c3.55,0,6.43,2.88,6.43,6.43c0,3.55-2.88,6.44-6.43,6.44s-6.43-2.88-6.43-6.44
					C488.25,1075.37,491.13,1072.49,494.69,1072.49z"/>
				<path class="st1" d="M710.23,1094.61c3.55,0,6.43,2.88,6.43,6.44c0,3.55-2.88,6.43-6.43,6.43s-6.43-2.88-6.43-6.43
					C703.79,1097.49,706.67,1094.61,710.23,1094.61z"/>
				<path class="st1" d="M677.07,1094.61c3.55,0,6.43,2.88,6.43,6.44c0,3.55-2.88,6.43-6.43,6.43c-3.55,0-6.43-2.88-6.43-6.43
					C670.63,1097.49,673.51,1094.61,677.07,1094.61z"/>
				<path class="st1" d="M643.91,1094.61c3.55,0,6.43,2.88,6.43,6.44c0,3.55-2.88,6.43-6.43,6.43c-3.55,0-6.43-2.88-6.43-6.43
					C637.47,1097.49,640.35,1094.61,643.91,1094.61z"/>
				<path class="st1" d="M610.75,1094.61c3.55,0,6.43,2.88,6.43,6.44c0,3.55-2.88,6.43-6.43,6.43c-3.55,0-6.43-2.88-6.43-6.43
					C604.31,1097.49,607.19,1094.61,610.75,1094.61z"/>
				<path class="st1" d="M577.59,1094.61c3.55,0,6.43,2.88,6.43,6.44c0,3.55-2.88,6.43-6.43,6.43c-3.55,0-6.44-2.88-6.44-6.43
					C571.15,1097.49,574.03,1094.61,577.59,1094.61z"/>
				<path class="st1" d="M544.43,1094.61c3.55,0,6.43,2.88,6.43,6.44c0,3.55-2.88,6.43-6.43,6.43c-3.55,0-6.43-2.88-6.43-6.43
					C537.99,1097.49,540.87,1094.61,544.43,1094.61z"/>
				<path class="st1" d="M511.27,1094.61c3.55,0,6.43,2.88,6.43,6.44c0,3.55-2.88,6.43-6.43,6.43c-3.55,0-6.43-2.88-6.43-6.43
					C504.83,1097.49,507.71,1094.61,511.27,1094.61z"/>
				<path class="st1" d="M478.11,1107.48c-3.55,0-6.43-2.88-6.43-6.43c0-3.55,2.88-6.44,6.43-6.44c3.55,0,6.43,2.88,6.43,6.44
					C484.54,1104.6,481.66,1107.48,478.11,1107.48z"/>
				<circle class="st1" cx="726.81" cy="1126.49" r="6.43"/>
				<circle class="st1" cx="693.65" cy="1126.49" r="6.43"/>
				<circle class="st1" cx="660.49" cy="1126.49" r="6.43"/>
				<circle class="st1" cx="627.33" cy="1126.49" r="6.43"/>
				<path class="st1" d="M594.17,1120.06c3.55,0,6.44,2.88,6.44,6.44c0,3.55-2.88,6.43-6.44,6.43c-3.55,0-6.43-2.88-6.43-6.43
					C587.73,1122.94,590.61,1120.06,594.17,1120.06z"/>
				<circle class="st1" cx="561.01" cy="1126.49" r="6.43"/>
				<circle class="st1" cx="527.85" cy="1126.49" r="6.43"/>
				<circle class="st1" cx="494.69" cy="1126.49" r="6.43"/>
				<circle class="st1" cx="710.23" cy="1148.62" r="6.43"/>
				<circle class="st1" cx="677.07" cy="1148.62" r="6.43"/>
				<circle class="st1" cx="643.91" cy="1148.62" r="6.43"/>
				<circle class="st1" cx="610.75" cy="1148.62" r="6.43"/>
				<path class="st1" d="M577.59,1142.18c3.55,0,6.43,2.88,6.43,6.44s-2.88,6.43-6.43,6.43c-3.55,0-6.44-2.88-6.44-6.43
					S574.03,1142.18,577.59,1142.18z"/>
				<circle class="st1" cx="544.43" cy="1148.62" r="6.43"/>
				<circle class="st1" cx="511.27" cy="1148.62" r="6.43"/>
				<circle class="st1" cx="478.11" cy="1148.62" r="6.43"/>
				<path class="st1" d="M726.81,1167.63c3.55,0,6.43,2.88,6.43,6.44c0,3.55-2.88,6.43-6.43,6.43s-6.43-2.88-6.43-6.43
					C720.37,1170.51,723.25,1167.63,726.81,1167.63z"/>
				<path class="st1" d="M693.65,1167.63c3.55,0,6.43,2.88,6.43,6.44c0,3.55-2.88,6.43-6.43,6.43c-3.55,0-6.43-2.88-6.43-6.43
					C687.21,1170.51,690.09,1167.63,693.65,1167.63z"/>
				<path class="st1" d="M660.49,1167.63c3.55,0,6.43,2.88,6.43,6.44c0,3.55-2.88,6.43-6.43,6.43c-3.55,0-6.43-2.88-6.43-6.43
					C654.05,1170.51,656.93,1167.63,660.49,1167.63z"/>
				<path class="st1" d="M627.33,1167.63c3.55,0,6.43,2.88,6.43,6.44c0,3.55-2.88,6.43-6.43,6.43c-3.55,0-6.43-2.88-6.43-6.43
					C620.89,1170.51,623.77,1167.63,627.33,1167.63z"/>
				<path class="st1" d="M594.17,1167.63c3.55,0,6.44,2.88,6.44,6.44c0,3.55-2.88,6.43-6.44,6.43c-3.55,0-6.43-2.88-6.43-6.43
					C587.73,1170.51,590.61,1167.63,594.17,1167.63z"/>
				<path class="st1" d="M561.01,1167.63c3.55,0,6.43,2.88,6.43,6.44c0,3.55-2.88,6.43-6.43,6.43c-3.55,0-6.43-2.88-6.43-6.43
					C554.57,1170.51,557.45,1167.63,561.01,1167.63z"/>
				<path class="st1" d="M527.85,1167.63c3.55,0,6.43,2.88,6.43,6.44c0,3.55-2.88,6.43-6.43,6.43c-3.55,0-6.43-2.88-6.43-6.43
					C521.41,1170.51,524.29,1167.63,527.85,1167.63z"/>
				<path class="st1" d="M494.69,1167.63c3.55,0,6.43,2.88,6.43,6.44c0,3.55-2.88,6.43-6.43,6.43s-6.43-2.88-6.43-6.43
					C488.25,1170.51,491.13,1167.63,494.69,1167.63z"/>
				<path class="st1" d="M710.23,1189.75c3.55,0,6.43,2.88,6.43,6.43c0,3.55-2.88,6.44-6.43,6.44s-6.43-2.88-6.43-6.44
					C703.79,1192.63,706.67,1189.75,710.23,1189.75z"/>
				<path class="st1" d="M677.07,1189.75c3.55,0,6.43,2.88,6.43,6.43c0,3.55-2.88,6.44-6.43,6.44c-3.55,0-6.43-2.88-6.43-6.44
					C670.63,1192.63,673.51,1189.75,677.07,1189.75z"/>
				<path class="st1" d="M643.91,1189.75c3.55,0,6.43,2.88,6.43,6.43c0,3.55-2.88,6.44-6.43,6.44c-3.55,0-6.43-2.88-6.43-6.44
					C637.47,1192.63,640.35,1189.75,643.91,1189.75z"/>
				<path class="st1" d="M610.75,1189.75c3.55,0,6.43,2.88,6.43,6.43c0,3.55-2.88,6.44-6.43,6.44c-3.55,0-6.43-2.88-6.43-6.44
					C604.31,1192.63,607.19,1189.75,610.75,1189.75z"/>
				<path class="st1" d="M577.59,1189.75c3.55,0,6.43,2.88,6.43,6.43c0,3.55-2.88,6.44-6.43,6.44c-3.55,0-6.44-2.88-6.44-6.44
					C571.15,1192.63,574.03,1189.75,577.59,1189.75z"/>
				<path class="st1" d="M544.43,1189.75c3.55,0,6.43,2.88,6.43,6.43c0,3.55-2.88,6.44-6.43,6.44c-3.55,0-6.43-2.88-6.43-6.44
					C537.99,1192.63,540.87,1189.75,544.43,1189.75z"/>
				<path class="st1" d="M511.27,1189.75c3.55,0,6.43,2.88,6.43,6.43c0,3.55-2.88,6.44-6.43,6.44c-3.55,0-6.43-2.88-6.43-6.44
					C504.83,1192.63,507.71,1189.75,511.27,1189.75z"/>
				<path class="st1" d="M478.11,1189.75c3.55,0,6.43,2.88,6.43,6.43c0,3.55-2.88,6.44-6.43,6.44c-3.55,0-6.43-2.88-6.43-6.44
					C471.67,1192.63,474.55,1189.75,478.11,1189.75z"/>
				<path class="st1" d="M726.81,1215.2c3.55,0,6.43,2.88,6.43,6.43c0,3.55-2.88,6.44-6.43,6.44s-6.43-2.88-6.43-6.44
					C720.37,1218.08,723.25,1215.2,726.81,1215.2z"/>
				<path class="st1" d="M693.65,1215.2c3.55,0,6.43,2.88,6.43,6.43c0,3.55-2.88,6.44-6.43,6.44c-3.55,0-6.43-2.88-6.43-6.44
					C687.21,1218.08,690.09,1215.2,693.65,1215.2z"/>
				<path class="st1" d="M660.49,1215.2c3.55,0,6.43,2.88,6.43,6.43c0,3.55-2.88,6.44-6.43,6.44c-3.55,0-6.43-2.88-6.43-6.44
					C654.05,1218.08,656.93,1215.2,660.49,1215.2z"/>
				<path class="st1" d="M627.33,1215.2c3.55,0,6.43,2.88,6.43,6.43c0,3.55-2.88,6.44-6.43,6.44c-3.55,0-6.43-2.88-6.43-6.44
					C620.89,1218.08,623.77,1215.2,627.33,1215.2z"/>
				<path class="st1" d="M594.17,1215.2c3.55,0,6.44,2.88,6.44,6.43c0,3.55-2.88,6.44-6.44,6.44c-3.55,0-6.43-2.88-6.43-6.44
					C587.73,1218.08,590.61,1215.2,594.17,1215.2z"/>
				<path class="st1" d="M561.01,1215.2c3.55,0,6.43,2.88,6.43,6.43c0,3.55-2.88,6.44-6.43,6.44c-3.55,0-6.43-2.88-6.43-6.44
					C554.57,1218.08,557.45,1215.2,561.01,1215.2z"/>
				<path class="st1" d="M527.85,1215.2c3.55,0,6.43,2.88,6.43,6.43c0,3.55-2.88,6.44-6.43,6.44c-3.55,0-6.43-2.88-6.43-6.44
					C521.41,1218.08,524.29,1215.2,527.85,1215.2z"/>
				<path class="st1" d="M494.69,1215.2c3.55,0,6.43,2.88,6.43,6.43c0,3.55-2.88,6.44-6.43,6.44s-6.43-2.88-6.43-6.44
					C488.25,1218.08,491.13,1215.2,494.69,1215.2z"/>
				<circle class="st1" cx="710.23" cy="1243.76" r="6.43"/>
				<circle class="st1" cx="677.07" cy="1243.76" r="6.43"/>
				<circle class="st1" cx="643.91" cy="1243.76" r="6.43"/>
				<circle class="st1" cx="610.75" cy="1243.76" r="6.43"/>
				<path class="st1" d="M577.59,1237.32c3.55,0,6.43,2.88,6.43,6.43c0,3.55-2.88,6.44-6.43,6.44c-3.55,0-6.44-2.88-6.44-6.44
					C571.15,1240.2,574.03,1237.32,577.59,1237.32z"/>
				<circle class="st1" cx="544.43" cy="1243.76" r="6.43"/>
				<circle class="st1" cx="511.27" cy="1243.76" r="6.43"/>
				<circle class="st1" cx="478.11" cy="1243.76" r="6.43"/>
				<circle class="st1" cx="726.81" cy="1269.2" r="6.43"/>
				<circle class="st1" cx="693.65" cy="1269.2" r="6.43"/>
				<circle class="st1" cx="660.49" cy="1269.2" r="6.43"/>
				<circle class="st1" cx="627.33" cy="1269.2" r="6.43"/>
				<path class="st1" d="M594.17,1262.77c3.55,0,6.44,2.88,6.44,6.43c0,3.55-2.88,6.43-6.44,6.43c-3.55,0-6.43-2.88-6.43-6.43
					C587.73,1265.65,590.61,1262.77,594.17,1262.77z"/>
				<circle class="st1" cx="561.01" cy="1269.2" r="6.43"/>
				<circle class="st1" cx="527.85" cy="1269.2" r="6.43"/>
				<circle class="st1" cx="494.69" cy="1269.2" r="6.43"/>
				<path class="st1" d="M710.23,1284.89c3.55,0,6.43,2.88,6.43,6.44c0,3.55-2.88,6.43-6.43,6.43s-6.43-2.88-6.43-6.43
					C703.79,1287.77,706.67,1284.89,710.23,1284.89z"/>
				<path class="st1" d="M677.07,1284.89c3.55,0,6.43,2.88,6.43,6.44c0,3.55-2.88,6.43-6.43,6.43c-3.55,0-6.43-2.88-6.43-6.43
					C670.63,1287.77,673.51,1284.89,677.07,1284.89z"/>
				<path class="st1" d="M643.91,1284.89c3.55,0,6.43,2.88,6.43,6.44c0,3.55-2.88,6.43-6.43,6.43c-3.55,0-6.43-2.88-6.43-6.43
					C637.47,1287.77,640.35,1284.89,643.91,1284.89z"/>
				<path class="st1" d="M610.75,1284.89c3.55,0,6.43,2.88,6.43,6.44c0,3.55-2.88,6.43-6.43,6.43c-3.55,0-6.43-2.88-6.43-6.43
					C604.31,1287.77,607.19,1284.89,610.75,1284.89z"/>
				<path class="st1" d="M577.59,1284.89c3.55,0,6.43,2.88,6.43,6.44c0,3.55-2.88,6.43-6.43,6.43c-3.55,0-6.44-2.88-6.44-6.43
					C571.15,1287.77,574.03,1284.89,577.59,1284.89z"/>
				<path class="st1" d="M544.43,1284.89c3.55,0,6.43,2.88,6.43,6.44c0,3.55-2.88,6.43-6.43,6.43c-3.55,0-6.43-2.88-6.43-6.43
					C537.99,1287.77,540.87,1284.89,544.43,1284.89z"/>
				<path class="st1" d="M511.27,1284.89c3.55,0,6.43,2.88,6.43,6.44c0,3.55-2.88,6.43-6.43,6.43c-3.55,0-6.43-2.88-6.43-6.43
					C504.83,1287.77,507.71,1284.89,511.27,1284.89z"/>
				<path class="st1" d="M478.11,1284.89c3.55,0,6.43,2.88,6.43,6.44c0,3.55-2.88,6.43-6.43,6.43c-3.55,0-6.43-2.88-6.43-6.43
					C471.67,1287.77,474.55,1284.89,478.11,1284.89z"/>
				<path class="st1" d="M726.81,1310.34c3.55,0,6.43,2.88,6.43,6.44c0,3.55-2.88,6.43-6.43,6.43s-6.43-2.88-6.43-6.43
					C720.37,1313.22,723.25,1310.34,726.81,1310.34z"/>
				<path class="st1" d="M693.65,1310.34c3.55,0,6.43,2.88,6.43,6.44c0,3.55-2.88,6.43-6.43,6.43c-3.55,0-6.43-2.88-6.43-6.43
					C687.21,1313.22,690.09,1310.34,693.65,1310.34z"/>
				<path class="st1" d="M660.49,1310.34c3.55,0,6.43,2.88,6.43,6.44c0,3.55-2.88,6.43-6.43,6.43c-3.55,0-6.43-2.88-6.43-6.43
					C654.05,1313.22,656.93,1310.34,660.49,1310.34z"/>
				<path class="st1" d="M627.33,1310.34c3.55,0,6.43,2.88,6.43,6.44c0,3.55-2.88,6.43-6.43,6.43c-3.55,0-6.43-2.88-6.43-6.43
					C620.89,1313.22,623.77,1310.34,627.33,1310.34z"/>
				<path class="st1" d="M594.17,1310.34c3.55,0,6.44,2.88,6.44,6.44c0,3.55-2.88,6.43-6.44,6.43c-3.55,0-6.43-2.88-6.43-6.43
					C587.73,1313.22,590.61,1310.34,594.17,1310.34z"/>
				<path class="st1" d="M561.01,1310.34c3.55,0,6.43,2.88,6.43,6.44c0,3.55-2.88,6.43-6.43,6.43c-3.55,0-6.43-2.88-6.43-6.43
					C554.57,1313.22,557.45,1310.34,561.01,1310.34z"/>
				<path class="st1" d="M527.85,1310.34c3.55,0,6.43,2.88,6.43,6.44c0,3.55-2.88,6.43-6.43,6.43c-3.55,0-6.43-2.88-6.43-6.43
					C521.41,1313.22,524.29,1310.34,527.85,1310.34z"/>
				<path class="st1" d="M494.69,1310.34c3.55,0,6.43,2.88,6.43,6.44c0,3.55-2.88,6.43-6.43,6.43s-6.43-2.88-6.43-6.43
					C488.25,1313.22,491.13,1310.34,494.69,1310.34z"/>
				<circle class="st1" cx="710.23" cy="1338.9" r="6.43"/>
				<circle class="st1" cx="677.07" cy="1338.9" r="6.43"/>
				<circle class="st1" cx="643.91" cy="1338.9" r="6.43"/>
				<circle class="st1" cx="610.75" cy="1338.9" r="6.43"/>
				<path class="st1" d="M577.59,1332.46c3.55,0,6.43,2.88,6.43,6.44c0,3.55-2.88,6.43-6.43,6.43c-3.55,0-6.44-2.88-6.44-6.43
					C571.15,1335.34,574.03,1332.46,577.59,1332.46z"/>
				<circle class="st1" cx="544.43" cy="1338.9" r="6.43"/>
				<circle class="st1" cx="511.27" cy="1338.9" r="6.43"/>
				<circle class="st1" cx="478.11" cy="1338.9" r="6.43"/>
				<circle class="st1" cx="726.81" cy="1364.34" r="6.43"/>
				<circle class="st1" cx="693.65" cy="1364.34" r="6.43"/>
				<circle class="st1" cx="660.49" cy="1364.34" r="6.43"/>
				<circle class="st1" cx="627.33" cy="1364.34" r="6.43"/>
				<path class="st1" d="M594.17,1357.91c3.55,0,6.44,2.88,6.44,6.44s-2.88,6.43-6.44,6.43c-3.55,0-6.43-2.88-6.43-6.43
					S590.61,1357.91,594.17,1357.91z"/>
				<circle class="st1" cx="561.01" cy="1364.34" r="6.43"/>
				<circle class="st1" cx="527.85" cy="1364.34" r="6.43"/>
				<circle class="st1" cx="494.69" cy="1364.34" r="6.43"/>
				<path class="st1" d="M710.23,1380.03c3.55,0,6.43,2.88,6.43,6.43c0,3.55-2.88,6.44-6.43,6.44s-6.43-2.88-6.43-6.44
					C703.79,1382.91,706.67,1380.03,710.23,1380.03z"/>
				<path class="st1" d="M677.07,1380.03c3.55,0,6.43,2.88,6.43,6.43c0,3.55-2.88,6.44-6.43,6.44c-3.55,0-6.43-2.88-6.43-6.44
					C670.63,1382.91,673.51,1380.03,677.07,1380.03z"/>
				<path class="st1" d="M643.91,1380.03c3.55,0,6.43,2.88,6.43,6.43c0,3.55-2.88,6.44-6.43,6.44c-3.55,0-6.43-2.88-6.43-6.44
					C637.47,1382.91,640.35,1380.03,643.91,1380.03z"/>
				<path class="st1" d="M610.75,1380.03c3.55,0,6.43,2.88,6.43,6.43c0,3.55-2.88,6.44-6.43,6.44c-3.55,0-6.43-2.88-6.43-6.44
					C604.31,1382.91,607.19,1380.03,610.75,1380.03z"/>
				<path class="st1" d="M577.59,1380.03c3.55,0,6.43,2.88,6.43,6.43c0,3.55-2.88,6.44-6.43,6.44c-3.55,0-6.44-2.88-6.44-6.44
					C571.15,1382.91,574.03,1380.03,577.59,1380.03z"/>
				<path class="st1" d="M544.43,1380.03c3.55,0,6.43,2.88,6.43,6.43c0,3.55-2.88,6.44-6.43,6.44c-3.55,0-6.43-2.88-6.43-6.44
					C537.99,1382.91,540.87,1380.03,544.43,1380.03z"/>
				<path class="st1" d="M511.27,1380.03c3.55,0,6.43,2.88,6.43,6.43c0,3.55-2.88,6.44-6.43,6.44c-3.55,0-6.43-2.88-6.43-6.44
					C504.83,1382.91,507.71,1380.03,511.27,1380.03z"/>
				<path class="st1" d="M478.11,1380.03c3.55,0,6.43,2.88,6.43,6.43c0,3.55-2.88,6.44-6.43,6.44c-3.55,0-6.43-2.88-6.43-6.44
					C471.67,1382.91,474.55,1380.03,478.11,1380.03z"/>
				<path class="st1" d="M726.81,1405.48c3.55,0,6.43,2.88,6.43,6.43c0,3.55-2.88,6.44-6.43,6.44s-6.43-2.88-6.43-6.44
					C720.37,1408.36,723.25,1405.48,726.81,1405.48z"/>
				<path class="st1" d="M693.65,1405.48c3.55,0,6.43,2.88,6.43,6.43c0,3.55-2.88,6.44-6.43,6.44c-3.55,0-6.43-2.88-6.43-6.44
					C687.21,1408.36,690.09,1405.48,693.65,1405.48z"/>
				<path class="st1" d="M660.49,1405.48c3.55,0,6.43,2.88,6.43,6.43c0,3.55-2.88,6.44-6.43,6.44c-3.55,0-6.43-2.88-6.43-6.44
					C654.05,1408.36,656.93,1405.48,660.49,1405.48z"/>
				<path class="st1" d="M627.33,1405.48c3.55,0,6.43,2.88,6.43,6.43c0,3.55-2.88,6.44-6.43,6.44c-3.55,0-6.43-2.88-6.43-6.44
					C620.89,1408.36,623.77,1405.48,627.33,1405.48z"/>
				<path class="st1" d="M594.17,1405.48c3.55,0,6.44,2.88,6.44,6.43c0,3.55-2.88,6.44-6.44,6.44c-3.55,0-6.43-2.88-6.43-6.44
					C587.73,1408.36,590.61,1405.48,594.17,1405.48z"/>
				<path class="st1" d="M561.01,1405.48c3.55,0,6.43,2.88,6.43,6.43c0,3.55-2.88,6.44-6.43,6.44c-3.55,0-6.43-2.88-6.43-6.44
					C554.57,1408.36,557.45,1405.48,561.01,1405.48z"/>
				<path class="st1" d="M527.85,1405.48c3.55,0,6.43,2.88,6.43,6.43c0,3.55-2.88,6.44-6.43,6.44c-3.55,0-6.43-2.88-6.43-6.44
					C521.41,1408.36,524.29,1405.48,527.85,1405.48z"/>
				<path class="st1" d="M494.69,1405.48c3.55,0,6.43,2.88,6.43,6.43c0,3.55-2.88,6.44-6.43,6.44s-6.43-2.88-6.43-6.44
					C488.25,1408.36,491.13,1405.48,494.69,1405.48z"/>
				<path class="st1" d="M710.23,1427.6c3.55,0,6.43,2.88,6.43,6.44c0,3.55-2.88,6.43-6.43,6.43s-6.43-2.88-6.43-6.43
					C703.79,1430.48,706.67,1427.6,710.23,1427.6z"/>
				<path class="st1" d="M677.07,1427.6c3.55,0,6.43,2.88,6.43,6.44c0,3.55-2.88,6.43-6.43,6.43c-3.55,0-6.43-2.88-6.43-6.43
					C670.63,1430.48,673.51,1427.6,677.07,1427.6z"/>
				<path class="st1" d="M643.91,1427.6c3.55,0,6.43,2.88,6.43,6.44c0,3.55-2.88,6.43-6.43,6.43c-3.55,0-6.43-2.88-6.43-6.43
					C637.47,1430.48,640.35,1427.6,643.91,1427.6z"/>
				<path class="st1" d="M610.75,1427.6c3.55,0,6.43,2.88,6.43,6.44c0,3.55-2.88,6.43-6.43,6.43c-3.55,0-6.43-2.88-6.43-6.43
					C604.31,1430.48,607.19,1427.6,610.75,1427.6z"/>
				<path class="st1" d="M577.59,1427.6c3.55,0,6.43,2.88,6.43,6.44c0,3.55-2.88,6.43-6.43,6.43c-3.55,0-6.44-2.88-6.44-6.43
					C571.15,1430.48,574.03,1427.6,577.59,1427.6z"/>
				<path class="st1" d="M544.43,1427.6c3.55,0,6.43,2.88,6.43,6.44c0,3.55-2.88,6.43-6.43,6.43c-3.55,0-6.43-2.88-6.43-6.43
					C537.99,1430.48,540.87,1427.6,544.43,1427.6z"/>
				<path class="st1" d="M511.27,1427.6c3.55,0,6.43,2.88,6.43,6.44c0,3.55-2.88,6.43-6.43,6.43c-3.55,0-6.43-2.88-6.43-6.43
					C504.83,1430.48,507.71,1427.6,511.27,1427.6z"/>
				<path class="st1" d="M478.11,1427.6c3.55,0,6.43,2.88,6.43,6.44c0,3.55-2.88,6.43-6.43,6.43c-3.55,0-6.43-2.88-6.43-6.43
					C471.67,1430.48,474.55,1427.6,478.11,1427.6z"/>
				<circle class="st1" cx="726.81" cy="1459.48" r="6.43"/>
				<circle class="st1" cx="693.65" cy="1459.48" r="6.43"/>
				<circle class="st1" cx="660.49" cy="1459.48" r="6.43"/>
				<circle class="st1" cx="627.33" cy="1459.48" r="6.43"/>
				<path class="st1" d="M594.17,1453.05c3.55,0,6.44,2.88,6.44,6.43c0,3.55-2.88,6.44-6.44,6.44c-3.55,0-6.43-2.88-6.43-6.44
					C587.73,1455.93,590.61,1453.05,594.17,1453.05z"/>
				<circle class="st1" cx="561.01" cy="1459.48" r="6.43"/>
				<circle class="st1" cx="527.85" cy="1459.48" r="6.43"/>
				<circle class="st1" cx="494.69" cy="1459.48" r="6.43"/>
				<circle class="st1" cx="710.23" cy="1481.61" r="6.43"/>
				<circle class="st1" cx="677.07" cy="1481.61" r="6.43"/>
				<circle class="st1" cx="643.91" cy="1481.61" r="6.43"/>
				<circle class="st1" cx="610.75" cy="1481.61" r="6.43"/>
				<path class="st1" d="M577.59,1475.17c3.55,0,6.43,2.88,6.43,6.43s-2.88,6.43-6.43,6.43c-3.55,0-6.44-2.88-6.44-6.43
					S574.03,1475.17,577.59,1475.17z"/>
				<circle class="st1" cx="544.43" cy="1481.61" r="6.43"/>
				<circle class="st1" cx="511.27" cy="1481.61" r="6.43"/>
				<circle class="st1" cx="478.11" cy="1481.61" r="6.43"/>
			</g>
		</g>
		<path class="st5" d="M572.01,885.79c-14.87,4.63-25.04,22.43-28.64,36.92c-4.06,16.34-1.98,33.79,3.61,49.67
			c5.86,16.65,14.48,31.51,13.91,49.46c-0.6,18.92-2.12,38.81-0.51,57.71c0.16,1.84,0.42,3.81,1.64,5.19
			c0.98,1.11,2.44,1.67,3.83,2.17c32.29,11.5,68.08,12.97,101.21,4.17c1.4-0.37,2.88-0.81,3.88-1.85c1.24-1.29,1.49-3.2,1.68-4.98
			c1.46-13.97,2.98-28.3,3.35-42.33c0.33-12.54-2.03-22.58,2.06-35.12c3.68-11.3,8.85-22.56,8.33-34.44
			c-0.81-18.63-15.13-33.55-22.35-50.75c-3.08-7.34-4.9-15.21-8.57-22.27c-13.22-25.45-56.27-17.84-79.56-14.44
			C574.56,885.1,573.27,885.4,572.01,885.79z"/>
		<path class="st6" d="M555.65,817.84c-0.37-1.44-0.59-2.94-1.28-4.26c-0.92-1.75-2.58-2.97-3.87-4.47
			c-3.18-3.7-3.97-8.98-3.21-13.8c0.75-4.82,2.87-9.29,4.97-13.7c2.21-4.64,4.42-9.29,6.63-13.93c4.3-9.05,10.24-19.31,20.2-20.37
			c1.86-0.2,3.85-0.07,5.47-1c1.62-0.93,2.41-3.55,0.88-4.62c15.59-6.53,35.48-0.08,44.28,14.34c1.7-3.98,7.85-3.82,11.08-0.94
			c3.23,2.89,4.52,7.29,6.42,11.18c0.54,1.11,1.18,2.23,2.22,2.91c0.77,0.5,1.68,0.7,2.52,1.04c6.1,2.51,6.5,10.89,5.65,17.42
			c-1.42,10.9-3.49,21.71-6.22,32.35c-1.73,6.77-4.24,14.15-10.34,17.56c-5.21,2.92-11.59,2.12-17.56,2.25
			c-6.56,0.15-13.04,1.51-19.59,1.8C588.47,842.31,560.16,835.47,555.65,817.84z"/>
		<path class="st2" d="M635.35,771.9c-0.8-0.9-1.67-1.78-2.79-2.21c-1.86-0.71-4.05,0.02-5.51,1.38s-2.35,3.22-3.07,5.08
			c-1.3,3.36-2.19,6.93-1.99,10.52c0.2,3.59,1.6,7.21,4.3,9.59c2.7,2.38,6.78,3.29,10.04,1.76c2.88-1.35,4.73-4.34,5.47-7.44
			C643.55,783.14,640.2,777.37,635.35,771.9z"/>
		<path class="st2" d="M641.17,831.21c-3.57,14.46-9.56,28.56-19.29,39.83c-3.82,4.42-8.42,8.5-14.07,9.97
			c-6.57,1.71-13.71-0.45-19.19-4.44c-5.48-4-9.53-9.66-12.95-15.52c-13.78-23.6-18.75-52.22-13.73-79.09
			c0.39-2.09,0.86-4.22,1.99-6.02c0.97-1.55,2.38-2.77,3.87-3.83c10.07-7.08,23.5-6.59,35.69-4.92c13.28,1.82,32.01,5.1,41.15,16.14
			c4.52,5.45,1.81,13.9,1.09,20.5C644.72,813.04,643.39,822.22,641.17,831.21z"/>
		<path class="st2" d="M651.97,825.75c-0.35,5.15-2.09,10.16-4.9,14.17c-0.7,0.99-1.47,1.94-2.35,2.71
			c-0.52,0.46-1.08,0.87-1.67,1.19c-1.6,0.86-3.52,1.07-5.11,0.19c-2.57-1.41-3.56-5.13-3.48-8.42
			C634.7,825.54,652.94,811.55,651.97,825.75z"/>
		<path class="st2" d="M624.54,891.33c-1.38,4.1-5.78,6.32-9.93,7.5c-5.44,1.54-11.19,2.01-16.81,1.39
			c-6.77-0.75-14.41-4.28-15.49-11.01c-0.7-4.36,1.63-8.57,2.63-12.87c2.56-10.99-3.58-22.87-0.08-33.59
			c4.46-13.65,22.39-17.57,32.79-8.03c7.49,6.87,3.83,19.19,3.79,28.06c-0.02,4.59,0.32,9.17,1.16,13.69
			C623.46,881.12,626.13,886.61,624.54,891.33z"/>
		<path class="st7" d="M612.37,850.06c-1.01,2.12-2.05,4.28-3.73,5.91c-1.75,1.69-4.09,2.67-6.49,3.09
			c-2.4,0.41-4.85,0.29-7.27-0.02c-1.4-0.18-4.88-0.79-3.49-2.57c0.8-1.03,5.56-1.14,6.88-1.46
			C603.13,853.87,607.86,852.2,612.37,850.06z"/>
		<path class="st6" d="M589.57,789.05c-1.58,2.07-3.19,4.22-3.8,6.75s0.07,5.56,2.27,6.95c2.89,1.81,6.6,0.09,9.61-1.52
			c6.56-3.51,13.4-6.5,20.43-8.92c-1.15,3.01-2.32,6.16-1.99,9.37s2.71,6.45,5.93,6.62c4.72,0.25,9.07-5.78,13.2-3.49
			c2.02,1.12,2.6,3.69,3.54,5.8c0.94,2.12,3.29,4.21,5.32,3.1c1.18-0.64,1.63-2.09,1.97-3.39c1.69-6.43,3.39-12.95,3.35-19.6
			s-2.02-13.55-6.76-18.22c-3.92-3.86-9.3-5.83-14.63-7.17c-9.28-2.32-18.89-3.02-28.45-3.44c-10.85-0.47-22.73-0.25-31.15,6.61
			c-5.5,4.49-8.53,11.15-10.13,17.93c-1.09,4.6-4.15,18.81,0.05,22.33c4.92,4.11,10.29-5.7,12.98-8.39c2.55-2.56,5.4-4.83,8.46-6.74
			C581.94,792.31,588.25,790.8,589.57,789.05z"/>
		<path class="st5" d="M422.41,867.93c22.7,12.08,48.68,18.94,74.3,22.68c14.25,2.08,28.79,3.34,43.19,2.26
			c9.54-0.72,24.86-7.9,34.2-5.25c20.76,5.88,21.78,42.9,12.53,57.95c-11.07,18.02-34.86,24.15-55.93,22.3
			c-33.44-2.94-63.88-21.77-87.27-45.85c-11.24-11.57-21.05-24.34-30.12-37.68C416.53,878.99,419.55,873.51,422.41,867.93z"/>
		<path class="st8" d="M582.51,1056.2c0.5,0,1.01,0,1.51,0"/>
		<path class="st9" d="M583.29,827.25c-0.1-0.23-0.24-0.45-0.38-0.59c-0.3-0.3-0.8-0.53-1.23-0.51c-0.45,0.02-0.92,0.17-1.23,0.51
			c-0.33,0.36-0.45,0.74-0.51,1.23c-0.14,1.18-0.02,2.42,0.31,3.56c0.37,1.28,1.01,2.41,1.83,3.45c0.37,0.47,1.15,0.6,1.69,0.45
			c0.59-0.16,1.04-0.63,1.21-1.21C585.7,831.75,585,829.04,583.29,827.25z"/>
		<path class="st9" d="M615.55,827.03c-0.01-0.62,0.01-1.29-0.18-1.88c-0.26-0.84-0.87-1.65-1.76-1.88
			c-0.85-0.21-1.76,0.04-2.38,0.66c-0.62,0.62-0.84,1.66-0.41,2.45c-0.1,2.05,0.01,4.1,0.32,6.13c0.06,0.39,0.46,0.86,0.8,1.04
			c0.44,0.23,0.85,0.24,1.34,0.18c1.5-0.21,2.11-1.8,2.25-3.1C615.65,829.44,615.57,828.21,615.55,827.03z"/>
	</g>
	<g>
		<g>
			<path class="st2" d="M1620.71,618.33c0.23-1.08,0.68-2.23,1.65-2.77c1.54-0.86,3.51,0.28,4.47,1.77
				c0.96,1.48,1.36,3.29,2.38,4.73c0.31,0.44,0.77,0.87,1.29,0.77c0.55-0.11,0.8-0.73,0.96-1.26c2.26-7.82,2.54-16.72,6.78-23.39
				c1.09-1.72,3.81-1.11,4.14,0.9c0.84,5.03-1.8,11.55,1.5,15.68c1.79-3.67,2.66-7.72,4.13-11.54s3.73-7.58,7.35-9.48
				c0.4-0.21,0.83-0.4,1.28-0.36c1.18,0.11,1.63,1.61,1.6,2.8c-0.15,6.98-6.2,13.18-5.09,20.07c2.16-2.65,4.32-5.29,6.48-7.94
				c2.28-2.79,4.92-5.76,8.13-7.07c1.74-0.71,3.54,0.88,3.11,2.71c-0.75,3.14-2.88,6.03-5.18,8.41c-3.11,3.22-6.75,6.1-8.72,10.11
				c4.24-3,8.48-6.01,12.73-9.01c0.66-0.47,1.46-0.95,2.21-0.67c0.58,0.22,0.91,0.82,1.09,1.42c0.86,2.89-0.93,5.96-3.21,7.93
				s-5.09,3.27-7.33,5.29c-3.13,2.82-4.9,6.8-7.12,10.38c-2.21,3.58-5.3,7.08-9.46,7.8c-2.17,0.37-4.62,0-6.38,1.33
				c-1.06,0.79-1.64,2.05-2.25,3.22c-1.55,2.95-3.67,5.75-6.63,7.26c-3.71,1.89-9.07,1.23-10.72-3.03c-1.5-3.88,1.46-5.37,2.96-8.45
				C1627.37,636.69,1618.75,627.61,1620.71,618.33z"/>
			<path class="st2" d="M1090.92,930.6c-1.25,0.24-2.58,0.73-3.22,1.83c-1.03,1.75,0.24,4.05,1.92,5.19s3.75,1.65,5.39,2.85
				c0.49,0.36,0.98,0.91,0.85,1.51c-0.14,0.63-0.86,0.91-1.48,1.07c-9.05,2.4-19.31,2.5-27.08,7.21c-2,1.21-1.37,4.35,0.93,4.79
				c5.77,1.1,13.33-1.78,18,2.12c-4.27,1.97-8.95,2.87-13.38,4.46c-4.43,1.59-8.82,4.1-11.1,8.22c-0.25,0.45-0.48,0.95-0.44,1.46
				c0.09,1.36,1.81,1.91,3.18,1.91c8.03,0.01,15.31-6.8,23.21-5.35c-3.1,2.42-6.2,4.84-9.29,7.25c-3.26,2.55-6.75,5.51-8.34,9.17
				c-0.86,1.99,0.92,4.1,3.04,3.64c3.63-0.79,7-3.16,9.8-5.74c3.78-3.5,7.18-7.61,11.85-9.78c-3.56,4.8-7.13,9.61-10.69,14.41
				c-0.55,0.74-1.13,1.66-0.83,2.53c0.23,0.67,0.93,1.07,1.6,1.29c3.3,1.06,6.88-0.92,9.2-3.5c2.32-2.58,3.89-5.78,6.27-8.3
				c3.32-3.53,7.94-5.47,12.12-7.93c4.18-2.46,8.28-5.92,9.21-10.68c0.49-2.49,0.12-5.31,1.69-7.31c0.94-1.2,2.4-1.83,3.76-2.51
				c3.43-1.71,6.7-4.07,8.52-7.45c2.26-4.22,1.64-10.41-3.22-12.41c-4.43-1.83-6.22,1.54-9.79,3.2
				C1111.88,938.72,1101.65,928.57,1090.92,930.6z"/>
			<path class="st6" d="M1327.97,1442.33c8.03,0.49,16.06,0.96,24.09,1.4c-0.37-124.18,23.56-248.44,47.47-370.76
				c2.46,32.75,4.84,65.48,6.16,98.29c2.29,56.6,1.46,113.33,0.63,169.99c-0.51,35.08-1.03,70.14-1.56,105.2
				c5.54,0.27,11.08,0.54,16.62,0.81c12.19-75.03,29.17-149.2,40.1-224.44c11.63-80.13,16.27-162.4,0.69-241.79
				c-42.78-5.25-86.24-4.45-128.85,2.34c-0.26,0.03-0.52,0.09-0.8,0.12c-37.91,117.04-35.56,244.55-20.06,367.13
				C1316.34,1381.35,1321.16,1412.13,1327.97,1442.33z"/>
			<path class="st6" d="M1349.89,661.2c-2.29-4.34-1.65-9.82-1.26-14.54c0.41-4.95-1.93-7.58-5.97-10.37
				c-2.77-1.92-5.64-3.75-8.05-6.1c-2.41-2.36-4.36-5.35-4.81-8.69c-0.46-3.43,0.73-6.93,2.71-9.77c1.98-2.84,4.69-5.09,7.52-7.07
				c3.67-2.57,7.76-4.8,12.22-5.15c2.33-0.18,4.71,0.17,7.01-0.3c2.66-0.54,4.97-2.13,7.19-3.69c5.07-3.54,9.74-7.36,15.78-9.03
				c3.41-0.94,7.02-1,10.55-0.67c6.93,0.66,13.9,2.97,19.07,7.63c0.82,0.74,1.72,1.59,2.82,1.56c0.78-0.02,1.47-0.48,2.14-0.89
				c8.42-5.21,20.19-4.22,27.63,2.31c4.42,3.88,7.24,9.34,8.82,15.01c4.7,16.89-1.12,35.19-10.73,49.85
				c-1.92,2.93-4.05,5.82-6.92,7.85c-3.17,2.24-7.02,3.26-10.78,4.24c-13.91,3.64-28.27,6.67-41.67-0.17
				c-5.74-2.93-10.25-3.69-16.55-3.98C1360.38,668.95,1353.06,667.2,1349.89,661.2z"/>
			<path class="st2" d="M1355.54,673.88c3.57,14.46,9.56,28.56,19.29,39.83c3.82,4.42,8.42,8.5,14.07,9.97
				c6.57,1.71,13.71-0.45,19.19-4.44c5.48-4,9.53-9.66,12.95-15.52c13.78-23.6,18.75-52.22,13.73-79.09
				c-0.39-2.09-0.86-4.22-1.99-6.02c-0.97-1.55-2.38-2.77-3.87-3.83c-10.07-7.08-23.5-6.59-35.69-4.92
				c-13.28,1.82-32.01,5.1-41.15,16.14c-4.52,5.45-1.81,13.9-1.09,20.5C1351.99,655.71,1353.32,664.89,1355.54,673.88z"/>
			<path class="st9" d="M1373.42,659.43c-0.29-0.63-0.73-1.22-1.22-1.71c-0.61-0.6-1.3-0.99-2.09-1.31
				c-0.39-0.16-0.99-0.03-1.34,0.17c-0.36,0.21-0.7,0.62-0.8,1.04c-0.07,0.33-0.04,0.67,0.06,1c-0.25,0.21-0.46,0.47-0.59,0.77
				c-0.4,0.95,0.01,2.12,0.48,2.98c0.75,1.38,2.2,2.5,3.76,2.77c0.45,0.08,0.93,0.09,1.34-0.18c0.39-0.25,0.65-0.59,0.8-1.04
				C1374.31,662.43,1374.07,660.83,1373.42,659.43z"/>
			<path class="st9" d="M1407.38,654.81c-0.51-1.05-1.31-2.21-2.36-2.77c-0.83-0.44-1.81-0.5-2.65-0.05
				c-0.81,0.43-1.34,1.26-1.34,2.19c0,0.43,0.19,0.84,0.47,1.16c0.09,2.77,1.38,5.56,3.58,7.26c0.51,0.39,1.03,0.63,1.69,0.45
				c0.6-0.17,1.03-0.63,1.21-1.21C1408.72,659.51,1408.44,656.98,1407.38,654.81z"/>
			<path class="st7" d="M1385.49,694.09c1.7,0.74,3.67,0.24,5.45-0.29c5.53-1.64,11.54-3.85,14.28-8.92
				c-4.24,2.12-9.01,2.14-13.64,2.08c-3.52-0.05-10.1-1.24-12.77,1.07C1381.24,689.64,1382.82,692.93,1385.49,694.09z"/>
			<path class="st6" d="M1364.61,632.58c12.31-4.38,23.75-11.16,33.5-19.85c5.44,10.34,15.76,17.99,27.23,20.19
				c1.41,0.27,2.96,0.53,3.89,1.63c0.92,1.1,0.91,2.67,0.93,4.1c0.06,4.93,1,9.85,2.76,14.46c0.47,1.24,1.31,2.67,2.64,2.62
				c1.57-0.06,2.19-2.03,2.38-3.58c0.99-7.85,1.98-15.79,0.96-23.64c-1.02-7.84-4.28-15.7-10.43-20.67
				c-6.8-5.5-16.1-6.75-24.84-6.47c-16.32,0.52-32.25,5.62-46.83,12.96c-5.42,2.73-14.52,8.68-11.28,16.15
				C1348.53,637.4,1359.38,634.44,1364.61,632.58z"/>
			<g>
				<defs>
					<path id="SVGID_3_" d="M1619.7,639.82c-10.6,17.91-23.93,34.19-39.26,48.25c-16.87,15.47-36.17,28.32-56.99,37.82
						c-9.33,4.26-19.84,9.3-30.11,10.48c-11.89,1.37-23.9,2.02-35.85,1.02c-14.32-1.21-27.95-8.02-42.16-10.6
						c-41.77-7.58-95.31,4.62-122.44,39.9c-7.81,10.16-17.63,19.3-26.33,28.71c-8.65,9.37-17.36,18.68-26.18,27.89
						c-37.96,39.58-78.46,77.5-125.3,106.45c-0.04,0.15-0.07,0.25-0.12,0.4c3.81,7.85,7.82,15.58,12.05,23.19
						c11.68-1.76,23.22-4.62,34.36-8.48c22.68-7.86,42.37-20.96,64.65-30.32c23.64-9.94,46.5-22.02,66.92-37.53
						c4.71-3.58,9.27-7.39,13.62-11.4c0.05,4.59,0.09,9.17,0.14,13.76c0.23,21.86-0.19,43.73,0.62,65.59
						c0.8,21.62,3.59,43,6.64,64.35c0.1,0.72,0.26,1.51,0.84,1.95c0.42,0.32,0.98,0.37,1.51,0.42c20.94,1.71,41.97-0.43,62.95-1.45
						c15.89-0.77,31.81-0.89,47.72-1.02c9.48-0.07,18.96-0.15,28.44-0.22c4.88-0.04,9.75-0.08,14.63-0.11
						c4.05-0.03,6.33,0.44,6.53-4.3c2.41-58.04,2.78-115.94,2.82-173.98c13.61-1.98,26.96-5.04,39.56-10.5
						c29.85-12.93,52.78-38,71.46-64.63c21.74-31,39.08-66.58,46.98-103.41C1631.43,648.07,1625.54,643.99,1619.7,639.82z"/>
				</defs>
				<clipPath id="SVGID_4_">
					<use xlink:href="#SVGID_3_"  style="overflow:visible;"/>
				</clipPath>
				<path class="st10" d="M1619.7,639.82c-10.6,17.91-23.93,34.19-39.26,48.25c-16.87,15.47-36.17,28.32-56.99,37.82
					c-9.33,4.26-19.84,9.3-30.11,10.48c-11.89,1.37-23.9,2.02-35.85,1.02c-14.32-1.21-27.95-8.02-42.16-10.6
					c-41.77-7.58-95.31,4.62-122.44,39.9c-7.81,10.16-17.63,19.3-26.33,28.71c-8.65,9.37-17.36,18.68-26.18,27.89
					c-37.96,39.58-78.46,77.5-125.3,106.45c-0.04,0.15-0.07,0.25-0.12,0.4c3.81,7.85,7.82,15.58,12.05,23.19
					c11.68-1.76,23.22-4.62,34.36-8.48c22.68-7.86,42.37-20.96,64.65-30.32c23.64-9.94,46.5-22.02,66.92-37.53
					c4.71-3.58,9.27-7.39,13.62-11.4c0.05,4.59,0.09,9.17,0.14,13.76c0.23,21.86-0.19,43.73,0.62,65.59
					c0.8,21.62,3.59,43,6.64,64.35c0.1,0.72,0.26,1.51,0.84,1.95c0.42,0.32,0.98,0.37,1.51,0.42c20.94,1.71,41.97-0.43,62.95-1.45
					c15.89-0.77,31.81-0.89,47.72-1.02c9.48-0.07,18.96-0.15,28.44-0.22c4.88-0.04,9.75-0.08,14.63-0.11
					c4.05-0.03,6.33,0.44,6.53-4.3c2.41-58.04,2.78-115.94,2.82-173.98c13.61-1.98,26.96-5.04,39.56-10.5
					c29.85-12.93,52.78-38,71.46-64.63c21.74-31,39.08-66.58,46.98-103.41C1631.43,648.07,1625.54,643.99,1619.7,639.82z"/>
				<g class="st11">
					<path class="st12" d="M1304.94,550.55c-0.6-1.44-2.26-2.13-3.7-1.53l-12.43,5.17l-5.17-12.43c-0.6-1.44-2.26-2.13-3.7-1.53
						c-1.44,0.6-2.13,2.26-1.53,3.7l5.17,12.43l-12.43,5.17c-1.44,0.6-2.13,2.26-1.53,3.7c0.6,1.44,2.26,2.13,3.7,1.53l12.43-5.17
						l5.17,12.43c0.6,1.44,2.26,2.13,3.7,1.53c1.44-0.6,2.13-2.26,1.53-3.7l-5.17-12.43l12.43-5.17
						C1304.85,553.65,1305.54,551.99,1304.94,550.55z"/>
					<path class="st12" d="M1367.77,576.46c-0.6-1.44-2.26-2.13-3.7-1.53l-12.43,5.17l-5.17-12.43c-0.6-1.44-2.26-2.13-3.7-1.53
						c-1.44,0.6-2.13,2.26-1.53,3.7l5.17,12.43l-12.43,5.17c-1.44,0.6-2.13,2.26-1.53,3.7s2.26,2.13,3.7,1.53l12.43-5.17l5.17,12.43
						c0.6,1.44,2.26,2.13,3.7,1.53c1.44-0.6,2.13-2.26,1.53-3.7l-5.17-12.43l12.43-5.17
						C1367.69,579.56,1368.37,577.91,1367.77,576.46z"/>
					<path class="st12" d="M1430.61,602.38c-0.6-1.44-2.26-2.13-3.7-1.53l-12.43,5.17l-5.17-12.43c-0.6-1.44-2.26-2.13-3.7-1.53
						c-1.44,0.6-2.13,2.26-1.53,3.7l5.17,12.43l-12.43,5.17c-1.44,0.6-2.13,2.26-1.53,3.7c0.6,1.44,2.26,2.13,3.7,1.53l12.43-5.17
						l5.17,12.43c0.6,1.44,2.26,2.13,3.7,1.53c1.44-0.6,2.13-2.26,1.53-3.7l-5.17-12.43l12.43-5.17
						C1430.53,605.48,1431.21,603.82,1430.61,602.38z"/>
					<path class="st12" d="M1493.44,628.29c-0.6-1.44-2.26-2.13-3.7-1.53l-12.43,5.17l-5.17-12.43c-0.6-1.44-2.26-2.13-3.7-1.53
						c-1.44,0.6-2.13,2.26-1.53,3.7l5.17,12.43l-12.43,5.17c-1.44,0.6-2.13,2.26-1.53,3.7c0.6,1.44,2.26,2.13,3.7,1.53l12.43-5.17
						l5.17,12.43c0.6,1.44,2.26,2.13,3.7,1.53c1.44-0.6,2.13-2.26,1.53-3.7l-5.17-12.43l12.43-5.17
						C1493.36,631.39,1494.05,629.73,1493.44,628.29z"/>
					<path class="st12" d="M1556.28,654.2c-0.6-1.44-2.26-2.13-3.7-1.53l-12.43,5.17l-5.17-12.43c-0.6-1.44-2.26-2.13-3.7-1.53
						c-1.44,0.6-2.13,2.26-1.53,3.7l5.17,12.43l-12.43,5.17c-1.44,0.6-2.13,2.26-1.53,3.7c0.6,1.44,2.26,2.13,3.7,1.53l12.43-5.17
						l5.17,12.43c0.6,1.44,2.26,2.13,3.7,1.53c1.44-0.6,2.13-2.26,1.53-3.7l-5.17-12.43l12.43-5.17
						C1556.2,657.3,1556.88,655.64,1556.28,654.2z"/>
					<path class="st12" d="M1619.12,680.11c-0.6-1.44-2.26-2.13-3.7-1.53l-12.43,5.17l-5.17-12.43c-0.6-1.44-2.26-2.13-3.7-1.53
						s-2.13,2.26-1.53,3.7l5.17,12.43l-12.43,5.17c-1.44,0.6-2.13,2.26-1.53,3.7c0.6,1.44,2.26,2.13,3.7,1.53l12.43-5.17l5.17,12.43
						c0.6,1.44,2.26,2.13,3.7,1.53c1.44-0.6,2.13-2.26,1.53-3.7l-5.17-12.43l12.43-5.17
						C1619.03,683.21,1619.72,681.56,1619.12,680.11z"/>
					<path class="st12" d="M1681.95,706.03c-0.6-1.44-2.26-2.13-3.7-1.53l-12.43,5.17l-5.17-12.43c-0.6-1.44-2.26-2.13-3.7-1.53
						c-1.44,0.6-2.13,2.26-1.53,3.7l5.17,12.43l-12.43,5.17c-1.44,0.6-2.13,2.26-1.53,3.7c0.6,1.44,2.26,2.13,3.7,1.53l12.43-5.17
						l5.17,12.43c0.6,1.44,2.26,2.13,3.7,1.53c1.44-0.6,2.13-2.26,1.53-3.7l-5.17-12.43l12.43-5.17
						C1681.87,709.13,1682.55,707.47,1681.95,706.03z"/>
					<path class="st12" d="M1287.92,626.09c0.6,1.44,2.26,2.13,3.7,1.53l12.43-5.17l5.17,12.43c0.6,1.44,2.26,2.13,3.7,1.53
						c1.44-0.6,2.13-2.26,1.53-3.7l-5.17-12.43l12.43-5.17c1.44-0.6,2.13-2.26,1.53-3.7c-0.6-1.44-2.26-2.13-3.7-1.53l-12.43,5.17
						l-5.17-12.43c-0.6-1.44-2.26-2.13-3.7-1.53c-1.44,0.6-2.13,2.26-1.53,3.7l5.17,12.43l-12.43,5.17
						C1288.01,622.99,1287.32,624.65,1287.92,626.09z"/>
					<path class="st12" d="M1350.76,652.01c0.6,1.44,2.26,2.13,3.7,1.53l12.43-5.17l5.17,12.43c0.6,1.44,2.26,2.13,3.7,1.53
						s2.13-2.26,1.53-3.7l-5.17-12.43l12.43-5.17c1.44-0.6,2.13-2.26,1.53-3.7c-0.6-1.44-2.26-2.13-3.7-1.53l-12.43,5.17
						l-5.17-12.43c-0.6-1.44-2.26-2.13-3.7-1.53c-1.44,0.6-2.13,2.26-1.53,3.7l5.17,12.43l-12.43,5.17
						C1350.84,648.91,1350.16,650.56,1350.76,652.01z"/>
					<path class="st12" d="M1413.6,677.92c0.6,1.44,2.26,2.13,3.7,1.53l12.43-5.17l5.17,12.43c0.6,1.44,2.26,2.13,3.7,1.53
						c1.44-0.6,2.13-2.26,1.53-3.7l-5.17-12.43l12.43-5.17c1.44-0.6,2.13-2.26,1.53-3.7c-0.6-1.44-2.26-2.13-3.7-1.53l-12.43,5.17
						l-5.17-12.43c-0.6-1.44-2.26-2.13-3.7-1.53c-1.44,0.6-2.13,2.26-1.53,3.7l5.17,12.43l-12.43,5.17
						C1413.68,674.82,1413,676.48,1413.6,677.92z"/>
					<path class="st12" d="M1476.43,703.83c0.6,1.44,2.26,2.13,3.7,1.53l12.43-5.17l5.17,12.43c0.6,1.44,2.26,2.13,3.7,1.53
						c1.44-0.6,2.13-2.26,1.53-3.7l-5.17-12.43l12.43-5.17c1.44-0.6,2.13-2.26,1.53-3.7c-0.6-1.44-2.26-2.13-3.7-1.53l-12.43,5.17
						l-5.17-12.43c-0.6-1.44-2.26-2.13-3.7-1.53c-1.44,0.6-2.13,2.26-1.53,3.7l5.17,12.43l-12.43,5.17
						C1476.51,700.73,1475.83,702.39,1476.43,703.83z"/>
					<path class="st12" d="M1539.27,729.74c0.6,1.44,2.26,2.13,3.7,1.53l12.43-5.17l5.17,12.43c0.6,1.44,2.26,2.13,3.7,1.53
						c1.44-0.6,2.13-2.26,1.53-3.7l-5.17-12.43l12.43-5.17c1.44-0.6,2.13-2.26,1.53-3.7s-2.26-2.13-3.7-1.53l-12.43,5.17
						l-5.17-12.43c-0.6-1.44-2.26-2.13-3.7-1.53c-1.44,0.6-2.13,2.26-1.53,3.7l5.17,12.43l-12.43,5.17
						C1539.35,726.64,1538.67,728.3,1539.27,729.74z"/>
					<path class="st12" d="M1602.1,755.66c0.6,1.44,2.26,2.13,3.7,1.53l12.43-5.17l5.17,12.43c0.6,1.44,2.26,2.13,3.7,1.53
						c1.44-0.6,2.13-2.26,1.53-3.7l-5.17-12.43l12.43-5.17c1.44-0.6,2.13-2.26,1.53-3.7s-2.26-2.13-3.7-1.53l-12.43,5.17
						l-5.17-12.43c-0.6-1.44-2.26-2.13-3.7-1.53c-1.44,0.6-2.13,2.26-1.53,3.7l5.17,12.43l-12.43,5.17
						C1602.19,752.56,1601.5,754.21,1602.1,755.66z"/>
					<path class="st12" d="M1686.3,775.75l12.43-5.17c1.44-0.6,2.13-2.26,1.53-3.7c-0.6-1.44-2.26-2.13-3.7-1.53l-12.43,5.17
						l-5.17-12.43c-0.6-1.44-2.26-2.13-3.7-1.53c-1.44,0.6-2.13,2.26-1.53,3.7l5.17,12.43l-12.43,5.17c-1.44,0.6-2.13,2.26-1.53,3.7
						c0.6,1.44,2.26,2.13,3.7,1.53l12.43-5.17l5.17,12.43c0.6,1.44,2.26,2.13,3.7,1.53c1.44-0.6,2.13-2.26,1.53-3.7L1686.3,775.75z"
						/>
					<path class="st12" d="M1266.33,644.17c-0.6-1.44-2.26-2.13-3.7-1.53l-12.43,5.17l-5.17-12.43c-0.6-1.44-2.26-2.13-3.7-1.53
						c-1.44,0.6-2.13,2.26-1.53,3.7l5.17,12.43l-12.43,5.17c-1.44,0.6-2.13,2.26-1.53,3.7c0.6,1.44,2.26,2.13,3.7,1.53l12.43-5.17
						l5.17,12.43c0.6,1.44,2.26,2.13,3.7,1.53c1.44-0.6,2.13-2.26,1.53-3.7l-5.17-12.43l12.43-5.17
						C1266.24,647.27,1266.93,645.62,1266.33,644.17z"/>
					<path class="st12" d="M1329.16,670.09c-0.6-1.44-2.26-2.13-3.7-1.53l-12.43,5.17l-5.17-12.43c-0.6-1.44-2.26-2.13-3.7-1.53
						c-1.44,0.6-2.13,2.26-1.53,3.7l5.17,12.43l-12.43,5.17c-1.44,0.6-2.13,2.26-1.53,3.7c0.6,1.44,2.26,2.13,3.7,1.53l12.43-5.17
						l5.17,12.43c0.6,1.44,2.26,2.13,3.7,1.53c1.44-0.6,2.13-2.26,1.53-3.7l-5.17-12.43l12.43-5.17
						C1329.08,673.19,1329.76,671.53,1329.16,670.09z"/>
					<path class="st12" d="M1392,696c-0.6-1.44-2.26-2.13-3.7-1.53l-12.43,5.17l-5.17-12.43c-0.6-1.44-2.26-2.13-3.7-1.53
						c-1.44,0.6-2.13,2.26-1.53,3.7l5.17,12.43l-12.43,5.17c-1.44,0.6-2.13,2.26-1.53,3.7c0.6,1.44,2.26,2.13,3.7,1.53l12.43-5.17
						l5.17,12.43c0.6,1.44,2.26,2.13,3.7,1.53c1.44-0.6,2.13-2.26,1.53-3.7l-5.17-12.43l12.43-5.17
						C1391.92,699.1,1392.6,697.44,1392,696z"/>
					<path class="st12" d="M1454.84,721.91c-0.6-1.44-2.26-2.13-3.7-1.53l-12.43,5.17l-5.17-12.43c-0.6-1.44-2.26-2.13-3.7-1.53
						c-1.44,0.6-2.13,2.26-1.53,3.7l5.17,12.43l-12.43,5.17c-1.44,0.6-2.13,2.26-1.53,3.7c0.6,1.44,2.26,2.13,3.7,1.53l12.43-5.17
						l5.17,12.43c0.6,1.44,2.26,2.13,3.7,1.53c1.44-0.6,2.13-2.26,1.53-3.7l-5.17-12.43l12.43-5.17
						C1454.75,725.01,1455.44,723.36,1454.84,721.91z"/>
					<path class="st12" d="M1517.67,747.82c-0.6-1.44-2.26-2.13-3.7-1.53l-12.43,5.17l-5.17-12.43c-0.6-1.44-2.26-2.13-3.7-1.53
						c-1.44,0.6-2.13,2.26-1.53,3.7l5.17,12.43l-12.43,5.17c-1.44,0.6-2.13,2.26-1.53,3.7c0.6,1.44,2.26,2.13,3.7,1.53l12.43-5.17
						l5.17,12.43c0.6,1.44,2.26,2.13,3.7,1.53c1.44-0.6,2.13-2.26,1.53-3.7l-5.17-12.43l12.43-5.17
						C1517.59,750.93,1518.27,749.27,1517.67,747.82z"/>
					<path class="st12" d="M1580.51,773.74c-0.6-1.44-2.26-2.13-3.7-1.53l-12.43,5.17l-5.17-12.43c-0.6-1.44-2.26-2.13-3.7-1.53
						c-1.44,0.6-2.13,2.26-1.53,3.7l5.17,12.43l-12.43,5.17c-1.44,0.6-2.13,2.26-1.53,3.7s2.26,2.13,3.7,1.53l12.43-5.17l5.17,12.43
						c0.6,1.44,2.26,2.13,3.7,1.53c1.44-0.6,2.13-2.26,1.53-3.7l-5.17-12.43l12.43-5.17
						C1580.42,776.84,1581.11,775.18,1580.51,773.74z"/>
					<path class="st12" d="M1643.34,799.65c-0.6-1.44-2.26-2.13-3.7-1.53l-12.43,5.17l-5.17-12.43c-0.6-1.44-2.26-2.13-3.7-1.53
						c-1.44,0.6-2.13,2.26-1.53,3.7l5.17,12.43l-12.43,5.17c-1.44,0.6-2.13,2.26-1.53,3.7c0.6,1.44,2.26,2.13,3.7,1.53l12.43-5.17
						l5.17,12.43c0.6,1.44,2.26,2.13,3.7,1.53c1.44-0.6,2.13-2.26,1.53-3.7l-5.17-12.43l12.43-5.17
						C1643.26,802.75,1643.94,801.09,1643.34,799.65z"/>
					<path class="st12" d="M1249.31,719.72c0.6,1.44,2.26,2.13,3.7,1.53l12.43-5.17l5.17,12.43c0.6,1.44,2.26,2.13,3.7,1.53
						c1.44-0.6,2.13-2.26,1.53-3.7l-5.17-12.43l12.43-5.17c1.44-0.6,2.13-2.26,1.53-3.7c-0.6-1.44-2.26-2.13-3.7-1.53l-12.43,5.17
						l-5.17-12.43c-0.6-1.44-2.26-2.13-3.7-1.53c-1.44,0.6-2.13,2.26-1.53,3.7l5.17,12.43l-12.43,5.17
						C1249.4,716.62,1248.71,718.27,1249.31,719.72z"/>
					<path class="st12" d="M1312.15,745.63c0.6,1.44,2.26,2.13,3.7,1.53l12.43-5.17l5.17,12.43c0.6,1.44,2.26,2.13,3.7,1.53
						c1.44-0.6,2.13-2.26,1.53-3.7l-5.17-12.43l12.43-5.17c1.44-0.6,2.13-2.26,1.53-3.7c-0.6-1.44-2.26-2.13-3.7-1.53l-12.43,5.17
						l-5.17-12.43c-0.6-1.44-2.26-2.13-3.7-1.53c-1.44,0.6-2.13,2.26-1.53,3.7l5.17,12.43l-12.43,5.17
						C1312.23,742.53,1311.55,744.19,1312.15,745.63z"/>
					<path class="st12" d="M1374.99,771.54c0.6,1.44,2.26,2.13,3.7,1.53l12.43-5.17l5.17,12.43c0.6,1.44,2.26,2.13,3.7,1.53
						c1.44-0.6,2.13-2.26,1.53-3.7l-5.17-12.43l12.43-5.17c1.44-0.6,2.13-2.26,1.53-3.7c-0.6-1.44-2.26-2.13-3.7-1.53l-12.43,5.17
						l-5.17-12.43c-0.6-1.44-2.26-2.13-3.7-1.53c-1.44,0.6-2.13,2.26-1.53,3.7l5.17,12.43l-12.43,5.17
						C1375.07,768.44,1374.39,770.1,1374.99,771.54z"/>
					<path class="st12" d="M1437.82,797.46c0.6,1.44,2.26,2.13,3.7,1.53l12.43-5.17l5.17,12.43c0.6,1.44,2.26,2.13,3.7,1.53
						c1.44-0.6,2.13-2.26,1.53-3.7l-5.17-12.43l12.43-5.17c1.44-0.6,2.13-2.26,1.53-3.7c-0.6-1.44-2.26-2.13-3.7-1.53l-12.43,5.17
						l-5.17-12.43c-0.6-1.44-2.26-2.13-3.7-1.53c-1.44,0.6-2.13,2.26-1.53,3.7l5.17,12.43l-12.43,5.17
						C1437.91,794.36,1437.22,796.01,1437.82,797.46z"/>
					<path class="st12" d="M1500.66,823.37c0.6,1.44,2.26,2.13,3.7,1.53l12.43-5.17l5.17,12.43c0.6,1.44,2.26,2.13,3.7,1.53
						s2.13-2.26,1.53-3.7l-5.17-12.43l12.43-5.17c1.44-0.6,2.13-2.26,1.53-3.7c-0.6-1.44-2.26-2.13-3.7-1.53l-12.43,5.17
						l-5.17-12.43c-0.6-1.44-2.26-2.13-3.7-1.53c-1.44,0.6-2.13,2.26-1.53,3.7l5.17,12.43l-12.43,5.17
						C1500.74,820.27,1500.06,821.93,1500.66,823.37z"/>
					<path class="st12" d="M1563.49,849.28c0.6,1.44,2.26,2.13,3.7,1.53l12.43-5.17l5.17,12.43c0.6,1.44,2.26,2.13,3.7,1.53
						c1.44-0.6,2.13-2.26,1.53-3.7l-5.17-12.43l12.43-5.17c1.44-0.6,2.13-2.26,1.53-3.7s-2.26-2.13-3.7-1.53l-12.43,5.17
						l-5.17-12.43c-0.6-1.44-2.26-2.13-3.7-1.53c-1.44,0.6-2.13,2.26-1.53,3.7l5.17,12.43l-12.43,5.17
						C1563.58,846.18,1562.89,847.84,1563.49,849.28z"/>
					<path class="st12" d="M1661.65,860.5c-0.6-1.44-2.26-2.13-3.7-1.53l-12.43,5.17l-5.17-12.43c-0.6-1.44-2.26-2.13-3.7-1.53
						c-1.44,0.6-2.13,2.26-1.53,3.7l5.17,12.43l-12.43,5.17c-1.44,0.6-2.13,2.26-1.53,3.7c0.6,1.44,2.26,2.13,3.7,1.53l12.43-5.17
						l5.17,12.43c0.6,1.44,2.26,2.13,3.7,1.53c1.44-0.6,2.13-2.26,1.53-3.7l-5.17-12.43l12.43-5.17
						C1661.57,863.6,1662.25,861.94,1661.65,860.5z"/>
					<path class="st12" d="M1227.72,737.8c-0.6-1.44-2.26-2.13-3.7-1.53l-12.43,5.17l-5.17-12.43c-0.6-1.44-2.26-2.13-3.7-1.53
						c-1.44,0.6-2.13,2.26-1.53,3.7l5.17,12.43l-12.43,5.17c-1.44,0.6-2.13,2.26-1.53,3.7c0.6,1.44,2.26,2.13,3.7,1.53l12.43-5.17
						l5.17,12.43c0.6,1.44,2.26,2.13,3.7,1.53c1.44-0.6,2.13-2.26,1.53-3.7l-5.17-12.43l12.43-5.17
						C1227.64,740.9,1228.32,739.24,1227.72,737.8z"/>
					<path class="st12" d="M1290.55,763.71c-0.6-1.44-2.26-2.13-3.7-1.53l-12.43,5.17l-5.17-12.43c-0.6-1.44-2.26-2.13-3.7-1.53
						c-1.44,0.6-2.13,2.26-1.53,3.7l5.17,12.43l-12.43,5.17c-1.44,0.6-2.13,2.26-1.53,3.7c0.6,1.44,2.26,2.13,3.7,1.53l12.43-5.17
						l5.17,12.43c0.6,1.44,2.26,2.13,3.7,1.53c1.44-0.6,2.13-2.26,1.53-3.7l-5.17-12.43l12.43-5.17
						C1290.47,766.81,1291.16,765.15,1290.55,763.71z"/>
					<path class="st12" d="M1353.39,789.62c-0.6-1.44-2.26-2.13-3.7-1.53l-12.43,5.17l-5.17-12.43c-0.6-1.44-2.26-2.13-3.7-1.53
						c-1.44,0.6-2.13,2.26-1.53,3.7l5.17,12.43l-12.43,5.17c-1.44,0.6-2.13,2.26-1.53,3.7c0.6,1.44,2.26,2.13,3.7,1.53l12.43-5.17
						l5.17,12.43c0.6,1.44,2.26,2.13,3.7,1.53c1.44-0.6,2.13-2.26,1.53-3.7l-5.17-12.43l12.43-5.17
						C1353.31,792.72,1353.99,791.07,1353.39,789.62z"/>
					<path class="st12" d="M1416.23,815.54c-0.6-1.44-2.26-2.13-3.7-1.53l-12.43,5.17l-5.17-12.43c-0.6-1.44-2.26-2.13-3.7-1.53
						c-1.44,0.6-2.13,2.26-1.53,3.7l5.17,12.43l-12.43,5.17c-1.44,0.6-2.13,2.26-1.53,3.7c0.6,1.44,2.26,2.13,3.7,1.53l12.43-5.17
						l5.17,12.43c0.6,1.44,2.26,2.13,3.7,1.53c1.44-0.6,2.13-2.26,1.53-3.7l-5.17-12.43l12.43-5.17
						C1416.14,818.64,1416.83,816.98,1416.23,815.54z"/>
					<path class="st12" d="M1479.06,841.45c-0.6-1.44-2.26-2.13-3.7-1.53l-12.43,5.17l-5.17-12.43c-0.6-1.44-2.26-2.13-3.7-1.53
						c-1.44,0.6-2.13,2.26-1.53,3.7l5.17,12.43l-12.43,5.17c-1.44,0.6-2.13,2.26-1.53,3.7c0.6,1.44,2.26,2.13,3.7,1.53l12.43-5.17
						l5.17,12.43c0.6,1.44,2.26,2.13,3.7,1.53c1.44-0.6,2.13-2.26,1.53-3.7l-5.17-12.43l12.43-5.17
						C1478.98,844.55,1479.66,842.89,1479.06,841.45z"/>
					<path class="st12" d="M1541.9,867.36c-0.6-1.44-2.26-2.13-3.7-1.53l-12.43,5.17l-5.17-12.43c-0.6-1.44-2.26-2.13-3.7-1.53
						c-1.44,0.6-2.13,2.26-1.53,3.7l5.17,12.43l-12.43,5.17c-1.44,0.6-2.13,2.26-1.53,3.7c0.6,1.44,2.26,2.13,3.7,1.53l12.43-5.17
						l5.17,12.43c0.6,1.44,2.26,2.13,3.7,1.53c1.44-0.6,2.13-2.26,1.53-3.7l-5.17-12.43l12.43-5.17
						C1541.82,870.46,1542.5,868.8,1541.9,867.36z"/>
					<path class="st12" d="M1604.73,893.27c-0.6-1.44-2.26-2.13-3.7-1.53l-12.43,5.17l-5.17-12.43c-0.6-1.44-2.26-2.13-3.7-1.53
						c-1.44,0.6-2.13,2.26-1.53,3.7l5.17,12.43l-12.43,5.17c-1.44,0.6-2.13,2.26-1.53,3.7c0.6,1.44,2.26,2.13,3.7,1.53l12.43-5.17
						l5.17,12.43c0.6,1.44,2.26,2.13,3.7,1.53c1.44-0.6,2.13-2.26,1.53-3.7l-5.17-12.43l12.43-5.17
						C1604.65,896.37,1605.33,894.72,1604.73,893.27z"/>
					<path class="st12" d="M1210.71,813.34c0.6,1.44,2.26,2.13,3.7,1.53l12.43-5.17l5.17,12.43c0.6,1.44,2.26,2.13,3.7,1.53
						c1.44-0.6,2.13-2.26,1.53-3.7l-5.17-12.43l12.43-5.17c1.44-0.6,2.13-2.26,1.53-3.7c-0.6-1.44-2.26-2.13-3.7-1.53l-12.43,5.17
						l-5.17-12.43c-0.6-1.44-2.26-2.13-3.7-1.53c-1.44,0.6-2.13,2.26-1.53,3.7l5.17,12.43l-12.43,5.17
						C1210.79,810.24,1210.1,811.9,1210.71,813.34z"/>
					<path class="st12" d="M1273.54,839.25c0.6,1.44,2.26,2.13,3.7,1.53l12.43-5.17l5.17,12.43c0.6,1.44,2.26,2.13,3.7,1.53
						c1.44-0.6,2.13-2.26,1.53-3.7l-5.17-12.43l12.43-5.17c1.44-0.6,2.13-2.26,1.53-3.7c-0.6-1.44-2.26-2.13-3.7-1.53l-12.43,5.17
						l-5.17-12.43c-0.6-1.44-2.26-2.13-3.7-1.53c-1.44,0.6-2.13,2.26-1.53,3.7l5.17,12.43l-12.43,5.17
						C1273.62,836.15,1272.94,837.81,1273.54,839.25z"/>
					<path class="st12" d="M1336.38,865.17c0.6,1.44,2.26,2.13,3.7,1.53l12.43-5.17l5.17,12.43c0.6,1.44,2.26,2.13,3.7,1.53
						c1.44-0.6,2.13-2.26,1.53-3.7l-5.17-12.43l12.43-5.17c1.44-0.6,2.13-2.26,1.53-3.7c-0.6-1.44-2.26-2.13-3.7-1.53l-12.43,5.17
						l-5.17-12.43c-0.6-1.44-2.26-2.13-3.7-1.53c-1.44,0.6-2.13,2.26-1.53,3.7l5.17,12.43l-12.43,5.17
						C1336.46,862.07,1335.78,863.72,1336.38,865.17z"/>
					<path class="st12" d="M1399.21,891.08c0.6,1.44,2.26,2.13,3.7,1.53l12.43-5.17l5.17,12.43c0.6,1.44,2.26,2.13,3.7,1.53
						c1.44-0.6,2.13-2.26,1.53-3.7l-5.17-12.43l12.43-5.17c1.44-0.6,2.13-2.26,1.53-3.7c-0.6-1.44-2.26-2.13-3.7-1.53l-12.43,5.17
						l-5.17-12.43c-0.6-1.44-2.26-2.13-3.7-1.53c-1.44,0.6-2.13,2.26-1.53,3.7l5.17,12.43l-12.43,5.17
						C1399.3,887.98,1398.61,889.64,1399.21,891.08z"/>
					<path class="st12" d="M1462.05,916.99c0.6,1.44,2.26,2.13,3.7,1.53l12.43-5.17l5.17,12.43c0.6,1.44,2.26,2.13,3.7,1.53
						c1.44-0.6,2.13-2.26,1.53-3.7l-5.17-12.43l12.43-5.17c1.44-0.6,2.13-2.26,1.53-3.7c-0.6-1.44-2.26-2.13-3.7-1.53l-12.43,5.17
						l-5.17-12.43c-0.6-1.44-2.26-2.13-3.7-1.53c-1.44,0.6-2.13,2.26-1.53,3.7l5.17,12.43l-12.43,5.17
						C1462.13,913.89,1461.45,915.55,1462.05,916.99z"/>
					<path class="st12" d="M1524.89,942.91c0.6,1.44,2.26,2.13,3.7,1.53l12.43-5.17l5.17,12.43c0.6,1.44,2.26,2.13,3.7,1.53
						c1.44-0.6,2.13-2.26,1.53-3.7l-5.17-12.43l12.43-5.17c1.44-0.6,2.13-2.26,1.53-3.7c-0.6-1.44-2.26-2.13-3.7-1.53l-12.43,5.17
						l-5.17-12.43c-0.6-1.44-2.26-2.13-3.7-1.53c-1.44,0.6-2.13,2.26-1.53,3.7l5.17,12.43l-12.43,5.17
						C1524.97,939.8,1524.28,941.46,1524.89,942.91z"/>
					<path class="st12" d="M1623.04,954.12c-0.6-1.44-2.26-2.13-3.7-1.53l-12.43,5.17l-5.17-12.43c-0.6-1.44-2.26-2.13-3.7-1.53
						c-1.44,0.6-2.13,2.26-1.53,3.7l5.17,12.43l-12.43,5.17c-1.44,0.6-2.13,2.26-1.53,3.7c0.6,1.44,2.26,2.13,3.7,1.53l12.43-5.17
						l5.17,12.43c0.6,1.44,2.26,2.13,3.7,1.53c1.44-0.6,2.13-2.26,1.53-3.7l-5.17-12.43l12.43-5.17
						C1622.96,957.22,1623.64,955.57,1623.04,954.12z"/>
					<path class="st12" d="M1189.11,831.42c-0.6-1.44-2.26-2.13-3.7-1.53l-12.43,5.17l-5.17-12.43c-0.6-1.44-2.26-2.13-3.7-1.53
						c-1.44,0.6-2.13,2.26-1.53,3.7l5.17,12.43l-12.43,5.17c-1.44,0.6-2.13,2.26-1.53,3.7c0.6,1.44,2.26,2.13,3.7,1.53l12.43-5.17
						l5.17,12.43c0.6,1.44,2.26,2.13,3.7,1.53c1.44-0.6,2.13-2.26,1.53-3.7l-5.17-12.43l12.43-5.17
						C1189.03,834.52,1189.71,832.87,1189.11,831.42z"/>
					<path class="st12" d="M1251.95,857.33c-0.6-1.44-2.26-2.13-3.7-1.53l-12.43,5.17l-5.17-12.43c-0.6-1.44-2.26-2.13-3.7-1.53
						c-1.44,0.6-2.13,2.26-1.53,3.7l5.17,12.43l-12.43,5.17c-1.44,0.6-2.13,2.26-1.53,3.7s2.26,2.13,3.7,1.53l12.43-5.17l5.17,12.43
						c0.6,1.44,2.26,2.13,3.7,1.53c1.44-0.6,2.13-2.26,1.53-3.7l-5.17-12.43l12.43-5.17
						C1251.86,860.44,1252.55,858.78,1251.95,857.33z"/>
					<path class="st12" d="M1314.78,883.25c-0.6-1.44-2.26-2.13-3.7-1.53l-12.43,5.17l-5.17-12.43c-0.6-1.44-2.26-2.13-3.7-1.53
						c-1.44,0.6-2.13,2.26-1.53,3.7l5.17,12.43l-12.43,5.17c-1.44,0.6-2.13,2.26-1.53,3.7c0.6,1.44,2.26,2.13,3.7,1.53l12.43-5.17
						l5.17,12.43c0.6,1.44,2.26,2.13,3.7,1.53c1.44-0.6,2.13-2.26,1.53-3.7l-5.17-12.43l12.43-5.17
						C1314.7,886.35,1315.38,884.69,1314.78,883.25z"/>
					<path class="st12" d="M1377.62,909.16c-0.6-1.44-2.26-2.13-3.7-1.53l-12.43,5.17l-5.17-12.43c-0.6-1.44-2.26-2.13-3.7-1.53
						c-1.44,0.6-2.13,2.26-1.53,3.7l5.17,12.43l-12.43,5.17c-1.44,0.6-2.13,2.26-1.53,3.7c0.6,1.44,2.26,2.13,3.7,1.53l12.43-5.17
						l5.17,12.43c0.6,1.44,2.26,2.13,3.7,1.53c1.44-0.6,2.13-2.26,1.53-3.7l-5.17-12.43l12.43-5.17
						C1377.53,912.26,1378.22,910.6,1377.62,909.16z"/>
					<path class="st12" d="M1440.45,935.07c-0.6-1.44-2.26-2.13-3.7-1.53l-12.43,5.17l-5.17-12.43c-0.6-1.44-2.26-2.13-3.7-1.53
						c-1.44,0.6-2.13,2.26-1.53,3.7l5.17,12.43l-12.43,5.17c-1.44,0.6-2.13,2.26-1.53,3.7c0.6,1.44,2.26,2.13,3.7,1.53l12.43-5.17
						l5.17,12.43c0.6,1.44,2.26,2.13,3.7,1.53c1.44-0.6,2.13-2.26,1.53-3.7l-5.17-12.43l12.43-5.17
						C1440.37,938.17,1441.05,936.52,1440.45,935.07z"/>
					<path class="st12" d="M1503.29,960.98c-0.6-1.44-2.26-2.13-3.7-1.53l-12.43,5.17l-5.17-12.43c-0.6-1.44-2.26-2.13-3.7-1.53
						c-1.44,0.6-2.13,2.26-1.53,3.7l5.17,12.43l-12.43,5.17c-1.44,0.6-2.13,2.26-1.53,3.7c0.6,1.44,2.26,2.13,3.7,1.53l12.43-5.17
						l5.17,12.43c0.6,1.44,2.26,2.13,3.7,1.53c1.44-0.6,2.13-2.26,1.53-3.7l-5.17-12.43l12.43-5.17
						C1503.21,964.09,1503.89,962.43,1503.29,960.98z"/>
					<path class="st12" d="M1566.13,986.9c-0.6-1.44-2.26-2.13-3.7-1.53l-12.43,5.17l-5.17-12.43c-0.6-1.44-2.26-2.13-3.7-1.53
						c-1.44,0.6-2.13,2.26-1.53,3.7l5.17,12.43l-12.43,5.17c-1.44,0.6-2.13,2.26-1.53,3.7c0.6,1.44,2.26,2.13,3.7,1.53l12.43-5.17
						l5.17,12.43c0.6,1.44,2.26,2.13,3.7,1.53c1.44-0.6,2.13-2.26,1.53-3.7l-5.17-12.43l12.43-5.17
						C1566.04,990,1566.73,988.34,1566.13,986.9z"/>
					<path class="st12" d="M1172.1,906.97c0.6,1.44,2.26,2.13,3.7,1.53l12.43-5.17l5.17,12.43c0.6,1.44,2.26,2.13,3.7,1.53
						c1.44-0.6,2.13-2.26,1.53-3.7l-5.17-12.43l12.43-5.17c1.44-0.6,2.13-2.26,1.53-3.7c-0.6-1.44-2.26-2.13-3.7-1.53l-12.43,5.17
						l-5.17-12.43c-0.6-1.44-2.26-2.13-3.7-1.53c-1.44,0.6-2.13,2.26-1.53,3.7l5.17,12.43l-12.43,5.17
						C1172.18,903.86,1171.5,905.52,1172.1,906.97z"/>
					<path class="st12" d="M1234.93,932.88c0.6,1.44,2.26,2.13,3.7,1.53l12.43-5.17l5.17,12.43c0.6,1.44,2.26,2.13,3.7,1.53
						c1.44-0.6,2.13-2.26,1.53-3.7l-5.17-12.43l12.43-5.17c1.44-0.6,2.13-2.26,1.53-3.7c-0.6-1.44-2.26-2.13-3.7-1.53l-12.43,5.17
						l-5.17-12.43c-0.6-1.44-2.26-2.13-3.7-1.53c-1.44,0.6-2.13,2.26-1.53,3.7l5.17,12.43l-12.43,5.17
						C1235.02,929.78,1234.33,931.43,1234.93,932.88z"/>
					<path class="st12" d="M1297.77,958.79c0.6,1.44,2.26,2.13,3.7,1.53l12.43-5.17l5.17,12.43c0.6,1.44,2.26,2.13,3.7,1.53
						c1.44-0.6,2.13-2.26,1.53-3.7l-5.17-12.43l12.43-5.17c1.44-0.6,2.13-2.26,1.53-3.7c-0.6-1.44-2.26-2.13-3.7-1.53l-12.43,5.17
						l-5.17-12.43c-0.6-1.44-2.26-2.13-3.7-1.53c-1.44,0.6-2.13,2.26-1.53,3.7l5.17,12.43l-12.43,5.17
						C1297.85,955.69,1297.17,957.35,1297.77,958.79z"/>
					<path class="st12" d="M1360.6,984.7c0.6,1.44,2.26,2.13,3.7,1.53l12.43-5.17l5.17,12.43c0.6,1.44,2.26,2.13,3.7,1.53
						c1.44-0.6,2.13-2.26,1.53-3.7l-5.17-12.43l12.43-5.17c1.44-0.6,2.13-2.26,1.53-3.7c-0.6-1.44-2.26-2.13-3.7-1.53l-12.43,5.17
						l-5.17-12.43c-0.6-1.44-2.26-2.13-3.7-1.53c-1.44,0.6-2.13,2.26-1.53,3.7l5.17,12.43l-12.43,5.17
						C1360.69,981.6,1360,983.26,1360.6,984.7z"/>
					<path class="st12" d="M1423.44,1010.62c0.6,1.44,2.26,2.13,3.7,1.53l12.43-5.17l5.17,12.43c0.6,1.44,2.26,2.13,3.7,1.53
						c1.44-0.6,2.13-2.26,1.53-3.7l-5.17-12.43l12.43-5.17c1.44-0.6,2.13-2.26,1.53-3.7c-0.6-1.44-2.26-2.13-3.7-1.53l-12.43,5.17
						l-5.17-12.43c-0.6-1.44-2.26-2.13-3.7-1.53c-1.44,0.6-2.13,2.26-1.53,3.7l5.17,12.43l-12.43,5.17
						C1423.52,1007.52,1422.84,1009.17,1423.44,1010.62z"/>
					<path class="st12" d="M1486.28,1036.53c0.6,1.44,2.26,2.13,3.7,1.53l12.43-5.17l5.17,12.43c0.6,1.44,2.26,2.13,3.7,1.53
						c1.44-0.6,2.13-2.26,1.53-3.7l-5.17-12.43l12.43-5.17c1.44-0.6,2.13-2.26,1.53-3.7c-0.6-1.44-2.26-2.13-3.7-1.53l-12.43,5.17
						l-5.17-12.43c-0.6-1.44-2.26-2.13-3.7-1.53c-1.44,0.6-2.13,2.26-1.53,3.7l5.17,12.43l-12.43,5.17
						C1486.36,1033.43,1485.68,1035.09,1486.28,1036.53z"/>
					<path class="st12" d="M1584.43,1047.75c-0.6-1.44-2.26-2.13-3.7-1.53l-12.43,5.17l-5.17-12.43c-0.6-1.44-2.26-2.13-3.7-1.53
						c-1.44,0.6-2.13,2.26-1.53,3.7l5.17,12.43l-12.43,5.17c-1.44,0.6-2.13,2.26-1.53,3.7c0.6,1.44,2.26,2.13,3.7,1.53l12.43-5.17
						l5.17,12.43c0.6,1.44,2.26,2.13,3.7,1.53c1.44-0.6,2.13-2.26,1.53-3.7l-5.17-12.43l12.43-5.17
						C1584.35,1050.85,1585.03,1049.19,1584.43,1047.75z"/>
					<path class="st12" d="M1150.5,925.05c-0.6-1.44-2.26-2.13-3.7-1.53l-12.43,5.17l-5.17-12.43c-0.6-1.44-2.26-2.13-3.7-1.53
						c-1.44,0.6-2.13,2.26-1.53,3.7l5.17,12.43l-12.43,5.17c-1.44,0.6-2.13,2.26-1.53,3.7c0.6,1.44,2.26,2.13,3.7,1.53l12.43-5.17
						l5.17,12.43c0.6,1.44,2.26,2.13,3.7,1.53c1.44-0.6,2.13-2.26,1.53-3.7l-5.17-12.43l12.43-5.17
						C1150.42,928.15,1151.1,926.49,1150.5,925.05z"/>
					<path class="st12" d="M1213.34,950.96c-0.6-1.44-2.26-2.13-3.7-1.53l-12.43,5.17l-5.17-12.43c-0.6-1.44-2.26-2.13-3.7-1.53
						c-1.44,0.6-2.13,2.26-1.53,3.7l5.17,12.43l-12.43,5.17c-1.44,0.6-2.13,2.26-1.53,3.7c0.6,1.44,2.26,2.13,3.7,1.53l12.43-5.17
						l5.17,12.43c0.6,1.44,2.26,2.13,3.7,1.53c1.44-0.6,2.13-2.26,1.53-3.7l-5.17-12.43l12.43-5.17
						C1213.25,954.06,1213.94,952.4,1213.34,950.96z"/>
					<path class="st12" d="M1276.17,976.87c-0.6-1.44-2.26-2.13-3.7-1.53l-12.43,5.17l-5.17-12.43c-0.6-1.44-2.26-2.13-3.7-1.53
						c-1.44,0.6-2.13,2.26-1.53,3.7l5.17,12.43l-12.43,5.17c-1.44,0.6-2.13,2.26-1.53,3.7c0.6,1.44,2.26,2.13,3.7,1.53l12.43-5.17
						l5.17,12.43c0.6,1.44,2.26,2.13,3.7,1.53c1.44-0.6,2.13-2.26,1.53-3.7l-5.17-12.43l12.43-5.17
						C1276.09,979.97,1276.77,978.31,1276.17,976.87z"/>
					<path class="st12" d="M1339.01,1002.78c-0.6-1.44-2.26-2.13-3.7-1.53l-12.43,5.17L1317.7,994c-0.6-1.44-2.26-2.13-3.7-1.53
						c-1.44,0.6-2.13,2.26-1.53,3.7l5.17,12.43l-12.43,5.17c-1.44,0.6-2.13,2.26-1.53,3.7c0.6,1.44,2.26,2.13,3.7,1.53l12.43-5.17
						l5.17,12.43c0.6,1.44,2.26,2.13,3.7,1.53c1.44-0.6,2.13-2.26,1.53-3.7l-5.17-12.43l12.43-5.17
						C1338.93,1005.88,1339.61,1004.23,1339.01,1002.78z"/>
					<path class="st12" d="M1401.84,1028.7c-0.6-1.44-2.26-2.13-3.7-1.53l-12.43,5.17l-5.17-12.43c-0.6-1.44-2.26-2.13-3.7-1.53
						c-1.44,0.6-2.13,2.26-1.53,3.7l5.17,12.43l-12.43,5.17c-1.44,0.6-2.13,2.26-1.53,3.7c0.6,1.44,2.26,2.13,3.7,1.53l12.43-5.17
						l5.17,12.43c0.6,1.44,2.26,2.13,3.7,1.53c1.44-0.6,2.13-2.26,1.53-3.7l-5.17-12.43l12.43-5.17
						C1401.76,1031.8,1402.44,1030.14,1401.84,1028.7z"/>
					<path class="st12" d="M1464.68,1054.61c-0.6-1.44-2.26-2.13-3.7-1.53l-12.43,5.17l-5.17-12.43c-0.6-1.44-2.26-2.13-3.7-1.53
						c-1.44,0.6-2.13,2.26-1.53,3.7l5.17,12.43l-12.43,5.17c-1.44,0.6-2.13,2.26-1.53,3.7c0.6,1.44,2.26,2.13,3.7,1.53l12.43-5.17
						l5.17,12.43c0.6,1.44,2.26,2.13,3.7,1.53c1.44-0.6,2.13-2.26,1.53-3.7l-5.17-12.43l12.43-5.17
						C1464.6,1057.71,1465.28,1056.05,1464.68,1054.61z"/>
					<path class="st12" d="M1527.52,1080.52c-0.6-1.44-2.26-2.13-3.7-1.53l-12.43,5.17l-5.17-12.43c-0.6-1.44-2.26-2.13-3.7-1.53
						c-1.44,0.6-2.13,2.26-1.53,3.7l5.17,12.43l-12.43,5.17c-1.44,0.6-2.13,2.26-1.53,3.7c0.6,1.44,2.26,2.13,3.7,1.53l12.43-5.17
						l5.17,12.43c0.6,1.44,2.26,2.13,3.7,1.53c1.44-0.6,2.13-2.26,1.53-3.7l-5.17-12.43l12.43-5.17
						C1527.43,1083.62,1528.12,1081.97,1527.52,1080.52z"/>
					<path class="st12" d="M1168.81,985.9c-0.6-1.44-2.26-2.13-3.7-1.53l-12.43,5.17l-5.17-12.43c-0.6-1.44-2.26-2.13-3.7-1.53
						c-1.44,0.6-2.13,2.26-1.53,3.7l5.17,12.43l-12.43,5.17c-1.44,0.6-2.13,2.26-1.53,3.7c0.6,1.44,2.26,2.13,3.7,1.53l12.43-5.17
						l5.17,12.43c0.6,1.44,2.26,2.13,3.7,1.53c1.44-0.6,2.13-2.26,1.53-3.7l-5.17-12.43l12.43-5.17
						C1168.72,989,1169.41,987.34,1168.81,985.9z"/>
					<path class="st12" d="M1231.64,1011.81c-0.6-1.44-2.26-2.13-3.7-1.53l-12.43,5.17l-5.17-12.43c-0.6-1.44-2.26-2.13-3.7-1.53
						c-1.44,0.6-2.13,2.26-1.53,3.7l5.17,12.43l-12.43,5.17c-1.44,0.6-2.13,2.26-1.53,3.7c0.6,1.44,2.26,2.13,3.7,1.53l12.43-5.17
						l5.17,12.43c0.6,1.44,2.26,2.13,3.7,1.53c1.44-0.6,2.13-2.26,1.53-3.7l-5.17-12.43l12.43-5.17
						C1231.56,1014.91,1232.24,1013.25,1231.64,1011.81z"/>
					<path class="st12" d="M1294.48,1037.72c-0.6-1.44-2.26-2.13-3.7-1.53l-12.43,5.17l-5.17-12.43c-0.6-1.44-2.26-2.13-3.7-1.53
						c-1.44,0.6-2.13,2.26-1.53,3.7l5.17,12.43l-12.43,5.17c-1.44,0.6-2.13,2.26-1.53,3.7c0.6,1.44,2.26,2.13,3.7,1.53l12.43-5.17
						l5.17,12.43c0.6,1.44,2.26,2.13,3.7,1.53c1.44-0.6,2.13-2.26,1.53-3.7l-5.17-12.43l12.43-5.17
						C1294.4,1040.82,1295.08,1039.16,1294.48,1037.72z"/>
					<path class="st12" d="M1357.31,1063.63c-0.6-1.44-2.26-2.13-3.7-1.53l-12.43,5.17l-5.17-12.43c-0.6-1.44-2.26-2.13-3.7-1.53
						c-1.44,0.6-2.13,2.26-1.53,3.7l5.17,12.43l-12.43,5.17c-1.44,0.6-2.13,2.26-1.53,3.7c0.6,1.44,2.26,2.13,3.7,1.53l12.43-5.17
						l5.17,12.43c0.6,1.44,2.26,2.13,3.7,1.53c1.44-0.6,2.13-2.26,1.53-3.7l-5.17-12.43l12.43-5.17
						C1357.23,1066.73,1357.92,1065.08,1357.31,1063.63z"/>
					<path class="st12" d="M1420.15,1089.55c-0.6-1.44-2.26-2.13-3.7-1.53l-12.43,5.17l-5.17-12.43c-0.6-1.44-2.26-2.13-3.7-1.53
						c-1.44,0.6-2.13,2.26-1.53,3.7l5.17,12.43l-12.43,5.17c-1.44,0.6-2.13,2.26-1.53,3.7c0.6,1.44,2.26,2.13,3.7,1.53l12.43-5.17
						l5.17,12.43c0.6,1.44,2.26,2.13,3.7,1.53c1.44-0.6,2.13-2.26,1.53-3.7l-5.17-12.43l12.43-5.17
						C1420.07,1092.65,1420.75,1090.99,1420.15,1089.55z"/>
					<path class="st12" d="M1482.99,1115.46c-0.6-1.44-2.26-2.13-3.7-1.53l-12.43,5.17l-5.17-12.43c-0.6-1.44-2.26-2.13-3.7-1.53
						c-1.44,0.6-2.13,2.26-1.53,3.7l5.17,12.43l-12.43,5.17c-1.44,0.6-2.13,2.26-1.53,3.7c0.6,1.44,2.26,2.13,3.7,1.53l12.43-5.17
						l5.17,12.43c0.6,1.44,2.26,2.13,3.7,1.53c1.44-0.6,2.13-2.26,1.53-3.7l-5.17-12.43l12.43-5.17
						C1482.9,1118.56,1483.59,1116.9,1482.99,1115.46z"/>
					<path class="st12" d="M1545.82,1141.37c-0.6-1.44-2.26-2.13-3.7-1.53l-12.43,5.17l-5.17-12.43c-0.6-1.44-2.26-2.13-3.7-1.53
						c-1.44,0.6-2.13,2.26-1.53,3.7l5.17,12.43l-12.43,5.17c-1.44,0.6-2.13,2.26-1.53,3.7c0.6,1.44,2.26,2.13,3.7,1.53l12.43-5.17
						l5.17,12.43c0.6,1.44,2.26,2.13,3.7,1.53c1.44-0.6,2.13-2.26,1.53-3.7l-5.17-12.43l12.43-5.17
						C1545.74,1144.47,1546.42,1142.81,1545.82,1141.37z"/>
				</g>
			</g>
			<path class="st2" d="M1435.47,649.89c0.8-0.9,1.67-1.78,2.79-2.21c1.86-0.71,4.05,0.02,5.51,1.38s2.35,3.22,3.07,5.08
				c1.3,3.36,2.19,6.93,1.99,10.52c-0.2,3.59-1.6,7.21-4.3,9.59c-2.7,2.38-6.78,3.29-10.04,1.76c-2.88-1.35-4.73-4.34-5.47-7.44
				C1427.26,661.13,1430.62,655.36,1435.47,649.89z"/>
			<path class="st2" d="M1373.06,749.97c1.38,4.1,5.78,6.32,9.93,7.5c5.44,1.54,11.19,2.01,16.81,1.39
				c6.77-0.75,14.41-4.28,15.49-11.01c0.7-4.36-1.63-8.57-2.63-12.87c-2.56-10.99,3.58-22.87,0.08-33.59
				c-4.46-13.65-22.39-17.57-32.79-8.03c-7.49,6.87-3.83,19.19-3.79,28.06c0.02,4.59-0.32,9.17-1.16,13.69
				C1374.14,739.76,1371.47,745.25,1373.06,749.97z"/>
		</g>
		<path class="st1" d="M1357.66,1445.32l1.76,15.87c0.63,5.72-3.8,10.74-9.56,10.82l-56.82,0.74c-7,0.09-9.02-9.49-2.58-12.22
			c7.34-3.12,14.53-6.6,21.53-10.44c8.66-4.75,9.94-11.74,19.89-9.9c1.58,0.29,12.24,0.93,19.08-0.01
			C1354.26,1439.71,1357.29,1442.01,1357.66,1445.32z"/>
		<path class="st1" d="M1395.64,1445.29l-1.77,15.87c-0.64,5.72,3.79,10.74,9.55,10.82l56.82,0.78c7,0.1,9.03-9.48,2.59-12.22
			c-7.34-3.12-14.53-6.61-21.52-10.45c-8.66-4.76-9.93-11.75-19.89-9.92c-1.58,0.29-12.24,0.92-19.08-0.03
			C1399.04,1439.68,1396.01,1441.98,1395.64,1445.29z"/>
	</g>
	<g>
		<path class="st2" d="M1174.75,839.38c1.25-0.25,2.66-0.3,3.67,0.48c1.62,1.23,1.31,3.84,0.18,5.53c-1.13,1.69-2.85,2.94-3.91,4.67
			c-0.32,0.52-0.57,1.21-0.22,1.72c0.36,0.53,1.13,0.52,1.77,0.44c9.29-1.19,18.82-4.96,27.8-3.53c2.31,0.37,2.91,3.51,0.94,4.79
			c-4.93,3.19-13.02,3.37-15.87,8.75c4.7,0.22,9.37-0.72,14.08-0.91c4.7-0.19,9.71,0.48,13.38,3.43c0.4,0.32,0.8,0.7,0.96,1.19
			c0.43,1.3-0.96,2.45-2.22,2.97c-7.44,3.04-16.75-0.52-23.52,3.8c3.78,1.07,7.56,2.14,11.34,3.22c3.98,1.13,8.33,2.56,11.18,5.35
			c1.55,1.52,0.69,4.14-1.44,4.52c-3.66,0.64-7.68-0.29-11.24-1.63c-4.82-1.81-9.52-4.34-14.66-4.59
			c5.11,3.11,10.22,6.21,15.33,9.32c0.79,0.48,1.67,1.11,1.72,2.03c0.04,0.71-0.45,1.34-1,1.8c-2.66,2.23-6.71,1.74-9.84,0.23
			c-3.12-1.51-5.78-3.89-8.93-5.33c-4.41-2.02-9.42-2.07-14.22-2.77s-9.9-2.37-12.55-6.42c-1.39-2.12-2.11-4.88-4.31-6.13
			c-1.32-0.75-2.91-0.79-4.43-0.91c-3.82-0.29-7.75-1.25-10.7-3.69c-3.69-3.05-5.44-9.02-1.69-12.71c3.42-3.36,6.34-0.92,10.28-0.73
			C1158.4,854.8,1164.05,841.55,1174.75,839.38z"/>
		<path class="st6" d="M794.01,638.52c0.44-17.99,11.95-35.24,28.37-42.59c9.53-4.26,21.04-5.86,27.54-14.02
			c0.24,2.85,0.49,5.71,0.73,8.56c6.81-2.72,13.08-6.75,18.38-11.81c2.39,2.35,0.66,7,3.07,9.32c0.77,0.74,1.82,1.08,2.82,1.47
			c10.36,4.01,17.13,14.53,19.34,25.42c2.21,10.88,0.55,22.16-1.67,33.05c-1.26,6.14-2.77,12.43-6.41,17.53
			c-3.79,5.31-9.52,8.86-15.22,12.05c-6.23,3.48-12.75,6.75-19.81,7.78c-12.86,1.87-29.41,0.08-39.48-8.61
			C800.64,667.15,793.65,653.24,794.01,638.52z"/>
		<path class="st6" d="M911.64,1439.5c-8.03,0.49-16.06,0.96-24.09,1.4c0.37-124.18-23.56-248.44-47.47-370.76
			c-2.46,32.75-4.84,65.48-6.16,98.29c-2.29,56.6-1.46,113.33-0.63,169.99c0.51,35.08,1.03,70.14,1.56,105.2
			c-5.54,0.27-11.08,0.54-16.62,0.81c-12.19-75.03-29.17-149.2-40.1-224.44c-11.63-80.13-16.27-162.4-0.69-241.79
			c42.78-5.25,86.24-4.45,128.85,2.34c0.26,0.03,0.52,0.09,0.8,0.12c37.91,117.04,35.56,244.55,20.06,367.13
			C923.26,1378.53,918.44,1409.3,911.64,1439.5z"/>
		<path class="st2" d="M884.06,671.06c-3.57,14.46-9.56,28.56-19.29,39.83c-3.82,4.42-8.42,8.5-14.07,9.97
			c-6.57,1.71-13.71-0.45-19.19-4.44c-5.48-4-9.53-9.66-12.95-15.52c-13.78-23.6-18.75-52.22-13.73-79.09
			c0.39-2.09,0.86-4.22,1.99-6.02c0.97-1.55,2.38-2.77,3.87-3.83c10.07-7.08,23.5-6.59,35.69-4.92c13.28,1.82,32.01,5.1,41.15,16.14
			c4.52,5.45,1.81,13.9,1.09,20.5C887.61,652.89,886.28,662.07,884.06,671.06z"/>
		<path class="st1" d="M761.29,750.47c-1.75,6.08-0.94,14.33-1.08,20.25c0,77.2-0.39,153.98,2.8,231.02c0.2,4.74,2.47,4.27,6.53,4.3
			c4.88,0.04,9.75,0.08,14.63,0.11c9.48,0.07,18.96,0.15,28.45,0.22c15.91,0.12,31.83,0.25,47.72,1.02
			c20.98,1.01,42.01,3.15,62.95,1.45c0.53-0.04,1.08-0.1,1.51-0.42c0.58-0.44,0.74-1.23,0.84-1.95c3.05-21.35,5.85-42.74,6.64-64.35
			c0.81-21.85,0.39-43.73,0.62-65.59c0.23-22.29,0.46-44.59,0.69-66.88c0.11-10.95-0.26-21.89-0.25-32.83
			c0-8.08,3.03-18.84,0.42-26.45c-2.59-7.54-11.65-10.12-19.22-12.64c-8.51-2.84-16.56-6.93-25.02-9.91
			c-20.78-7.33-43.57-7.78-65.24-3.84c-16.32,2.96-32.1,8.34-47.32,14.86c-5.61,2.4-12.51,3.91-14.98,9.69
			C761.71,749.14,761.48,749.79,761.29,750.47z"/>
		<path class="st13" d="M824.27,723.97c0,0-29.53,140.55-11.65,282.41l60.92,3.1c0,0,27.58-226.69-9.93-285.51H824.27z"/>
		<path class="st2" d="M881.52,667.47c0.66,1,1.4,2.01,2.44,2.59c1.74,0.98,4.01,0.56,5.65-0.56c1.65-1.12,2.79-2.84,3.77-4.58
			c1.77-3.13,3.17-6.54,3.49-10.12c0.32-3.58-0.54-7.37-2.86-10.11c-2.33-2.74-6.24-4.23-9.68-3.2c-3.05,0.92-5.31,3.61-6.49,6.57
			C875.03,655.15,877.52,661.35,881.52,667.47z"/>
		<path class="st2" d="M808.18,672.78c-0.66,1-1.4,2.01-2.44,2.59c-1.74,0.98-4.01,0.56-5.65-0.56c-1.65-1.12-2.79-2.84-3.77-4.58
			c-1.77-3.13-3.17-6.54-3.49-10.12c-0.32-3.58,0.54-7.37,2.86-10.11c2.33-2.74,6.24-4.23,9.68-3.2c3.05,0.92,5.31,3.61,6.49,6.57
			C814.68,660.47,812.19,666.66,808.18,672.78z"/>
		<path class="st2" d="M866.55,747.15c-1.38,4.1-5.78,6.32-9.93,7.5c-5.44,1.54-11.19,2.01-16.81,1.39
			c-6.77-0.75-14.41-4.28-15.49-11.01c-0.7-4.36,1.63-8.57,2.63-12.87c2.56-10.99-3.58-22.87-0.08-33.59
			c4.46-13.65,22.39-17.57,32.79-8.03c7.49,6.87,3.83,19.19,3.79,28.06c-0.02,4.59,0.32,9.17,1.16,13.69
			C865.47,736.93,868.13,742.42,866.55,747.15z"/>
		<path class="st14" d="M793.53,839.25c0-1.34,0-2.67,0-4.01"/>
		<path class="st1" d="M894.64,744.07c9.6-13.7,25.14-4.88,37.14,1.8c71.41,39.75,144.36,81.48,223.18,100.09
			c0.04,0.4,0.08,0.8,0.12,1.2c-1.11,8.36-2.43,16.68-3.98,24.95c-11.64,2.02-23.49,2.96-35.28,2.82c-24-0.28-46.82-6.48-70.92-8.32
			c-25.57-1.95-51.07-6.19-75.35-14.44c-12.49-4.24-24.69-9.58-35.58-17.01c-16.19-11.05-29.18-26.74-37.12-44.65
			C890.27,775.68,884.11,759.11,894.64,744.07z"/>
		<path class="st6" d="M809.01,639.62c3.83-8.99,14.44-12.77,24.06-14.46c9.62-1.7,20.1-2.59,27.47-9c0.77-0.67,1.7-1.46,2.7-1.19
			c0.71,0.19,1.17,0.87,1.58,1.48c2.45,3.67,5.6,6.88,9.22,9.41c2.68,1.87,5.74,3.49,7.37,6.31c1.35,2.33,1.51,5.14,1.64,7.83
			c0.19,3.89,0.37,7.77,0.56,11.66c7.78-8.36,8.62-21.81,3.45-32c-5.18-10.18-15.5-17.14-26.55-20.03s-22.79-2.08-33.95,0.34
			c-6.34,1.37-12.68,3.3-18.11,6.85s-9.92,8.92-11.28,15.27c-1.59,7.41,1.29,14.21,4.54,20.69c1.62,3.23,3.13,8.04,5.91,10.28
			C808.21,648.49,807.08,644.16,809.01,639.62z"/>
		<path class="st1" d="M701.07,809.42c-12.87,20.34-22.86,44.21-19.15,68c2.79,17.92,13.18,33.95,26.13,46.65
			c12.94,12.7,52.16,48.99,67.5,58.66c-7.54-25.52-38.87-79.1-32.18-104.86c4.28-16.49,14.06-30.9,23.04-45.38
			c8.98-14.48,17.5-30,18.74-46.99c0.8-10.93-2.09-22.94-9.01-31.62c-8.99-11.28-16.66-7.95-26.56,0.2
			C730.62,769.68,714.2,788.67,701.07,809.42z"/>
		<path class="st12" d="M843.8,1439.04l1.76,15.87c0.63,5.72-3.8,10.74-9.56,10.82l-56.82,0.74c-7,0.09-9.02-9.49-2.58-12.22
			c7.34-3.12,14.53-6.6,21.53-10.44c8.66-4.75,9.94-11.74,19.89-9.9c1.58,0.29,12.24,0.93,19.08-0.01
			C840.41,1433.43,843.43,1435.73,843.8,1439.04z"/>
		<path class="st12" d="M881.78,1439.01l-1.77,15.87c-0.64,5.72,3.79,10.74,9.55,10.82l56.82,0.78c7,0.1,9.03-9.48,2.59-12.22
			c-7.34-3.12-14.53-6.61-21.52-10.45c-8.66-4.76-9.93-11.75-19.89-9.92c-1.58,0.29-12.24,0.92-19.08-0.03
			C885.18,1433.4,882.15,1435.7,881.78,1439.01z"/>
		<path class="st9" d="M831.99,659.99c-0.36-1.67-0.86-3.96-2.84-4.36c-0.32-0.06-0.64-0.02-0.95,0.07
			c-0.92,0.08-1.65,0.77-1.67,1.72c-0.06,2.92,0.68,5.82,2.1,8.38c0.59,1.06,2.46,1.21,3,0c0.43-0.96,0.67-1.93,0.7-2.99
			C832.34,661.87,832.19,660.91,831.99,659.99z"/>
		<path class="st9" d="M864.17,654.88c-0.18-0.53-0.61-1.13-1.21-1.21c-0.36-0.05-0.7-0.05-1.03,0.01
			c-0.34-0.11-0.71-0.14-1.02-0.05c-0.61,0.17-1.02,0.63-1.21,1.21c-0.38,1.1-0.58,2.27-0.62,3.44c-0.02,0.53,0,1.07,0.06,1.6
			c0.07,0.65,0.14,1.29,0.4,1.9c0.3,0.71,0.86,1.31,1.64,1.49c1.03,0.24,2.01-0.28,2.54-1.15c0.61-1,0.83-2.32,0.93-3.47
			C864.74,657.39,864.57,656.07,864.17,654.88z"/>
		<path class="st7" d="M865.08,678.79c-9.25,5.21-17.29,12.33-28.82,11.84C846.71,688.84,855.93,683.94,865.08,678.79z"/>
	</g>
	<g>
		<path class="st2" d="M959.16,601.2c0.36-1.22,0.52-2.63-0.16-3.7c-1.09-1.72-3.71-1.63-5.5-0.65c-1.78,0.98-3.17,2.59-4.99,3.5
			c-0.55,0.27-1.26,0.46-1.73,0.08c-0.5-0.41-0.42-1.17-0.28-1.8c1.98-9.15,6.55-18.33,5.89-27.4c-0.17-2.34-3.25-3.2-4.69-1.35
			c-3.6,4.64-4.47,12.68-10.07,15.07c0.19-4.7,1.52-9.28,2.11-13.95c0.59-4.67,0.35-9.72-2.27-13.62c-0.29-0.43-0.63-0.86-1.1-1.06
			c-1.26-0.54-2.53,0.74-3.15,1.96c-3.66,7.15-0.91,16.73-5.79,23.11c-0.75-3.86-1.49-7.72-2.24-11.57
			c-0.79-4.07-1.84-8.52-4.38-11.6c-1.38-1.67-4.07-1.04-4.62,1.05c-0.95,3.59-0.37,7.67,0.66,11.34c1.4,4.95,3.51,9.86,3.32,15
			c-2.66-5.36-5.32-10.71-7.98-16.07c-0.41-0.83-0.96-1.76-1.88-1.89c-0.7-0.1-1.37,0.34-1.88,0.84c-2.45,2.46-2.31,6.54-1.07,9.78
			c1.24,3.24,3.38,6.09,4.55,9.36c1.63,4.56,1.26,9.56,1.55,14.4c0.29,4.84,1.51,10.07,5.33,13.06c1.99,1.56,4.68,2.52,5.74,4.82
			c0.64,1.38,0.54,2.97,0.53,4.49c-0.04,3.83,0.58,7.82,2.76,10.97c2.73,3.93,8.52,6.19,12.52,2.77c3.64-3.12,1.45-6.24,1.6-10.18
			C942.4,616.18,956.09,611.68,959.16,601.2z"/>
		<path class="st12" d="M1064.08,1072.22c-2.83,1.56-5.67,3.12-8.51,4.59c-20.02,10.39-40.41,20.08-61.12,29.04
			c13.01-33.57,17.82-70.28,13.91-106.07c-20-10.88-64.01-31.18-75.13-1.82c-12.46,32.88-13.28,70.05-12.74,104.75
			c0.52,33.45,3.54,68.96,23.37,95.91c39.09-6.89,73.36-31.33,99.46-61.24c12.36-14.16,23.1-29.55,32.98-45.54
			C1071.85,1085.57,1067.96,1078.91,1064.08,1072.22z"/>
		<path class="st15" d="M1186.64,1117.33c-23.07,11.82-48.19,19.64-73.93,22.77c-3.33-46.41-19.95-91.79-47.38-129.36
			c-1.53-2.09-3.12-4.19-5.19-5.74c-2.78-2.07-6.21-3.01-9.58-3.83c-21.78-5.32-53.28-12.14-75.53-6.37
			c-19.01,4.93-9.98,30.23-7.3,46.14c7.17,42.63,23.52,83.68,47.48,119.65c13,19.52,28.26,37.55,45.48,53.48
			c2.5,2.31,5.16,4.65,8.43,5.58c3.19,0.91,6.6,0.38,9.86-0.26c50.05-9.79,91.82-42.48,123.06-83.67
			C1196.82,1129.68,1191.66,1123.57,1186.64,1117.33z"/>
		<path class="st6" d="M973.2,821.4c-6.5-12.47-8.55-28.28-7.29-43.32c1.11-13.37,4.68-26.69,3.14-39.96
			c-1.47-12.68-7.55-25.02-4.97-37.45c2.94-14.2,15.39-20.66,23.05-31.52c8.02-11.37,10.62-27.53,17.52-40.08
			c8.03-14.6,22.03-23.31,35.76-22.24c13.73,1.07,26.71,11.87,33.16,27.6c2.85,6.94,5.09,15.49,10.76,18.26
			c3.18,1.55,6.73,0.82,10.11,0.24c9.42-1.62,19.34-1.83,27.97,3.21c8.84,5.16,15.62,15.86,17.83,28.13c2.54,14.1-0.76,29-5.65,42.1
			c-4.89,13.1-11.36,25.17-15.76,38.55c-0.77,2.32-1.43,5.17-0.3,7.2c1.4,2.53,4.38,1.91,6.7,1.05c17.36-6.4,35.72-10.64,53.33-5.94
			c16.21,4.32,31.09,16.37,41.19,33.36c7.16,12.03,11.96,26.68,12.58,41.92c0.98,24.27-8.62,47.51-21.01,65.86
			c-14.46,21.41-33.78,38.39-55.4,42.63c-31.11,6.11-61.22-14.31-87.91-35.61c-14.05-11.22-28.11-23.13-38.67-39.57
			c-7.47-11.64-14.01-27.12-25.55-32.67c-5.35-2.57-11.02-2.32-16.31-5.62C981.75,833.92,976.76,828.25,973.2,821.4z"/>
		<path class="st2" d="M1071.98,669.41c-0.78-0.91-1.65-1.81-2.76-2.25c-1.85-0.74-4.04-0.04-5.53,1.29
			c-1.49,1.33-2.4,3.18-3.14,5.03c-1.35,3.34-2.3,6.9-2.15,10.49c0.15,3.59,1.49,7.24,4.15,9.66s6.73,3.39,10.01,1.91
			c2.9-1.31,4.8-4.27,5.58-7.36C1080.02,680.77,1076.75,674.95,1071.98,669.41z"/>
		<path class="st14" d="M1058.51,861.41c0.02-1.34,0.04-2.67,0.06-4.01"/>
		<path class="st8" d="M1148.08,845.84c0.54,0.28,1.08,0.56,1.62,0.84"/>
		<g>
			<defs>
				<path id="SVGID_5_" d="M1299.1,721.05c-29.79,15.77-61.82,27.51-94.49,35.95c-37.24,9.62-75.39,15.06-113.66,18.46
					c-4.63-0.71-8.9-1.29-12.35-1.88c-13.43-2.28-27.01-3.71-40.62-4.27c-4.02-4.93-14.84-10.07-19.33-13.98
					c-6.42-5.59-12.42-11.64-18.03-18.04c-11.49-13.11-21.26-27.71-29.35-43.14c-11.74-22.39-19.97-46.4-26.04-70.98
					c-7.15,1.92-14.03,4.88-20.86,8.44c-3.08,18.01-3.3,36.64-1.46,54.83c3.34,33.06,13.05,65.1,22.95,96.82
					c4.2,13.45,8.68,27.19,16.32,38.89c-2.23,5.54-4.29,11.15-6.32,16.76c-15.87,43.75-31.9,88.27-34.46,134.74
					c-0.09,1.69-0.15,3.47,0.59,4.99c0.81,1.66,2.44,2.74,4,3.72c47.64,29.89,107.27,40.02,162.1,27.54
					c-6.53-18.51-4.76-38.87-1.34-58.2c5.91-33.41,16.57-65.98,31.51-96.44c25.31-5.2,49.88-14.47,72.84-26.43
					c35.58-18.53,67.57-43.3,97.56-69.94c8.36-7.42,16.61-15.07,24.43-23.1C1308.35,730.95,1303.7,726.02,1299.1,721.05z"/>
			</defs>
			<clipPath id="SVGID_6_">
				<use xlink:href="#SVGID_5_"  style="overflow:visible;"/>
			</clipPath>
			<path class="st16" d="M1299.1,721.05c-29.79,15.77-61.82,27.51-94.49,35.95c-37.24,9.62-75.39,15.06-113.66,18.46
				c-4.63-0.71-8.9-1.29-12.35-1.88c-13.43-2.28-27.01-3.71-40.62-4.27c-4.02-4.93-14.84-10.07-19.33-13.98
				c-6.42-5.59-12.42-11.64-18.03-18.04c-11.49-13.11-21.26-27.71-29.35-43.14c-11.74-22.39-19.97-46.4-26.04-70.98
				c-7.15,1.92-14.03,4.88-20.86,8.44c-3.08,18.01-3.3,36.64-1.46,54.83c3.34,33.06,13.05,65.1,22.95,96.82
				c4.2,13.45,8.68,27.19,16.32,38.89c-2.23,5.54-4.29,11.15-6.32,16.76c-15.87,43.75-31.9,88.27-34.46,134.74
				c-0.09,1.69-0.15,3.47,0.59,4.99c0.81,1.66,2.44,2.74,4,3.72c47.64,29.89,107.27,40.02,162.1,27.54
				c-6.53-18.51-4.76-38.87-1.34-58.2c5.91-33.41,16.57-65.98,31.51-96.44c25.31-5.2,49.88-14.47,72.84-26.43
				c35.58-18.53,67.57-43.3,97.56-69.94c8.36-7.42,16.61-15.07,24.43-23.1C1308.35,730.95,1303.7,726.02,1299.1,721.05z"/>
			<g class="st17">
				<path class="st1" d="M953.6,757.28c-0.38,0.63-0.32,1.59,0.24,2.11c4.54,4.21,10.5-0.49,14.4-3.26
					c5.37-3.81,10.54-7.91,15.47-12.27c9.95-8.8,18.87-18.71,26.69-29.44c1.32-1.81-1.67-3.59-2.98-1.8
					c-6.92,9.49-14.75,18.28-23.38,26.25c-4.18,3.86-8.55,7.53-13.09,10.97c-2.44,1.86-4.94,3.65-7.48,5.37
					c-1.42,0.96-3.94,2.71-5.91,2.34c10.18-16.27,25.22-29.1,42.93-36.54c2.06-0.86,0.34-3.89-1.71-3.03
					C980.02,725.88,964.06,739.8,953.6,757.28z"/>
				<path class="st1" d="M958.21,704.25c-3.95,2.58-7.63,5.55-11.65,8.02c-1.87,1.15-3.82,2.22-5.88,2.98
					c-1.94,0.72-5.01,1.82-7.09,1.24c-2.84-0.79,0.92-4.12,1.98-5.01c2.19-1.84,4.44-3.61,6.68-5.39c4.08-3.24,8.18-6.44,12.15-9.8
					c3.96-3.35,7.81-6.84,11.35-10.64c2.78-2.99,5.5-6.53,4.24-10.85c-1.08-3.68-4.56-6.48-8.25-7.24
					c-4.69-0.97-9.42,0.78-13.53,2.93c-8.84,4.63-16.41,11.66-21.87,20c-2.72,4.16-4.88,8.66-6.48,13.36
					c-1.79,5.23-3.06,10.88-6.59,15.28c-1.39,1.72,1.02,4.24,2.42,2.49c5.57-6.93,6.51-16.07,10.45-23.85
					c3.86-7.62,9.45-14.34,16.26-19.5c5.45-4.13,18.95-12.82,23.81-3.54c2.3,4.38-2.84,8.45-5.6,11.2
					c-3.5,3.48-7.23,6.71-11.04,9.84c-3.82,3.14-7.72,6.18-11.59,9.26c-3.08,2.46-7.56,5.08-8.74,9.11
					c-1.21,4.11,2.47,6.07,6.03,5.82c3.99-0.29,7.76-1.71,11.23-3.64c7.9-4.39,14.51-10.52,22.88-14.17
					c2.21-0.96,4.49-1.79,6.8-2.48c2-0.6,4.47-1.55,6.59-1.1c5.29,1.11-2.31,9.51-4.02,11.11c-3.88,3.63-8.48,6.44-12.86,9.4
					c-5.04,3.41-10.08,6.82-15.11,10.23c-10.32,6.98-20.63,13.96-30.95,20.94c-1.84,1.24-0.15,4.28,1.71,3.03
					c9.72-6.57,19.43-13.15,29.15-19.72c9.09-6.15,18.61-11.95,27.29-18.68c3.53-2.74,6.91-6.01,8.91-10.07
					c1.69-3.44,1.71-8.08-2.62-9.43c-4-1.24-8.9,0.8-12.61,2.16C966.94,699.27,962.42,701.5,958.21,704.25z"/>
				<path class="st1" d="M1261.51,734.5c-3.51-1.41-7.45-1.19-11.14-0.87c-4.18,0.37-8.32,1.08-12.38,2.14
					c-17.17,4.44-32.42,14.28-46.2,25.16c-14.24,11.25-27.46,23.78-40.44,36.44c-26.27,25.64-51.6,52.64-81.43,74.25
					c-3.54,2.57-7.11,5.22-10.87,7.46c-2.52,1.51-6.44,3.4-9.25,1.89c14.75-18.87,32.64-34.97,50.77-50.52
					c18.49-15.86,37.43-31.33,54.12-49.14c4.11-4.38,8.07-8.9,11.83-13.57c3.34-4.16,7.97-8.88,8.41-14.48
					c0.47-5.9-5.08-8.18-10.09-7.69c-6,0.58-11.85,2.57-17.27,5.16c-11.44,5.46-21.26,13.89-30.88,22.01
					c-10.48,8.85-20.7,18.01-30.72,27.38c-20.07,18.75-39.34,38.32-58.48,58.02c-19.15,19.72-38.17,39.57-57.73,58.88
					c-18.38,18.15-37.23,37.41-61.09,48.26c-3.32,1.51-9.11,3.28-12.34,0.59c-2.3-1.92-0.29-4.91,1.1-6.72
					c1.86-2.42,3.83-4.76,5.82-7.07c7.65-8.89,16.03-17.13,24.8-24.92c17.69-15.72,36.9-29.59,55.7-43.92
					c18.71-14.25,37.2-29.03,53.15-46.39c3.81-4.14,7.44-8.43,10.92-12.84c1.06-1.34-0.63-2.76-1.92-2.58
					c-9.31,1.31-17.94,5.29-25.95,10.08c-7.99,4.78-15.6,10.21-23.04,15.8c-15.23,11.43-29.61,23.94-44.11,36.27
					c-14.57,12.39-29.3,24.64-45.15,35.36c-3.75,2.54-7.87,5.95-12.42,6.81c-1.93,0.36-4.08,0.05-5.66-1.19
					c-2.23-1.74-1.83-4.32-0.67-6.61c3.8-7.5,9.79-14.3,15.68-20.22c11.93-11.99,26.25-21.27,40.94-29.5
					c16.09-9.02,32.74-17.05,49.06-25.64c36-18.94,71.41-39.05,105.51-61.24c15.38-10.01,31.08-20.09,44.6-32.57
					c6.22-5.75,11.95-12.09,16.67-19.14c2.37-3.55,4.5-7.29,6.24-11.2c1.44-3.23,2.32-7.25-0.59-9.98
					c-5.31-4.99-13.96,1.03-18.62,3.93c-7.5,4.66-14.83,9.59-22.05,14.66c-14.42,10.13-28.42,20.82-42.66,31.19
					c-14,10.19-28.26,20.1-43.31,28.71c-14.9,8.52-30.89,16.27-47.57,20.58c-3.44,0.89-9.16,1.24-8.78-3.91
					c0.29-3.91,3.34-7.49,5.79-10.34c4.74-5.52,10.49-10.04,16.56-14c12.34-8.07,25.93-14.11,37.76-22.98
					c10.48-7.86,23.07-20.71,19.83-35.18c-1.63-7.28-8.41-11.43-15.66-10.56c-8.94,1.08-16.44,7.37-23.51,12.42
					c-16.86,12.03-33.51,24.34-49.95,36.93c-8.22,6.29-16.38,12.65-24.49,19.08c-7.5,5.95-14.9,12.08-22.86,17.42
					c-7.43,4.99-15.36,9.25-23.98,11.77c-2.14,0.62-1.28,3.99,0.87,3.37c17.78-5.19,32.18-17.18,46.42-28.49
					c16.41-13.05,33.05-25.82,49.9-38.3c8.32-6.16,16.69-12.24,25.11-18.26c7.06-5.04,15.48-12.66,24.7-12.61
					c8.66,0.04,11.51,8.43,9.93,15.69c-1.59,7.32-6.36,13.28-11.68,18.33c-10.73,10.18-24.37,16.53-36.99,23.96
					c-6.23,3.66-12.34,7.62-17.8,12.36c-2.78,2.41-5.37,5.04-7.69,7.91c-2.28,2.81-4.6,5.88-5.42,9.48
					c-0.77,3.36,0.03,6.98,3.17,8.85c3.16,1.88,7.2,1.13,10.53,0.2c8.2-2.3,16.21-5.34,24-8.75c15.76-6.9,30.62-15.69,44.91-25.24
					c29.22-19.53,56.21-42.26,86.06-60.88c3.26-2.03,6.55-4.48,10.36-5.33c1.38-0.31,3.21-0.56,4.46,0.3
					c2.09,1.43,0.97,4.36,0.16,6.21c-3.51,7.97-8.74,15.24-14.58,21.66c-12.07,13.28-27.07,23.47-41.91,33.37
					c-33.84,22.58-69.08,43.02-104.95,62.18c-16.82,8.98-33.91,17.44-50.74,26.4c-6.57,3.5-13.1,7.16-19.45,11.08
					c8.6-5.77,16.53-12.5,23.54-20.13c3.51-3.82,6.79-7.85,9.83-12.05c2.91-4.03,6.13-8.32,7.91-13c1.57-4.14,0.99-8.91-3.28-11.1
					c-4.23-2.18-9.73-1.29-14,0.29c-9.7,3.59-18.07,11.1-25,18.58c-4.05,4.36-7.76,9.03-11.32,13.8c-2.63,3.53-8.36,9.23-5.28,13.95
					c0.44,0.67,1.16,1,1.95,0.83c0.94-0.21,1.88-0.41,2.82-0.62c2.18-0.48,1.31-3.85-0.87-3.36c-0.41,0.09-0.83,0.18-1.24,0.27
					c-0.11-1.58,1.23-3.26,2.11-4.48c1.36-1.91,2.75-3.8,4.16-5.67c2.81-3.73,5.73-7.37,8.86-10.85
					c6.07-6.75,13.01-13.18,21.11-17.43c3.87-2.03,8.58-3.71,13-2.89c5.59,1.03,4.7,6.15,2.54,10.04
					c-4.25,7.66-9.79,14.78-15.7,21.22c-6.89,7.5-14.65,14.14-23.11,19.8c-1.8,1.21-0.23,4.1,1.58,3.08
					c-7.82,4.84-15.37,10.1-22.39,16.06c-6.34,5.39-12.17,11.35-17.25,17.94c-2.56,3.31-5.2,6.83-7.06,10.6
					c-1.75,3.54-1.93,7.61,1.22,10.42c6.98,6.22,16.04-0.65,22.07-4.72c7.74-5.22,15.22-10.8,22.54-16.58
					c29.84-23.55,57.03-51.15,89.74-70.86c6.47-3.9,13.28-7.2,20.59-8.98c-14.06,17.01-30.77,31.64-48.06,45.29
					c-18.59,14.67-37.94,28.36-56.25,43.39c-9.08,7.46-17.89,15.25-26.14,23.61c-4.08,4.13-8.01,8.41-11.77,12.84
					c-1.87,2.21-3.75,4.44-5.48,6.75c-1.58,2.11-2.87,4.64-2.3,7.35c0.84,3.96,4.93,5.45,8.56,5.59c5.18,0.21,9.76-2.08,14.25-4.38
					c11.34-5.79,21.6-13.51,31.19-21.85c9.99-8.69,19.41-18.04,28.81-27.37c9.76-9.68,19.38-19.49,28.97-29.33
					c19.17-19.69,38.16-39.56,57.66-58.93c19.46-19.34,39.44-38.19,60.5-55.79c9.74-8.14,19.91-16.61,31.96-21.11
					c2.8-1.05,5.69-1.87,8.64-2.41c2.56-0.47,7.15-1.36,8.66,1.55c1.36,2.63-0.9,6.14-2.37,8.24c-1.8,2.56-3.79,5-5.77,7.42
					c-15.43,18.87-33.89,34.93-52.38,50.7c-18.52,15.8-37.33,31.46-53.61,49.64c-3.88,4.33-7.59,8.8-11.13,13.4
					c-0.47,0.61-0.24,1.59,0.24,2.11c5.78,6.26,14.81-0.34,20.03-3.94c7.29-5.02,14.34-10.39,21.18-16
					c14.18-11.61,27.47-24.25,40.53-37.09c13.03-12.8,25.85-25.81,39.18-38.3c13.24-12.4,26.91-24.75,42.25-34.53
					c7.36-4.7,15.17-8.81,23.44-11.64c4.15-1.42,8.41-2.53,12.74-3.25c4.03-0.67,8.55-1.36,12.61-0.61
					c1.56,0.29,3.26,0.82,4.33,2.06c1.69,1.94,1.01,4.64,0.13,6.79c-1.72,4.2-4.48,8.1-7.34,11.58
					c-6.06,7.4-13.25,13.92-20.05,20.63c-28.91,28.57-57.97,57.01-88.45,83.91c-15,13.24-30.19,26.5-46.58,38.02
					c-15.92,11.2-33.24,19.68-51.09,27.32c-13.76,5.89-27.92,11.58-41.52,18.25c4.49-4.83,8.94-9.71,13.29-14.67
					c4.51-5.15,8.89-10.4,13.11-15.79c2.06-2.63,4.08-5.3,6.05-8c1.71-2.35,3.54-4.66,4.69-7.34c1.78-4.14,1.61-10-3.88-10.91
					c-2.63-0.44-5.19,0.72-7.53,1.78c-2.59,1.18-5.14,2.46-7.64,3.82c-19.8,10.81-36.08,26.83-51.05,43.47
					c-15.25,16.97-29.35,35.22-46.08,50.8c-2.01,1.87-5.36,4.65-8.14,2.77c-1.86-1.26-3.65,1.72-1.8,2.98
					c4.73,3.2,9.93-0.91,13.32-4.17c4-3.85,7.86-7.83,11.64-11.89c7.62-8.19,14.89-16.7,22.21-25.15
					c14.41-16.65,29.15-33.5,47.06-46.53c4.39-3.19,8.95-6.14,13.69-8.78c2.29-1.28,4.63-2.48,7-3.6c2.06-0.97,6.87-3.82,8.53-0.92
					c1,1.74-0.19,4.44-1,6c-1.46,2.78-3.56,5.3-5.42,7.81c-4.06,5.47-8.32,10.78-12.72,15.98c-7.9,9.33-16.22,18.3-24.67,27.16
					c-14.74,7.97-28.52,17.46-39.94,30.1c-5.43,6.01-10.22,12.64-13.95,19.84c-1.38,2.65-2.75,5.74-3.44,8.9
					c-2.36,2.39-4.69,4.81-7.08,7.17c-10.29,10.17-21.14,19.84-33.5,27.46c-1.9,1.17-0.2,4.21,1.71,3.03
					c14.28-8.8,26.7-20.17,38.53-32.11c0.17,1.42,0.52,2.82,1.22,4.14c1.43,2.73,4.32,4.35,7.39,4.29
					c4.25-0.08,8.12-2.88,11.63-4.98c7.39-4.44,14.59-9.2,21.65-14.14c27.9-19.53,53.74-41.98,82.82-59.81
					c14.35-8.8,29.57-16.58,45.68-21.61c4.65-1.45,14.76-3.21,16.77,3.13c1.38,4.34-2.63,8.75-5.07,11.92
					c-2.48,3.22-5.08,6.35-7.76,9.41c-21.27,24.35-47.56,44.5-65.32,71.83c-4.2,6.46-7.78,13.27-10.68,20.4
					c-0.53,1.32,0.93,2.41,2.11,2.17c12.71-2.55,23.98-10.1,31.3-20.77c1.27-1.85-1.71-3.64-2.97-1.8
					c-6.15,8.97-15.35,15.41-25.75,18.34c12.86-29.03,37.71-50.33,59.58-72.52c5.79-5.88,11.46-11.88,16.78-18.19
					c2.52-2.99,4.99-6.04,7.31-9.19c2.53-3.42,5.02-7.57,3.98-12c-1.48-6.32-8.55-7.86-14.16-7.44c-7.49,0.57-14.85,3.92-21.7,6.78
					c-31.49,13.14-58.65,34.35-85.59,54.86c-13.84,10.53-27.74,21.02-42.38,30.43c-3.52,2.26-7.09,4.47-10.7,6.58
					c-3.17,1.86-8.69,5.29-11.55,1.16c-1.27-1.83-1.36-4.32-1.05-6.62c6.05-6.2,11.98-12.5,17.96-18.64
					c12.76-13.11,25.71-26.1,38.35-39.37c10.28-5.54,20.97-10.34,31.42-14.78c17.94-7.63,36.17-14.8,53.13-24.51
					c16.98-9.72,32.28-22.03,47.17-34.64c31.24-26.44,60.84-54.75,90.04-83.41c7.35-7.22,14.68-14.46,22-21.71
					c6.46-6.39,13.18-12.74,18.13-20.43c2.15-3.35,4.63-7.39,4.7-11.5C1267.01,738.66,1264.79,735.82,1261.51,734.5z M966.24,983.31
					c-6.57,6.75-13.12,13.53-19.71,20.28c0.82-1.68,1.76-3.3,2.68-4.89c9.7-16.7,24.11-29.13,40.28-39.16
					C981.76,967.48,973.97,975.38,966.24,983.31z"/>
				<path class="st1" d="M887.45,692.31c-3.33-3-1.4-7.55,0.86-10.55c2.31-3.06,5.07-5.86,7.75-8.6c5.31-5.43,11-10.48,17.02-15.11
					c12.15-9.35,25.7-17.01,39.98-22.57c6.35-2.47,12.86-4.52,19.47-6.18c-3.48,3.32-7.68,5.85-11.94,8.1
					c-6.12,3.24-12.33,6.25-18.35,9.69c-12.33,7.06-24.09,15.12-35.13,24.07c-6.4,5.18-12.54,10.67-18.43,16.43
					c-1.6,1.57,0.82,4.06,2.42,2.49c10.49-10.26,21.82-19.66,33.89-28.01c11.82-8.18,24.32-14.8,37.01-21.49
					c6.44-3.4,12.57-7.38,16.92-13.34c0.95-1.3-0.56-2.88-1.92-2.58c-32.4,6.98-62.54,23.91-85.3,48.01
					c-4.92,5.21-14.52,15.03-6.74,22.05C886.61,696.22,889.12,693.81,887.45,692.31z"/>
				<path class="st1" d="M1341.84,727.39c-18.17,12.92-37.53,24.13-57.81,33.39c-2.53,1.16-5.08,2.28-7.64,3.38
					c-1.81,0.77-5.34,2.73-7.29,1.33c-1.95-1.39-0.65-4.76-0.03-6.51c0.83-2.33,1.74-4.63,2.71-6.9
					c3.96-9.27,9.07-18.06,15.08-26.15c6.72-9.05,14.66-17.15,23.48-24.15c1.75-1.39-0.68-3.87-2.42-2.49
					c-17.04,13.52-30.56,31.21-39.2,51.17c-1.03,2.37-1.99,4.78-2.87,7.21c-0.78,2.18-1.52,4.58-1.08,6.92
					c0.99,5.21,6.44,5.33,10.49,3.78c11.43-4.38,22.53-10.11,33.25-15.98c12.1-6.63,23.8-13.98,35.04-21.97
					C1345.36,729.13,1343.67,726.09,1341.84,727.39z"/>
			</g>
		</g>
		<path class="st2" d="M1076.92,728.8c-3.79,14.4-9.99,28.41-19.89,39.54c-3.88,4.36-8.55,8.38-14.22,9.76
			c-6.59,1.61-13.7-0.65-19.12-4.73c-5.42-4.08-9.38-9.8-12.72-15.71c-13.43-23.81-17.97-52.49-12.55-79.28
			c0.42-2.08,0.92-4.2,2.08-5.99c0.99-1.53,2.42-2.74,3.93-3.77c10.17-6.93,23.59-6.24,35.76-4.39
			c13.25,2.02,31.93,5.58,40.91,16.75c4.44,5.52,1.6,13.93,0.78,20.52C1080.74,710.69,1079.28,719.84,1076.92,728.8z"/>
		<path class="st2" d="M1088.67,709.85c2.88,1.57,3.51,5.36,3.76,8.63c0.23,2.98,0.42,6.05-0.44,8.91
			c-0.62,2.06-1.77,3.93-3.11,5.61c-1.56,1.97-3.4,3.71-5.44,5.17c-1.52,1.09-3.27,2.05-5.14,1.98c-3.56-0.13-5.93-3.87-6.52-7.38
			C1070.7,726.38,1078.72,704.42,1088.67,709.85z"/>
		<path class="st2" d="M1059.39,788.67c-1.44,4.08-5.87,6.23-10.05,7.35c-5.47,1.46-11.22,1.84-16.83,1.13
			c-6.76-0.86-14.34-4.49-15.32-11.24c-0.63-4.37,1.75-8.54,2.82-12.83c2.72-10.95-3.24-22.92,0.43-33.59
			c4.67-13.59,22.65-17.23,32.91-7.54c7.38,6.98,3.54,19.24,3.36,28.12c-0.09,4.59,0.19,9.17,0.96,13.7
			C1058.47,778.44,1061.05,783.97,1059.39,788.67z"/>
		<path class="st6" d="M1020.66,696.4c0.65,0.03,1.32,0.06,1.91-0.21c0.81-0.38,1.25-1.25,1.65-2.05c2.57-5.15,5.78-9.97,9.55-14.32
			c0.65,3.28,1.3,6.56,1.95,9.84c0.28,1.39,0.61,2.89,1.7,3.8c0.99,0.83,2.38,0.97,3.66,1.11c13.84,1.45,27.26,6.8,38.29,15.27
			c7.47-7.28,8.35-19.14,6.08-29.33c-0.61-2.73-1.42-5.45-2.87-7.84c-2.93-4.83-8.1-7.76-13.06-10.46
			c-7.6-4.14-15.56-8.31-24.2-8.77c-4.62-0.25-9.22,0.59-13.77,1.42c-4.78,0.87-9.56,1.74-14.34,2.61c-2.6,0.47-5.24,0.96-7.62,2.1
			c-2.57,1.23-4.73,3.17-6.64,5.28c-5.57,6.13-11.93,17.79-9.56,26.49c1.2,4.42,4.76,3.88,8.82,4.09
			C1008.35,695.76,1014.51,696.08,1020.66,696.4z"/>
		<path class="st2" d="M1301.72,694.61c0.55-1.15,1.36-2.31,2.59-2.65c1.96-0.55,3.85,1.26,4.53,3.18c0.68,1.92,0.64,4.04,1.39,5.93
			c0.23,0.57,0.63,1.18,1.24,1.21c0.64,0.03,1.09-0.6,1.41-1.16c4.62-8.14,7.33-18.03,13.86-24.36c1.68-1.63,4.56-0.22,4.4,2.12
			c-0.41,5.85-5.11,12.44-2.52,17.95c2.99-3.63,5.05-7.93,7.72-11.81s6.21-7.48,10.77-8.64c0.5-0.13,1.04-0.22,1.53-0.06
			c1.29,0.44,1.39,2.24,1.04,3.56c-2.03,7.77-10.47,13.08-11.07,21.09c3.13-2.38,6.25-4.76,9.38-7.14
			c3.29-2.51,7.05-5.13,10.99-5.73c2.14-0.33,3.73,1.93,2.75,3.86c-1.68,3.31-4.84,5.97-8.05,8.02c-4.34,2.77-9.19,5.01-12.47,8.98
			c5.55-2.22,11.1-4.45,16.66-6.67c0.86-0.34,1.89-0.67,2.66-0.16c0.59,0.4,0.8,1.17,0.84,1.88c0.19,3.47-2.63,6.42-5.72,8.01
			c-3.09,1.59-6.58,2.29-9.62,3.95c-4.26,2.32-7.31,6.29-10.75,9.71c-3.44,3.42-7.83,6.5-12.67,6.19c-2.53-0.16-5.17-1.23-7.5-0.23
			c-1.4,0.6-2.38,1.85-3.38,3c-2.52,2.88-5.64,5.45-9.37,6.34c-4.66,1.12-10.48-1.06-11.18-6.27c-0.64-4.75,3.07-5.62,5.58-8.66
			C1304.25,716.94,1297.03,704.47,1301.72,694.61z"/>
		<path class="st6" d="M1180.32,1114.54l10.45-12.02c3.77-4.33,10.45-4.47,14.39-0.3l38.95,41.16c4.8,5.07-0.86,13.03-7.22,10.15
			c-7.25-3.28-14.66-6.19-22.21-8.73c-9.34-3.14-15.33,0.65-20.71-7.89c-0.86-1.36-7.59-9.6-12.91-13.98
			C1178.5,1120.81,1178.14,1117.04,1180.32,1114.54z"/>
		<path class="st9" d="M1020.5,725.27c-0.7-2.4-2.86-4.3-5.33-4.64c-0.05-0.03-0.09-0.07-0.14-0.1c-0.77-0.48-1.94-0.23-2.39,0.59
			c-0.16,0.28-0.2,0.59-0.21,0.89c-0.02,0.09-0.06,0.18-0.06,0.27c0.03,0.86,0.68,1.69,1.58,1.74c0.57,0.38,1.14,0.76,1.68,1.18
			c0.67,0.54,1.32,1.11,1.93,1.72c0.53,0.52,1.44,0.71,2.1,0.3C1020.32,726.82,1020.72,726.03,1020.5,725.27z"/>
		<path class="st9" d="M1055.18,723.44c-2.08-0.16-4.19,0.17-6.17,0.85c-0.12,0.04-0.24,0.08-0.36,0.12
			c-0.33,0.13-0.66,0.26-0.98,0.4c-0.29,0.12-0.59,0.22-0.88,0.36c-0.12,0.06-0.2,0.16-0.29,0.24c-0.18,0.1-0.37,0.17-0.55,0.28
			c-0.77,0.48-1.17,1.55-0.66,2.37c0.48,0.77,1.54,1.17,2.37,0.66c0.59-0.37,1.2-0.67,1.83-0.96c0.01,0,0.03-0.01,0.03-0.01
			c0.14-0.05,0.28-0.1,0.42-0.15c0.59-0.2,1.19-0.36,1.8-0.48c0.29-0.06,0.59-0.11,0.88-0.15c0.05-0.01,0.05-0.01,0.07-0.01
			c0.02,0,0.01,0,0.06,0c0.15-0.01,0.3-0.03,0.45-0.04c0.64-0.05,1.29-0.05,1.93-0.01c0.91,0.05,1.79-0.8,1.76-1.71
			C1056.86,724.21,1056.15,723.52,1055.18,723.44z"/>
		<path class="st7" d="M1045.83,744.2c0.35-0.05,0.77-0.07,1.01,0.18c0.17,0.18,0.21,0.44,0.23,0.68
			c0.59,5.37-0.92,11.44-5.44,14.41c-2.96,1.95-6.87,2.23-10.21,1.04c-3.34-1.19-6.11-3.76-7.85-6.85
			c-0.77-1.36-2.15-4.47-0.98-5.99c1-1.31,5.17-1.1,6.78-1.31C1034.86,745.64,1040.34,744.92,1045.83,744.2z"/>
	</g>
</g>
</svg>
