<?xml version="1.0" encoding="utf-8"?>
<!-- Generator: Adobe Illustrator 24.1.2, SVG Export Plug-In . SVG Version: 6.00 Build 0)  -->
<svg version="1.2" baseProfile="tiny" id="Layer_1" xmlns="http://www.w3.org/2000/svg" xmlns:xlink="http://www.w3.org/1999/xlink"
	 x="0px" y="0px" viewBox="0 0 2047.8 2046.8" overflow="visible" xml:space="preserve">
<g>
	<path fill="#77B2D3" d="M992.9,0c14.3,0,28.7,0,43,0c10.6,1.6,21.3,0.9,32,1c2.8,0.3,5.6,0.8,8.4,1c9.8,0.5,19.6,0.5,29.4,1.3
		c41.9,3.5,83.4,9.3,124.6,17.8c100.1,20.7,195,55.4,284.7,104.4c103.6,56.7,194.8,129,273.3,217.2
		c90.8,102,158.5,217.5,203.3,346.4c31.3,90.2,49.5,183.1,54.7,278.4c0.5,8.4-0.2,17,1.6,25.3c0,14,0,28,0,42c-1.5,11-0.9,22-1,33
		c-0.4,12.6-1.5,25.2-2.4,37.8c-3.1,41.9-9.2,83.4-17.6,124.5c-19,92.1-49.9,180-93.1,263.4c-59.5,114.9-137.9,215.1-235.2,300.4
		c-65.4,57.3-136.9,105.5-214.5,144.5c-73.5,37-150.5,64.7-230.7,83.1c-61,14-122.7,22.5-185.3,25.1c-10.7,0.1-21.4-0.6-32,1
		c-14.3,0-28.7,0-43,0c-2.7-1.4-5.6-0.8-8.3-0.9c-14.3-0.1-28.5-0.9-42.7-2.3c-41.8-4-83.4-9.4-124.5-17.9
		c-90.6-18.8-177.1-49-259.4-91.2c-98.5-50.4-186.6-115.1-264.3-194.1c-68.1-69.2-125.1-146.6-171.2-232.1
		c-50.8-94.1-85.9-193.8-105.2-299c-8.7-47.1-15-94.5-16.3-142.5c0-10.7,0.6-21.4-1-32c0-14.3,0-28.7,0-43c1.9-9.3,0.6-18.7,1-28
		c2.6-2,1.9-4.5,1.1-7c0.2-3.3,0.4-6.7,0.7-10c1.1-1.3,1.1-2.6,0.3-4c-0.6-4,0.5-7.9,1-11.9c2.2-16.1,3.1-32.4,5.5-48.5
		c4.7-31.3,10.3-62.4,17.5-93.3c21.1-90.2,53.9-176,98.4-257.3c60.4-110.4,138.4-206.5,234.2-288.1C463.7,156.2,580.9,91,711,49.1
		C794.3,22.2,879.7,6.5,967.1,1.6C975.7,1.2,984.4,1.9,992.9,0z M385.3,1000c-1.9,1.5-1.3,3.7-1.3,5.6c0.3,15-0.2,29.9,0.7,44.9
		c1.1,19.5,3,38.8,6.1,58c12,74.3,39.2,142.7,80.1,205.7c28.1,43.4,61.6,82.2,100.3,116.6c22.3,19.9,45.7,38.2,70.5,54.8
		c36.2,24.2,74.7,44.4,115.1,60.9c39.8,16.3,80.7,28.6,122.7,37.1c32.3,6.6,64.9,11.1,97.9,12.3c7.8,0.3,8,0.6,9.5,8.4
		c4.3,22.2,8.5,44.5,12.8,66.7c4.5,23,9,46.1,13.6,69.1c3.1,15.5,6.4,31,9.6,46.5c0.8,3.7,2.2,4.9,5.8,2.5c5.1-3.5,10.4-6.7,15.5-10
		c39.9-26.4,78.1-55,115.2-85.2c20.2-16.5,40.1-33.5,59.4-51.1c10.6-9.7,20.9-19.5,31.4-29.3c25.1-23.4,48.7-48.3,71.7-73.7
		c4.1-4.5,7.9-9.5,13.5-12.5c7.3-3.9,14.8-7.6,22.1-11.6c25.3-13.9,49.6-29.4,72.6-46.7c31.6-23.7,61.1-49.9,87.7-79.2
		c13.3-14.7,26.1-29.8,37.9-45.7c22.5-30.5,42.3-62.6,58.3-97.1c17.8-38.2,31.2-77.9,39.6-119.2c8.3-40.4,11.3-81.4,10.2-122.6
		c0-1.8,0.5-3.7-1.3-5.1c-0.1-0.7-0.2-1.3-0.1-2c3.4-37.5,1.4-74.8-3.8-111.9c-8.6-61.6-28.2-119.8-57.4-174.8
		c-30.4-57.2-69.8-107.5-117.1-151.6c-55.2-51.4-117.8-91.4-187.2-120.7c-84-35.5-171.8-53.5-262.9-55c-5-1.2-10-1.2-15,0
		c-27.1-0.1-54.2,2.2-81.1,5.3c-52,6.1-102.6,18.1-151.8,35.9c-85.9,31-162.5,77.3-228.6,140.5C508.7,612.4,469,665.7,439,726.1
		c-25.9,52-42.1,107.1-50.9,164.4c-2.8,18-3.4,36.3-4,54.6C383.5,963.4,384.3,981.7,385.3,1000z"/>
	<path fill="#BEDAE9" d="M2047.8,1067.9l-0.5,0l-0.5,0c0.1-11-0.5-22.1,1-33C2047.8,1045.9,2047.8,1056.9,2047.8,1067.9z"/>
	<path fill="#BEDAE9" d="M1067.9,0c0,0.3,0,0.6,0,1c-10.7-0.1-21.4,0.6-32-1C1046.6,0,1057.2,0,1067.9,0z"/>
	<path fill="#BEDAE9" d="M1,1067.9c-0.3,0-0.6,0-1,0c0-10.7,0-21.3,0-32C1.5,1046.5,0.9,1057.3,1,1067.9z"/>
	<path fill="#BEDAE9" d="M1067.9,2046.8c-0.1,0.3-0.1,0.6,0,1c-10.7,0-21.3,0-32,0C1046.5,2046.3,1057.2,2046.9,1067.9,2046.8z"/>
	<path fill="#FEFEFE" d="M1033.9,384c91.2,1.5,178.9,19.5,262.9,55c69.4,29.3,132.1,69.3,187.2,120.7
		c47.3,44.1,86.7,94.4,117.1,151.6c29.2,55,48.7,113.1,57.4,174.8c5.2,37.1,7.3,74.4,3.8,111.9c-0.1,0.6,0.1,1.3,0.1,2
		c-0.2,1.1-0.4,2.3-0.5,3.4c-2.3,29.7-7.7,58.8-15.1,87.6c-16.8,65.8-45.7,126.1-85.4,181.1c-58.9,81.8-134.4,144.1-224,189.7
		c-2.6,1.3-4.8,2.8-6.8,5c-47.6,53.5-99.2,102.9-154.1,148.8c-46.4,38.8-94.7,75.2-145.8,107.8c-8.2,5.2-6.9,4.5-8.6-3.4
		c-6.7-31.6-13.3-63.1-19.7-94.7c-5.7-28.2-11.2-56.5-16.5-84.9c-0.9-4.6-2.6-6.3-7.3-6.5c-25.9-0.9-51.6-4.3-77.1-8.6
		c-12.9-2.2-25.9-4.9-38.7-8.1c-26.5-6.7-52.8-14.1-78.5-23.4c-87.3-31.8-165-79.2-231.5-144.3c-74.4-72.8-126.1-159.2-152.5-260.2
		c-5-19-8.7-38.3-11.4-57.7c-1.5-10.5-2.4-21.1-3.6-31.7c-1.1-18.3-1.8-36.6-1.2-54.9c0.6-18.2,1.3-36.6,4-54.6
		c8.8-57.3,25-112.4,50.9-164.4c30-60.4,69.7-113.8,118.4-160.3c66.1-63.2,142.7-109.5,228.6-140.5c49.2-17.8,99.9-29.8,151.8-35.9
		c26.9-3.2,53.9-5.5,81.1-5.3C1023.9,385.4,1028.9,385.4,1033.9,384z M1087.8,957.9c-1-32.6-26.4-61.3-63.6-61.9
		c-34.6-0.5-63.7,27.9-64.1,61.9c-0.5,1.3-0.5,2.6,0,4c0.5,27.8,20.6,54.7,51.9,60.8c1,0.5,2.1,0.8,3.2,0.4c2.3,0.2,4.5,0.4,6.8,0.6
		c1.3,0.7,2.6,0.7,4,0c2.3-0.2,4.5-0.4,6.8-0.6c1.1,0.4,2.2,0.1,3.2-0.4c30.8-7.3,51.5-31.5,51.9-60.8
		C1088.3,960.6,1088.3,959.3,1087.8,957.9z M1343.7,960.9c0.5-0.7,0.6-1.3,0-2c0.2-6.4-1.1-12.6-3-18.6c-9.9-31.2-43.5-51.5-79-41.6
		c-29.1,8.2-54.9,40.6-43,80.1c7.1,23.7,24.4,38.6,49.2,43.9c0.6,0.5,1.3,0.7,2,0.3c2.3,0.2,4.7,0.5,7,0.7c1.7,0.8,3.3,0.8,5,0
		c2.3-0.2,4.5-0.4,6.8-0.6c1.1,0.4,2.2,0.2,3.2-0.4C1322.7,1015.8,1343.8,990.6,1343.7,960.9z M776.7,1023.1
		c0.8,0.3,1.5,0.2,2.2-0.3c34.3-5.8,57.1-37.7,52.1-72.7c-4.7-32.6-34.4-56.3-67.8-54c-32.7,2.2-59.2,30.4-59.1,62.8
		c-0.6,0.7-0.6,1.3,0,2c0,29.8,21,54.9,51.9,61.8c0.6,0.5,1.3,0.6,2,0.2c2.7,0.3,5.3,0.5,8,0.8c1.3,0.7,2.6,0.7,4,0
		C772.2,1023.5,774.4,1023.3,776.7,1023.1z"/>
	<path fill="#6695B0" d="M385.3,1000c1.2,10.6,2.2,21.2,3.6,31.7c2.7,19.4,6.4,38.7,11.4,57.7c26.4,101.1,78.1,187.4,152.5,260.2
		c66.5,65.1,144.2,112.5,231.5,144.3c25.7,9.4,51.9,16.8,78.5,23.4c12.8,3.2,25.8,5.9,38.7,8.1c25.5,4.3,51.2,7.7,77.1,8.6
		c4.8,0.2,6.5,1.8,7.3,6.5c5.3,28.3,10.8,56.6,16.5,84.9c6.4,31.6,13,63.2,19.7,94.7c1.7,7.9,0.4,8.6,8.6,3.4
		c51-32.6,99.3-69,145.8-107.8c54.9-45.9,106.5-95.3,154.1-148.8c1.9-2.2,4.2-3.7,6.8-5c89.6-45.6,165.1-107.9,224-189.7
		c39.7-55,68.6-115.3,85.4-181.1c7.4-28.8,12.8-57.9,15.1-87.6c0.1-1.2,0.3-2.3,0.5-3.4c1.8,1.3,1.3,3.3,1.3,5.1
		c1.1,41.2-2,82.2-10.2,122.6c-8.4,41.3-21.8,81-39.6,119.2c-16,34.4-35.7,66.6-58.3,97.1c-11.8,15.9-24.6,31-37.9,45.7
		c-26.6,29.3-56.1,55.4-87.7,79.2c-23.1,17.3-47.3,32.9-72.6,46.7c-7.3,4-14.7,7.7-22.1,11.6c-5.6,3-9.4,8-13.5,12.5
		c-23.1,25.4-46.6,50.3-71.7,73.7c-10.5,9.8-20.9,19.6-31.4,29.3c-19.3,17.7-39.1,34.6-59.4,51.1c-37.1,30.2-75.3,58.9-115.2,85.2
		c-5.1,3.4-10.4,6.6-15.5,10c-3.5,2.4-5,1.2-5.8-2.5c-3.2-15.5-6.5-31-9.6-46.5c-4.6-23-9.1-46.1-13.6-69.1
		c-4.3-22.2-8.5-44.5-12.8-66.7c-1.5-7.8-1.7-8.1-9.5-8.4c-33-1.2-65.6-5.8-97.9-12.3c-42-8.5-83-20.9-122.7-37.1
		c-40.4-16.5-78.8-36.7-115.1-60.9c-24.8-16.6-48.2-34.9-70.5-54.8c-38.6-34.5-72.1-73.3-100.3-116.6
		c-40.9-63-68.1-131.4-80.1-205.7c-3.1-19.2-5-38.5-6.1-58c-0.9-15-0.4-30-0.7-44.9C384,1003.7,383.4,1001.5,385.3,1000z"/>
	<path fill="#D3E6F1" d="M1033.9,384c-5,1.3-10,1.4-15,0C1023.9,382.9,1028.9,382.9,1033.9,384z"/>
	<path fill="#BEDAE9" d="M1,964.9c-0.2-2.4-0.2-4.8,1.1-7C3,960.4,3.6,962.9,1,964.9z"/>
	<path fill="#BEDAE9" d="M2.8,947.9c-0.8-1.4-0.7-2.7,0.3-4C4,945.3,3.9,946.6,2.8,947.9z"/>
	<path fill="#505D73" d="M765.9,1023.7c-2.7-0.3-5.3-0.5-8-0.8c-0.6-0.7-1.3-0.7-2-0.2c-30.9-7-51.9-32-51.9-61.8
		c0.6-0.7,0.6-1.3,0-2c-0.1-32.5,26.4-60.6,59.1-62.8c33.4-2.3,63.1,21.4,67.8,54c5,35-17.8,66.9-52.1,72.7
		c-0.8-0.6-1.6-0.5-2.2,0.3c-2.3,0.2-4.5,0.4-6.8,0.6C768.6,1022.9,767.3,1022.9,765.9,1023.7z"/>
	<path fill="#505D73" d="M1288.7,1023.1c-2.3,0.2-4.5,0.4-6.8,0.6c-1.6-0.9-3.3-0.9-5,0c-2.3-0.2-4.7-0.5-7-0.7
		c-0.6-0.7-1.3-0.8-2-0.3c-24.8-5.3-42-20.2-49.2-43.9c-11.9-39.5,13.9-71.9,43-80.1c35.5-9.9,69.1,10.4,79,41.6
		c1.9,6,3.2,12.2,3,18.6c-0.6,0.7-0.6,1.3,0,2c0.1,29.8-21,54.9-51.9,61.8C1290.7,1022,1289.6,1022.1,1288.7,1023.1z"/>
	<path fill="#505D73" d="M1087.8,961.9c-0.4,29.4-21,53.6-51.9,60.8c-1.2-0.7-2.2-0.5-3.2,0.4c-2.3,0.2-4.5,0.4-6.8,0.6
		c-1.3-0.8-2.6-0.8-4,0c-2.3-0.2-4.5-0.4-6.8-0.6c-1-0.9-2.1-1.1-3.2-0.4c-31.3-6.1-51.3-33.1-51.9-60.8c0.9-1.3,0.9-2.6,0-4
		c0.4-33.9,29.5-62.4,64.1-61.9c37.2,0.6,62.6,29.3,63.6,61.9C1086.9,959.3,1086.9,960.6,1087.8,961.9z"/>
	<path fill="#8D95A4" d="M1276.9,1023.7c1.7-0.9,3.3-0.9,5,0C1280.2,1024.5,1278.6,1024.5,1276.9,1023.7z"/>
	<path fill="#828C9C" d="M960.1,957.9c0.9,1.3,0.9,2.6,0,4C959.5,960.6,959.5,959.2,960.1,957.9z"/>
	<path fill="#828C9C" d="M1087.8,961.9c-0.9-1.3-0.9-2.6,0-4C1088.3,959.3,1088.3,960.6,1087.8,961.9z"/>
	<path fill="#8D95A4" d="M765.9,1023.7c1.3-0.8,2.6-0.8,4,0C768.6,1024.5,767.3,1024.5,765.9,1023.7z"/>
	<path fill="#9099A7" d="M1021.9,1023.8c1.3-0.8,2.6-0.8,4,0C1024.6,1024.5,1023.2,1024.5,1021.9,1023.8z"/>
	<path fill="#9099A7" d="M1011.9,1022.7c1.2-0.7,2.3-0.5,3.2,0.4C1014,1023.5,1012.9,1023.3,1011.9,1022.7z"/>
	<path fill="#9099A7" d="M1032.7,1023.1c1-0.9,2-1.1,3.2-0.4C1034.9,1023.3,1033.8,1023.5,1032.7,1023.1z"/>
	<path fill="#8D95A4" d="M1288.7,1023.1c1-1,2-1.1,3.2-0.4C1290.8,1023.3,1289.8,1023.5,1288.7,1023.1z"/>
	<path fill="#8892A0" d="M704.1,958.9c0.6,0.7,0.6,1.3,0,2C703.5,960.2,703.5,959.6,704.1,958.9z"/>
	<path fill="#8892A0" d="M1343.7,960.9c-0.6-0.7-0.6-1.3,0-2C1344.3,959.6,1344.3,960.2,1343.7,960.9z"/>
	<path fill="#8D95A4" d="M755.9,1022.7c0.7-0.5,1.4-0.5,2,0.2C757.2,1023.4,756.6,1023.3,755.9,1022.7z"/>
	<path fill="#8D95A4" d="M776.7,1023.1c0.6-0.8,1.4-0.9,2.2-0.3C778.2,1023.3,777.5,1023.4,776.7,1023.1z"/>
	<path fill="#8D95A4" d="M1267.9,1025.7c0.7-0.5,1.4-0.5,2,0.3C1269.2,1026.4,1268.5,1026.3,1267.9,1025.7z"/>
</g>
</svg>
